<?xml version="1.0" standalone="no"?>
<!DOCTYPE svg PUBLIC "-//W3C//DTD SVG 1.1//EN" "http://www.w3.org/Graphics/SVG/1.1/DTD/svg11.dtd" >
<svg>
<metadata>
Created by FontForge 20090622 at Sun Nov 17 09:17:53 2019
 By deploy user
Copyright Saudi Telecom Company
</metadata>
<defs>
<font id="STCForward-Regular" horiz-adv-x="0" >
  <font-face 
    font-family="STC Forward"
    font-weight="400"
    font-stretch="normal"
    units-per-em="1000"
    panose-1="0 0 5 0 0 0 0 0 0 0"
    ascent="800"
    descent="-200"
    x-height="510"
    cap-height="750"
    bbox="-380 -425 1312 1001"
    underline-thickness="50"
    underline-position="-50"
    unicode-range="U+0020-U+FEFC"
  />
<missing-glyph horiz-adv-x="863" 
d="M60 0v750h743v-750h-743zM133 69h598v612h-598v-612zM537 217l-109 109l-110 -110l-42 44l109 109l-109 109l42 43l110 -109l109 108l43 -42l-109 -109l109 -109z" />
    <glyph glyph-name="fi" unicode="fi" horiz-adv-x="676" 
d="M134 0v429h-100v81h100v102q0 65 39 101.5t113 36.5h144v-80h-138q-68 0 -68 -68v-92h130v-81h-130v-429h-90zM601 616h-90v134h90v-134zM511 0v429h-97v81h187v-510h-90z" />
    <glyph glyph-name="fl" unicode="fl" horiz-adv-x="713" 
d="M134 0v429h-100v81h100v102q0 65 39 101.5t113 36.5h144v-80h-138q-68 0 -68 -68v-92h155v-81h-155v-429h-90zM685 0h-64q-63 0 -96.5 32.5t-33.5 89.5v628h90v-620q0 -50 48 -50h56v-80z" />
    <glyph glyph-name="uniFEF5" unicode="&#xfedf;&#xfe82;" horiz-adv-x="656" arabic-form="isolated" 
d="M499 705h80v-518q0 -101 -42 -144t-144 -43h-361v93h196v423h80v-423h85q61 0 83.5 16.5t22.5 74.5v521zM217 612q-29 0 -61 -20l-18 45q33 26 76 26q20 0 49 -12t50 -12q30 0 61 19l15 -45q-27 -25 -69 -25q-22 0 -55.5 12t-47.5 12z" />
    <glyph glyph-name="uniFEF6" unicode="&#xfee0;&#xfe82;" horiz-adv-x="682" arabic-form="final" 
d="M682 93l17 -10v-73l-17 -10q-102 0 -133 57q-41 -57 -156 -57h-361v93h196v423h80v-423h85q61 0 83.5 16.5t22.5 74.5v521h80v-518q0 -19 -1 -28q2 -42 25 -54t79 -12zM217 612q-29 0 -61 -20l-18 45q33 26 76 26q20 0 49 -12t50 -12q30 0 61 19l15 -45q-27 -25 -69 -25
q-22 0 -55.5 12t-47.5 12z" />
    <glyph glyph-name="uniFEF7" unicode="&#xfedf;&#xfe84;" horiz-adv-x="656" arabic-form="isolated" 
d="M350 649v-51h-177v48h31q-16 18 -16 49q0 39 26.5 60.5t64.5 21.5q16 0 31 -3.5t22 -6.5l8 -3l-11 -43q-24 6 -50 6q-48 0 -48 -38q0 -21 9 -30.5t33 -9.5h77zM499 705h80v-518q0 -101 -42 -144t-144 -43h-361v93h196v423h80v-423h85q61 0 83.5 16.5t22.5 74.5v521z" />
    <glyph glyph-name="uniFEF8" unicode="&#xfee0;&#xfe84;" horiz-adv-x="682" arabic-form="final" 
d="M350 649v-51h-177v48h31q-16 18 -16 49q0 39 26.5 60.5t64.5 21.5q16 0 31 -3.5t22 -6.5l8 -3l-11 -43q-24 6 -50 6q-48 0 -48 -38q0 -21 9 -30.5t33 -9.5h77zM682 93l17 -10v-73l-17 -10q-102 0 -133 57q-41 -57 -156 -57h-361v93h196v423h80v-423h85q61 0 83.5 16.5
t22.5 74.5v521h80v-518q0 -19 -1 -28q2 -42 25 -54t79 -12z" />
    <glyph glyph-name="uniFEF9" unicode="&#xfedf;&#xfe88;" horiz-adv-x="656" arabic-form="isolated" 
d="M499 705h80v-518q0 -101 -42 -144t-144 -43h-361v93h196v423h80v-423h85q61 0 83.5 16.5t22.5 74.5v521zM208 -149q0 -21 9 -30.5t33 -9.5h77v-51h-177v48h31q-16 18 -16 49q0 39 26.5 60.5t64.5 21.5q16 0 31 -3.5t23 -6.5l7 -3l-11 -43q-24 6 -50 6q-48 0 -48 -38z" />
    <glyph glyph-name="uniFEFA" unicode="&#xfee0;&#xfe88;" horiz-adv-x="682" arabic-form="final" 
d="M682 93l17 -10v-73l-17 -10q-102 0 -133 57q-41 -57 -156 -57h-361v93h196v423h80v-423h85q61 0 83.5 16.5t22.5 74.5v521h80v-518q0 -19 -1 -28q2 -42 25 -54t79 -12zM209 -149q0 -21 9 -30.5t33 -9.5h77v-51h-177v48h31q-16 18 -16 49q0 39 26.5 60.5t64.5 21.5
q16 0 31 -3.5t22 -6.5l8 -3l-11 -43q-24 6 -50 6q-48 0 -48 -38z" />
    <glyph glyph-name="uniFEFB" unicode="&#xfedf;&#xfe8e;" horiz-adv-x="656" arabic-form="isolated" 
d="M499 705h80v-518q0 -101 -42 -144t-144 -43h-361v93h196v423h80v-423h85q61 0 83.5 16.5t22.5 74.5v521z" />
    <glyph glyph-name="uniFEFC" unicode="&#xfee0;&#xfe8e;" horiz-adv-x="682" arabic-form="final" 
d="M682 93l17 -10v-73l-17 -10q-102 0 -133 57q-41 -57 -156 -57h-361v93h196v423h80v-423h85q61 0 83.5 16.5t22.5 74.5v521h80v-518q0 -19 -1 -28q2 -42 25 -54t79 -12z" />
    <glyph glyph-name="f_b" unicode="fb" horiz-adv-x="1016" 
d="M134 612q0 65 39 101.5t113 36.5h144v-80h-138q-68 0 -68 -68v-92h155v-81h-155v-429h-90v429h-100v81h100v102zM728 523q103 0 170.5 -75t67.5 -193q0 -119 -67 -194t-171 -75q-112 0 -170 85v-71h-89v750h89v-311q60 84 170 84zM715 69q71 0 115 50t44 136
q0 84 -44 134.5t-115 50.5q-110 0 -157 -105v-160q47 -106 157 -106z" />
    <glyph glyph-name="f_f" unicode="ff" horiz-adv-x="752" 
d="M134 0v429h-100v81h100v102q0 65 39 101.5t113 36.5h144v-80h-138q-68 0 -68 -68v-92h110v-81h-110v-429h-90zM479 0v429h-98v81h98v102q0 65 39 101.5t113 36.5h145v-80h-139q-68 0 -68 -68v-92h155v-81h-155v-429h-90z" />
    <glyph glyph-name="f_f_b" unicode="ffb" horiz-adv-x="1362" 
d="M224 602v-92h104v-81h-104v-429h-90v429h-100v81h100v102q0 65 39 101.5t113 36.5h144v-80h-138q-68 0 -68 -68zM479 612q0 65 39 101.5t113 36.5h145v-80h-139q-68 0 -68 -68v-92h155v-81h-155v-429h-90v429h-100v81h100v102zM1073 523q104 0 171.5 -75t67.5 -193
q0 -119 -67.5 -194t-171.5 -75q-112 0 -170 85v-71h-89v750h89v-311q60 84 170 84zM1060 69q71 0 115.5 50t44.5 136q0 84 -44.5 134.5t-115.5 50.5q-110 0 -157 -105v-160q47 -106 157 -106z" />
    <glyph glyph-name="f_f_h" unicode="ffh" horiz-adv-x="1353" 
d="M224 602v-92h104v-81h-104v-429h-90v429h-100v81h100v102q0 65 39 101.5t113 36.5h144v-80h-138q-68 0 -68 -68zM479 612q0 65 39 101.5t113 36.5h145v-80h-139q-68 0 -68 -68v-92h155v-81h-155v-429h-90v429h-100v81h100v102zM1088 523q90 0 143 -55.5t53 -148.5v-319
h-91v299q0 64 -33 102.5t-96 38.5q-49 0 -94 -28.5t-65 -71.5v-340h-91v750h91v-316q67 89 183 89z" />
    <glyph glyph-name="f_f_i" unicode="ffi" horiz-adv-x="1022" 
d="M134 0v429h-100v81h100v102q0 65 39 101.5t113 36.5h144v-80h-138q-68 0 -68 -68v-92h110v-81h-110v-429h-90zM479 0v429h-98v81h98v102q0 65 39 101.5t113 36.5h145v-80h-139q-68 0 -68 -68v-92h155v-81h-155v-429h-90zM946 616h-90v134h90v-134zM856 0v429h-86v81h176
v-510h-90z" />
    <glyph glyph-name="f_f_j" unicode="ffj" horiz-adv-x="1023" 
d="M134 0v429h-100v81h100v102q0 65 39 101.5t113 36.5h144v-80h-138q-68 0 -68 -68v-92h105v-81h-105v-429h-90zM479 0v429h-100v81h100v102q0 65 39 101.5t113 36.5h145v-80h-139q-68 0 -68 -68v-92h109v-81h-109v-429h-90zM947 616h-90v134h90v-134zM663 -200v80h141
q53 0 53 56v493h-133v81h223v-584q0 -60 -35 -93t-102 -33h-147z" />
    <glyph glyph-name="f_f_k" unicode="ffk" horiz-adv-x="1272" 
d="M224 602v-92h107v-81h-107v-429h-90v429h-100v81h100v102q0 65 39 101.5t113 36.5h144v-80h-138q-68 0 -68 -68zM479 612q0 65 39 101.5t113 36.5h145v-80h-139q-68 0 -68 -68v-92h155v-81h-155v-429h-90v429h-100v81h100v102zM1144 0l-173 231h-66v-231h-91v750h91v-445
h66l166 205h106l-195 -238l205 -272h-109z" />
    <glyph glyph-name="f_f_l" unicode="ffl" horiz-adv-x="1058" 
d="M134 0v429h-100v81h100v102q0 65 39 101.5t113 36.5h144v-80h-138q-68 0 -68 -68v-92h110v-81h-110v-429h-90zM479 0v429h-98v81h98v102q0 65 39 101.5t113 36.5h145v-80h-139q-68 0 -68 -68v-92h155v-81h-155v-429h-90zM1030 0h-64q-63 0 -96.5 32.5t-33.5 89.5v628h90
v-620q0 -50 48 -50h56v-80z" />
    <glyph glyph-name="f_h" unicode="fh" horiz-adv-x="1008" 
d="M134 612q0 65 39 101.5t113 36.5h144v-80h-138q-68 0 -68 -68v-92h155v-81h-155v-429h-90v429h-100v81h100v102zM742 523q91 0 143.5 -55.5t52.5 -148.5v-319h-90v299q0 64 -33.5 102.5t-96.5 38.5q-50 0 -94.5 -29t-64.5 -73v-338h-90v750h90v-317q66 90 183 90z" />
    <glyph glyph-name="f_idieresis" unicode="f&#xef;" horiz-adv-x="676" 
d="M224 602v-92h110v-81h-110v-429h-90v429h-100v81h100v102q0 65 39 101.5t113 36.5h177v-134h-74v54h-97q-68 0 -68 -68zM532 750h74v-134h-74v134zM379 429v81h222v-510h-90v429h-132z" />
    <glyph glyph-name="f_j" unicode="fj" horiz-adv-x="678" 
d="M134 0v429h-100v81h100v102q0 65 39 101.5t113 36.5h144v-80h-138q-68 0 -68 -68v-92h109v-81h-109v-429h-90zM602 616h-90v134h90v-134zM318 -200v80h141q53 0 53 56v493h-133v81h223v-584q0 -60 -35 -93t-102 -33h-147z" />
    <glyph glyph-name="f_k" unicode="fk" horiz-adv-x="927" 
d="M134 612q0 65 39 101.5t113 36.5h144v-80h-138q-68 0 -68 -68v-92h155v-81h-155v-429h-90v429h-100v81h100v102zM799 0l-173 231h-67v-231h-90v750h90v-445h67l166 205h106l-196 -238l205 -272h-108z" />
    <glyph glyph-name="uni06440671" unicode="&#xfedf;&#xfb51;" horiz-adv-x="656" 
d="M499 705h80v-518q0 -101 -42 -144t-144 -43h-361v93h196v423h80v-423h85q61 0 83.5 16.5t22.5 74.5v521z" />
    <glyph glyph-name="uni06440671.fina" unicode="&#xfee0;&#xfb51;" horiz-adv-x="682" 
d="M682 93l17 -10v-73l-17 -10q-102 0 -133 57q-41 -57 -156 -57h-361v93h196v423h80v-423h85q61 0 83.5 16.5t22.5 74.5v521h80v-518q0 -19 -1 -28q2 -42 25 -54t79 -12z" />
    <glyph glyph-name="uni066E.init" unicode="&#x66e;" horiz-adv-x="265" 
d="M0 0l-17 10v73l17 10q69 0 97.5 16.5t28.5 69.5v217h79v-217q0 -96 -47.5 -137.5t-157.5 -41.5z" />
    <glyph glyph-name="uni066E.medi" unicode="&#x66e;" horiz-adv-x="330" 
d="M330 93l17 -10v-73l-17 -10q-124 0 -154 65q-42 -65 -176 -65l-17 10v73l17 10q69 0 97.5 15.5t28.5 68.5v219h79v-217q0 -56 27.5 -71t97.5 -15z" />
    <glyph glyph-name="uni066E.fina" unicode="&#x66e;" horiz-adv-x="955" 
d="M955 93l17 -10v-73l-17 -10q-129 0 -161 66q-42 -66 -176 -66h-325q-77 0 -128.5 15t-79 45.5t-38 68.5t-10.5 92q0 76 30 150h76q-27 -73 -27 -140q0 -77 40 -107.5t137 -30.5h325q69 0 97 15.5t28 68.5v219h79v-217q0 -56 29.5 -71t103.5 -15z" />
    <glyph glyph-name="uni066F.fina" unicode="&#x66f;" horiz-adv-x="826" 
d="M826 93l17 -10v-73l-17 -10h-103v-16q0 -106 -57.5 -156.5t-190.5 -50.5h-145q-89 0 -147 16.5t-90 53t-44 83.5t-12 118q0 100 33 184h79q-29 -85 -29 -177q0 -48 8.5 -79.5t30.5 -57t64 -37t107 -11.5h148q92 0 129 24.5t37 91.5v14h-122q-58 0 -99.5 16t-64 44
t-32.5 61t-10 73q0 100 63.5 161t169.5 61q45 0 88.5 -11t64.5 -21l21 -11v-280h103zM527 93h117v208q-40 21 -103 21q-70 0 -106 -32.5t-36 -86.5q0 -49 31.5 -79.5t96.5 -30.5z" />
    <glyph glyph-name="uni06A1.init" unicode="&#x6a1;" horiz-adv-x="487" 
d="M426 520l1 -349q0 -87 -41 -129t-137 -42h-249l-17 10v73l17 10h250q54 0 75.5 15.5t21.5 57.5v64q-40 -56 -136 -56q-90 0 -135 51.5t-45 127.5q0 95 62 154.5t163 59.5q44 0 86.5 -11.5t63.5 -23.5zM229 267q85 0 118 40v142q-39 24 -99 24q-66 0 -100 -29.5t-34 -79.5
q0 -43 29 -70t86 -27z" />
    <glyph glyph-name="uni06A1.medi" unicode="&#x6a1;" horiz-adv-x="531" 
d="M531 93l17 -5v-83l-17 -5h-531l-17 5v83l17 5h134q-66 59 -66 141q0 101 55 156t146 55q90 0 141 -53.5t51 -148.5q0 -87 -70 -150h140zM264 352q-51 0 -82 -30t-31 -84q0 -36 25 -69t91 -76q65 42 88 75.5t23 69.5q0 54 -31 84t-83 30z" />
    <glyph glyph-name="uni06A1.fina" unicode="&#x6a1;" horiz-adv-x="979" 
d="M979 93l17 -5v-83l-17 -5h-689q-75 0 -125.5 16.5t-78 49.5t-38.5 74t-11 99q0 76 29 157l79 1q-26 -74 -26 -148q0 -88 39 -122t132 -34h281q-66 59 -66 141q0 100 55 155.5t146 55.5q90 0 141 -53.5t51 -148.5q0 -87 -70 -150h151zM701 352q-51 0 -82 -30t-31 -84
q0 -35 25 -68.5t91 -76.5q65 42 88 75t23 70q0 54 -31 84t-83 30z" />
    <glyph glyph-name="uniFB51" unicode="&#x671;" horiz-adv-x="277" arabic-form="final" 
d="M254 0q-97 0 -136.5 42.5t-39.5 145.5v425h79v-425q0 -62 22.5 -78.5t97.5 -16.5l17 -10v-73l-17 -10h-23z" />
    <glyph glyph-name="uniFB6B" unicode="&#x6a4;" horiz-adv-x="979" arabic-form="final" 
d="M749 794v-103h-79v103h79zM681 655v-106h-76v106h76zM736 549v106h76v-106h-76zM979 93l17 -5v-83l-17 -5h-689q-75 0 -125.5 16.5t-78 49.5t-38.5 74t-11 99q0 76 29 157l79 1q-26 -74 -26 -148q0 -88 39 -122t132 -34h281q-66 59 -66 141q0 100 55 155.5t146 55.5
q90 0 141 -53.5t51 -148.5q0 -87 -70 -150h151zM701 352q-51 0 -82 -30t-31 -84q0 -35 25 -68.5t91 -76.5q65 42 88 75t23 70q0 54 -31 84t-83 30z" />
    <glyph glyph-name="uniFB6C" unicode="&#x6a4;" horiz-adv-x="487" arabic-form="initial" 
d="M299 903v-103h-79v103h79zM231 764v-106h-76v106h76zM286 658v106h76v-106h-76zM426 520l1 -349q0 -87 -41 -129t-137 -42h-249l-17 10v73l17 10h250q54 0 75.5 15.5t21.5 57.5v64q-40 -56 -136 -56q-90 0 -135 51.5t-45 127.5q0 95 62 154.5t163 59.5q44 0 86.5 -11.5
t63.5 -23.5zM229 267q85 0 118 40v142q-39 24 -99 24q-66 0 -100 -29.5t-34 -79.5q0 -43 29 -70t86 -27z" />
    <glyph glyph-name="uniFB6D" unicode="&#x6a4;" horiz-adv-x="531" arabic-form="medial" 
d="M312 794v-103h-79v103h79zM244 655v-106h-76v106h76zM299 549v106h76v-106h-76zM531 93l17 -5v-83l-17 -5h-531l-17 5v83l17 5h134q-66 59 -66 141q0 101 55 156t146 55q90 0 141 -53.5t51 -148.5q0 -87 -70 -150h140zM264 352q-51 0 -82 -30t-31 -84q0 -36 25 -69
t91 -76q65 42 88 75.5t23 69.5q0 54 -31 84t-83 30z" />
    <glyph glyph-name="uniFB9F" unicode="&#x6ba;" horiz-adv-x="712" arabic-form="final" 
d="M712 93l17 -10v-73l-17 -10q-68 0 -104 25q-6 -108 -75 -172t-215 -64q-79 0 -135.5 22t-87.5 62t-44.5 87t-13.5 105q0 54 11 110t25 87h80q-33 -95 -33 -190q0 -88 45.5 -139t158.5 -51t158.5 42t45.5 120v350h80v-227q0 -47 23 -60.5t81 -13.5z" />
    <glyph glyph-name="uniFC31" unicode="&#xfc31;" horiz-adv-x="902" arabic-form="isolated" 
d="M711 766v-106h-79v106h79zM842 171q0 -80 -34 -121.5t-113 -48.5v-20q0 -219 -318 -219q-99 0 -166.5 19.5t-105 59t-53 90.5t-15.5 123q0 55 9 112t22 87h79q-27 -88 -27 -189q0 -120 57.5 -164.5t204.5 -44.5q93 0 146 17t69 41t16 60v27h-172v93h224q53 0 75 15.5
t22 57.5v65q-39 -57 -137 -57q-89 0 -134 51.5t-45 127.5q0 95 61.5 154.5t163.5 59.5q44 0 86.5 -11.5t62.5 -23.5l21 -12zM643 267q84 0 119 40v142q-40 24 -100 24q-66 0 -99.5 -29.5t-33.5 -79.5q0 -43 28.5 -70t85.5 -27z" />
    <glyph glyph-name="uniFC32" unicode="&#xfc32;" horiz-adv-x="902" arabic-form="isolated" 
d="M711 766v-106h-79v106h79zM842 171q0 -80 -34 -121.5t-113 -48.5v-20q0 -219 -318 -219q-99 0 -166.5 19.5t-105 59t-53 90.5t-15.5 123q0 55 9 112t22 87h79q-27 -88 -27 -189q0 -120 57.5 -164.5t204.5 -44.5q93 0 146 17t69 41t16 60v27h-172v93h224q53 0 75 15.5
t22 57.5v65q-39 -57 -137 -57q-89 0 -134 51.5t-45 127.5q0 95 61.5 154.5t163.5 59.5q44 0 86.5 -11.5t62.5 -23.5l21 -12zM643 267q84 0 119 40v142q-40 24 -100 24q-66 0 -99.5 -29.5t-33.5 -79.5q0 -43 28.5 -70t85.5 -27zM280 -425v106h76v-106h-76zM409 -425v106h76
v-106h-76z" />
    <glyph glyph-name="uniFC35" unicode="&#xfc35;" horiz-adv-x="902" arabic-form="isolated" 
d="M645 760v-106h-77v106h77zM773 760v-106h-76v106h76zM842 171q0 -80 -34 -121.5t-113 -48.5v-20q0 -219 -318 -219q-99 0 -166.5 19.5t-105 59t-53 90.5t-15.5 123q0 55 9 112t22 87h79q-27 -88 -27 -189q0 -120 57.5 -164.5t204.5 -44.5q93 0 146 17t69 41t16 60v27
h-172v93h224q53 0 75 15.5t22 57.5v65q-39 -57 -137 -57q-89 0 -134 51.5t-45 127.5q0 95 61.5 154.5t163.5 59.5q44 0 86.5 -11.5t62.5 -23.5l21 -12zM643 267q84 0 119 40v142q-40 24 -100 24q-66 0 -99.5 -29.5t-33.5 -79.5q0 -43 28.5 -70t85.5 -27z" />
    <glyph glyph-name="uniFC36" unicode="&#xfc36;" horiz-adv-x="902" arabic-form="isolated" 
d="M645 760v-106h-77v106h77zM773 760v-106h-76v106h76zM842 171q0 -80 -34 -121.5t-113 -48.5v-20q0 -219 -318 -219q-99 0 -166.5 19.5t-105 59t-53 90.5t-15.5 123q0 55 9 112t22 87h79q-27 -88 -27 -189q0 -120 57.5 -164.5t204.5 -44.5q93 0 146 17t69 41t16 60v27
h-172v93h224q53 0 75 15.5t22 57.5v65q-39 -57 -137 -57q-89 0 -134 51.5t-45 127.5q0 95 61.5 154.5t163.5 59.5q44 0 86.5 -11.5t62.5 -23.5l21 -12zM643 267q84 0 119 40v142q-40 24 -100 24q-66 0 -99.5 -29.5t-33.5 -79.5q0 -43 28.5 -70t85.5 -27zM280 -425v106h76
v-106h-76zM409 -425v106h76v-106h-76z" />
    <glyph glyph-name="uniFE82" unicode="&#x622;" horiz-adv-x="277" arabic-form="final" 
d="M225 756l15 -45q-28 -25 -69 -25q-22 0 -55.5 12t-47.5 12q-29 0 -61 -20l-18 45q33 26 76 26q20 0 49 -12t50 -12q30 0 61 19zM254 0q-97 0 -136.5 42.5t-39.5 145.5v425h79v-425q0 -62 22.5 -78.5t97.5 -16.5l17 -10v-73l-17 -10h-23z" />
    <glyph glyph-name="uniFE84" unicode="&#x623;" horiz-adv-x="277" arabic-form="final" 
d="M201 747v-51h-177v48h31q-16 18 -16 49q0 39 26.5 60.5t64.5 21.5q16 0 31 -3.5t23 -6.5l7 -3l-11 -43q-24 6 -50 6q-48 0 -48 -38q0 -21 9 -30.5t33 -9.5h77zM277 93l17 -10v-73l-17 -10h-23q-97 0 -136.5 42.5t-39.5 145.5v425h79v-425q0 -62 22.5 -78.5t97.5 -16.5z
" />
    <glyph glyph-name="uniFE86" unicode="&#x624;" horiz-adv-x="549" arabic-form="final" 
d="M342 550v-51h-177v48h31q-16 18 -16 49q0 39 26.5 60.5t64.5 21.5q16 0 31 -3t22 -7l8 -3l-11 -43q-24 6 -50 6q-48 0 -48 -38q0 -21 9 -30.5t33 -9.5h77zM549 93l17 -10v-73l-17 -10h-104v-32q0 -90 -42.5 -133.5t-140.5 -43.5h-190v93h192q57 0 79.5 19t22.5 70v27
h-122q-206 0 -206 191q0 101 63.5 163t169.5 62q45 0 88.5 -11t64.5 -21l21 -11v-280h104zM249 93h117v208q-40 21 -103 21q-70 0 -106 -33t-36 -89q0 -48 31 -77.5t97 -29.5z" />
    <glyph glyph-name="uniFE88" unicode="&#x625;" horiz-adv-x="277" arabic-form="final" 
d="M277 93l17 -10v-73l-17 -10h-23q-97 0 -136.5 42.5t-39.5 145.5v517h79v-517q0 -62 22.5 -78.5t97.5 -16.5zM101 -149q0 -21 9 -30.5t33 -9.5h77v-51h-177v48h31q-16 18 -16 49q0 39 26.5 60.5t64.5 21.5q16 0 31 -3.5t22 -6.5l8 -3l-11 -43q-24 6 -50 6q-48 0 -48 -38z
" />
    <glyph glyph-name="uniFE8A" unicode="&#x626;" horiz-adv-x="742" arabic-form="final" 
d="M197 390v-51h-177v48h31q-16 18 -16 49q0 39 26.5 60.5t64.5 21.5q16 0 31 -3t23 -7l7 -3l-11 -43q-24 6 -50 6q-48 0 -48 -38q0 -21 9 -30.5t33 -9.5h77zM742 93l17 -10v-73l-17 -10h-47v-19q0 -219 -318 -219q-99 0 -166.5 19.5t-105 59t-53 90.5t-15.5 123q0 55 9 112
t22 87h79q-27 -88 -27 -189q0 -120 57.5 -164.5t204.5 -44.5q93 0 146 17t69 41t16 60v27h-175v93h304z" />
    <glyph glyph-name="uniFE8B" unicode="&#x626;" horiz-adv-x="265" arabic-form="initial" 
d="M173 530h77v-51h-177v48h31q-16 18 -16 49q0 39 26.5 60.5t64.5 21.5q16 0 31 -3t22 -7l8 -3l-11 -43q-24 6 -50 6q-48 0 -48 -38q0 -21 9 -30.5t33 -9.5zM126 179v217h79v-217q0 -96 -47.5 -137.5t-157.5 -41.5l-17 10v73l17 10q69 0 97.5 16.5t28.5 69.5z" />
    <glyph glyph-name="uniFE8C" unicode="&#x626;" horiz-adv-x="330" arabic-form="medial" 
d="M250 530v-51h-177v48h31q-16 18 -16 49q0 39 26.5 60.5t64.5 21.5q16 0 31 -3t22 -7l8 -3l-11 -43q-24 6 -50 6q-48 0 -48 -38q0 -21 9 -30.5t33 -9.5h77zM330 93l17 -10v-73l-17 -10q-124 0 -154 65q-42 -65 -176 -65l-17 10v73l17 10q69 0 97.5 15.5t28.5 68.5v219h79
v-217q0 -56 27.5 -71t97.5 -15z" />
    <glyph glyph-name="uniFE8E" unicode="&#x627;" horiz-adv-x="277" arabic-form="final" 
d="M254 0q-97 0 -136.5 42.5t-39.5 145.5v517h79v-517q0 -62 22.5 -78.5t97.5 -16.5l17 -10v-73l-17 -10h-23z" />
    <glyph glyph-name="uniFE90" unicode="&#x628;" horiz-adv-x="955" arabic-form="final" 
d="M955 93l17 -10v-73l-17 -10q-129 0 -161 66q-42 -66 -176 -66h-325q-77 0 -128.5 15t-79 45.5t-38 68.5t-10.5 92q0 76 30 150h76q-27 -73 -27 -140q0 -77 40 -107.5t137 -30.5h325q69 0 97 15.5t28 68.5v219h79v-217q0 -56 29.5 -71t103.5 -15zM385 -199v106h79v-106
h-79z" />
    <glyph glyph-name="uniFE91" unicode="&#x628;" horiz-adv-x="265" arabic-form="initial" 
d="M0 0l-17 10v73l17 10q69 0 97.5 16.5t28.5 69.5v217h79v-217q0 -96 -47.5 -137.5t-157.5 -41.5zM113 -200v106h79v-106h-79z" />
    <glyph glyph-name="uniFE92" unicode="&#x628;" horiz-adv-x="330" arabic-form="medial" 
d="M330 93l17 -10v-73l-17 -10q-124 0 -154 65q-42 -65 -176 -65l-17 10v73l17 10q69 0 97.5 15.5t28.5 68.5v219h79v-217q0 -56 27.5 -71t97.5 -15zM126 -199v106h79v-106h-79z" />
    <glyph glyph-name="uniFE94" unicode="&#x629;" horiz-adv-x="560" arabic-form="final" 
d="M231 671v-106h-77v106h77zM359 671v-106h-76v106h76zM560 93l17 -4v-85l-17 -4q-78 0 -124.5 25t-62.5 87q-37 -72 -145 -72q-96 0 -143.5 56t-47.5 141q0 102 65.5 165t176.5 63q45 0 86 -15v46h79q0 -83 -0.5 -190.5t-0.5 -113.5q0 -59 24.5 -79t92.5 -20zM246 133
q87 0 119 45v8v175q-33 11 -88 11q-79 0 -118 -33.5t-39 -90.5q0 -51 32 -83t94 -32z" />
    <glyph glyph-name="uniFE96" unicode="&#x62a;" horiz-adv-x="955" arabic-form="final" 
d="M411 524v-106h-77v106h77zM539 524v-106h-76v106h76zM955 93l17 -10v-73l-17 -10q-129 0 -161 66q-42 -66 -176 -66h-325q-77 0 -128.5 15t-79 45.5t-38 68.5t-10.5 92q0 76 30 150h76q-27 -73 -27 -140q0 -77 40 -107.5t137 -30.5h325q69 0 97 15.5t28 68.5v219h79v-217
q0 -56 29.5 -71t103.5 -15z" />
    <glyph glyph-name="uniFE97" unicode="&#x62a;" horiz-adv-x="265" arabic-form="initial" 
d="M63 484v106h77v-106h-77zM192 484v106h76v-106h-76zM0 0l-17 10v73l17 10q69 0 97.5 16.5t28.5 69.5v217h79v-217q0 -96 -47.5 -137.5t-157.5 -41.5z" />
    <glyph glyph-name="uniFE98" unicode="&#x62a;" horiz-adv-x="330" arabic-form="medial" 
d="M140 590v-106h-77v106h77zM268 590v-106h-76v106h76zM330 93l17 -10v-73l-17 -10q-124 0 -154 65q-42 -65 -176 -65l-17 10v73l17 10q69 0 97.5 15.5t28.5 68.5v219h79v-217q0 -56 27.5 -71t97.5 -15z" />
    <glyph glyph-name="uniFE9A" unicode="&#x62b;" horiz-adv-x="955" arabic-form="final" 
d="M480 666v-103h-79v103h79zM412 527v-106h-76v106h76zM467 421v106h76v-106h-76zM955 93l17 -10v-73l-17 -10q-129 0 -161 66q-42 -66 -176 -66h-325q-77 0 -128.5 15t-79 45.5t-38 68.5t-10.5 92q0 76 30 150h76q-27 -73 -27 -140q0 -77 40 -107.5t137 -30.5h325
q69 0 97 15.5t28 68.5v219h79v-217q0 -56 29.5 -71t103.5 -15z" />
    <glyph glyph-name="uniFE9B" unicode="&#x62b;" horiz-adv-x="265" arabic-form="initial" 
d="M130 629v103h79v-103h-79zM65 487v106h76v-106h-76zM196 487v106h76v-106h-76zM0 0l-17 10v73l17 10q69 0 97.5 16.5t28.5 69.5v217h79v-217q0 -96 -47.5 -137.5t-157.5 -41.5z" />
    <glyph glyph-name="uniFE9C" unicode="&#x62b;" horiz-adv-x="330" arabic-form="medial" 
d="M209 732v-103h-79v103h79zM141 593v-106h-76v106h76zM196 487v106h76v-106h-76zM330 93l17 -10v-73l-17 -10q-124 0 -154 65q-42 -65 -176 -65l-17 10v73l17 10q69 0 97.5 15.5t28.5 68.5v219h79v-217q0 -56 27.5 -71t97.5 -15z" />
    <glyph glyph-name="uniFE9E" unicode="&#x62c;" horiz-adv-x="691" arabic-form="final" 
d="M691 93l17 -10v-73l-17 -10q-83 0 -121 33q-30 -33 -90 -33h-244q-117 0 -117 -96q0 -55 39.5 -88.5t142.5 -33.5h194v-93h-201q-134 0 -196.5 57t-62.5 152q0 37 10 69.5t32 62t63.5 46.5t98.5 17h241q37 0 37 32v86q0 116 -161 116q-96 0 -185 -36l-22 80
q103 49 215 49q31 0 59 -3.5t61.5 -16t57.5 -33t40.5 -58t16.5 -87.5v-95q0 -13 -1 -19q18 -15 93 -15zM372 -166h-71v95h71v-95z" />
    <glyph glyph-name="uniFE9F" unicode="&#x62c;" horiz-adv-x="598" arabic-form="initial" 
d="M0 0l-17 4v85l17 4h449v99q0 135 -169 135q-103 0 -207 -47l-23 79q109 61 238 61q32 0 61 -4t64 -17t59.5 -35t41.5 -62t17 -93v-114q0 -95 -84 -95h-447zM225 -199v106h79v-106h-79z" />
    <glyph glyph-name="uniFEA0" unicode="&#x62c;" horiz-adv-x="631" arabic-form="medial" 
d="M631 93l17 -10v-73l-17 -10q-80 0 -117 28q-21 -28 -67 -28h-447l-17 4v85l17 4h449v99q0 135 -169 135q-103 0 -207 -47l-23 79q109 61 238 61q32 0 61 -4t64 -17t59.5 -35t41.5 -62t17 -93v-94q12 -15 33 -18.5t67 -3.5zM225 -199v106h79v-106h-79z" />
    <glyph glyph-name="uniFEA2" unicode="&#x62d;" horiz-adv-x="691" arabic-form="final" 
d="M691 93l17 -10v-73l-17 -10q-83 0 -121 33q-30 -33 -90 -33h-244q-117 0 -117 -96q0 -55 39.5 -88.5t142.5 -33.5h194v-93h-201q-134 0 -196.5 57t-62.5 152q0 37 10 69.5t32 62t63.5 46.5t98.5 17h241q37 0 37 32v86q0 116 -161 116q-96 0 -185 -36l-22 80
q103 49 215 49q31 0 59 -3.5t61.5 -16t57.5 -33t40.5 -58t16.5 -87.5v-95q0 -13 -1 -19q18 -15 93 -15z" />
    <glyph glyph-name="uniFEA3" unicode="&#x62d;" horiz-adv-x="598" arabic-form="initial" 
d="M0 0l-17 4v85l17 4h449v99q0 135 -169 135q-103 0 -207 -47l-23 79q109 61 238 61q32 0 61 -4t64 -17t59.5 -35t41.5 -62t17 -93v-114q0 -95 -84 -95h-447z" />
    <glyph glyph-name="uniFEA4" unicode="&#x62d;" horiz-adv-x="631" arabic-form="medial" 
d="M631 93l17 -10v-73l-17 -10q-81 0 -117 29q-21 -29 -67 -29h-447l-17 4v85l17 4h449v99q0 135 -169 135q-103 0 -207 -47l-23 79q109 61 238 61q32 0 61 -4t64 -17t59.5 -35t41.5 -62t17 -93v-93q12 -16 33 -19.5t67 -3.5z" />
    <glyph glyph-name="uniFEA6" unicode="&#x62e;" horiz-adv-x="691" arabic-form="final" 
d="M396 620v-106h-79v106h79zM691 93l17 -10v-73l-17 -10q-83 0 -121 33q-30 -33 -90 -33h-244q-117 0 -117 -96q0 -55 39.5 -88.5t142.5 -33.5h194v-93h-201q-134 0 -196.5 57t-62.5 152q0 37 10 69.5t32 62t63.5 46.5t98.5 17h241q37 0 37 32v86q0 116 -161 116
q-96 0 -185 -36l-22 80q103 49 215 49q31 0 59 -3.5t61.5 -16t57.5 -33t40.5 -58t16.5 -87.5v-95q0 -13 -1 -19q18 -15 93 -15z" />
    <glyph glyph-name="uniFEA7" unicode="&#x62e;" horiz-adv-x="598" arabic-form="initial" 
d="M252 513v106h79v-106h-79zM0 0l-17 4v85l17 4h449v99q0 135 -169 135q-103 0 -207 -47l-23 79q109 61 238 61q32 0 61 -4t64 -17t59.5 -35t41.5 -62t17 -93v-114q0 -95 -84 -95h-447z" />
    <glyph glyph-name="uniFEA8" unicode="&#x62e;" horiz-adv-x="631" arabic-form="medial" 
d="M331 619v-106h-79v106h79zM631 93l17 -10v-73l-17 -10q-81 0 -117 29q-21 -29 -67 -29h-447l-17 4v85l17 4h449v99q0 135 -169 135q-103 0 -207 -47l-23 79q109 61 238 61q32 0 61 -4t64 -17t59.5 -35t41.5 -62t17 -93v-93q12 -16 33 -19.5t67 -3.5z" />
    <glyph glyph-name="uniFEAA" unicode="&#x62f;" horiz-adv-x="592" arabic-form="final" 
d="M592 93l17 -10v-73l-17 -10q-89 0 -123 42q-29 -42 -104 -42h-325v93h366v86q0 25 -5 42t-23 36t-50 33t-87.5 27t-135.5 24l14 89q115 -15 190.5 -37.5t114 -55t52.5 -67.5t13 -83v-34q3 -37 26 -48.5t77 -11.5z" />
    <glyph glyph-name="uniFEAC" unicode="&#x630;" horiz-adv-x="592" arabic-form="final" 
d="M287 643v-106h-79v106h79zM592 93l17 -10v-73l-17 -10q-89 0 -123 42q-29 -42 -104 -42h-325v93h366v86q0 25 -5 42t-23 36t-50 33t-87.5 27t-135.5 24l14 89q115 -15 190.5 -37.5t114 -55t52.5 -67.5t13 -83v-34q3 -37 26 -48.5t77 -11.5z" />
    <glyph glyph-name="uniFEAE" unicode="&#x631;" horiz-adv-x="353" arabic-form="final" 
d="M353 93l17 -10v-73l-17 -10q-70 0 -104 25v-73q0 -77 -35.5 -119t-122.5 -42h-97v93h95q46 0 63.5 14.5t17.5 51.5v446h79v-229q0 -47 23 -60.5t81 -13.5z" />
    <glyph glyph-name="uniFEB0" unicode="&#x632;" horiz-adv-x="353" arabic-form="final" 
d="M249 595v-106h-79v106h79zM353 93l17 -10v-73l-17 -10q-70 0 -104 25v-73q0 -77 -35.5 -119t-122.5 -42h-97v93h95q46 0 63.5 14.5t17.5 51.5v446h79v-229q0 -47 23 -60.5t81 -13.5z" />
    <glyph glyph-name="uniFEB2" unicode="&#x633;" horiz-adv-x="1288" arabic-form="final" 
d="M1288 93l17 -10v-73l-17 -10q-125 0 -163 60q-31 -60 -140 -60q-103 0 -135 54q-31 -54 -139 -54h-106q-28 -208 -287 -208q-79 0 -135.5 22t-87.5 62t-44.5 87t-13.5 105q0 54 11 110t25 87h80q-33 -95 -33 -190q0 -88 45.5 -139t158.5 -51t158.5 42t45.5 120v287h80
v-241h105q51 0 73 12t22 40v189h79v-211q26 -30 99 -30q51 0 73 13.5t22 45.5v243h79v-266q34 -36 128 -36z" />
    <glyph glyph-name="uniFEB3" unicode="&#x633;" horiz-adv-x="825" arabic-form="initial" 
d="M685 395h80v-244q-2 -76 -47.5 -113.5t-124.5 -37.5q-105 0 -140 51q-35 -51 -149 -51q-111 0 -143 54q-30 -54 -132 -54h-29l-17 10v73l17 10h32q47 0 67.5 12t20.5 40v189h79v-214q31 -27 106 -27q58 0 83 12t25 40v189h79v-210q27 -31 103 -31q45 0 66.5 13t23.5 45
v244z" />
    <glyph glyph-name="uniFEB4" unicode="&#x633;" horiz-adv-x="889" arabic-form="medial" 
d="M889 93l17 -10v-73l-17 -10q-123 0 -160 59q-31 -59 -139 -59q-105 0 -134 54q-36 -54 -152 -54q-111 0 -143 54q-30 -54 -132 -54h-29l-17 10v73l17 10h32q47 0 67.5 12t20.5 40v189h79v-214q31 -27 106 -27q58 0 83 12t25 40v189h79v-211q26 -30 99 -30q51 0 72.5 13.5
t21.5 45.5v243h80v-267q33 -35 124 -35z" />
    <glyph glyph-name="uniFEB6" unicode="&#x634;" horiz-adv-x="1288" arabic-form="final" 
d="M891 689v-103h-79v103h79zM823 550v-106h-76v106h76zM878 444v106h76v-106h-76zM1288 93l17 -10v-73l-17 -10q-125 0 -163 60q-31 -60 -140 -60q-103 0 -135 54q-31 -54 -139 -54h-106q-28 -208 -287 -208q-79 0 -135.5 22t-87.5 62t-44.5 87t-13.5 105q0 54 11 110
t25 87h80q-33 -95 -33 -190q0 -88 45.5 -139t158.5 -51t158.5 42t45.5 120v287h80v-241h105q51 0 73 12t22 40v189h79v-211q26 -30 99 -30q51 0 73 13.5t22 45.5v243h79v-266q34 -36 128 -36z" />
    <glyph glyph-name="uniFEB7" unicode="&#x634;" horiz-adv-x="825" arabic-form="initial" 
d="M495 688v-103h-79v103h79zM427 549v-106h-76v106h76zM482 443v106h76v-106h-76zM685 395h80v-244q-2 -76 -47.5 -113.5t-124.5 -37.5q-105 0 -140 51q-35 -51 -149 -51q-111 0 -143 54q-30 -54 -132 -54h-29l-17 10v73l17 10h32q47 0 67.5 12t20.5 40v189h79v-214
q31 -27 106 -27q58 0 83 12t25 40v189h79v-210q27 -31 103 -31q45 0 66.5 13t23.5 45v244z" />
    <glyph glyph-name="uniFEB8" unicode="&#x634;" horiz-adv-x="889" arabic-form="medial" 
d="M495 690v-103h-79v103h79zM427 551v-106h-76v106h76zM482 445v106h76v-106h-76zM889 93l17 -10v-73l-17 -10q-123 0 -160 59q-31 -59 -139 -59q-105 0 -134 54q-36 -54 -152 -54q-111 0 -143 54q-30 -54 -132 -54h-29l-17 10v73l17 10h32q47 0 67.5 12t20.5 40v189h79
v-214q31 -27 106 -27q58 0 83 12t25 40v189h79v-211q26 -30 99 -30q51 0 72.5 13.5t21.5 45.5v243h80v-267q33 -35 124 -35z" />
    <glyph glyph-name="uniFEBA" unicode="&#x635;" horiz-adv-x="1193" arabic-form="final" 
d="M1193 93l17 -10v-73l-17 -10q-100 0 -132 55q-58 -55 -182 -55h-274q-28 -208 -287 -208q-79 0 -135.5 22t-87.5 62t-44.5 87t-13.5 105q0 54 11 110t25 87h80q-33 -95 -33 -190q0 -88 45.5 -139t158.5 -51t158.5 42t45.5 120v339h80v-71q81 37 119.5 53t97.5 34t100 18
q86 0 138 -54t52 -157q0 -52 -14 -92q17 -24 92 -24zM879 93q83 0 118.5 23.5t35.5 87.5q0 62 -33 92.5t-89 30.5q-48 0 -116 -23.5t-187 -75.5v-135h271z" />
    <glyph glyph-name="uniFEBB" unicode="&#x635;" horiz-adv-x="744" arabic-form="initial" 
d="M495 420q86 0 137.5 -54t51.5 -157q0 -110 -59 -159.5t-176 -49.5h-449l-17 12v69l17 12h102v291h79v-67l118.5 52t96 33.5t99.5 17.5zM449 93q82 0 118 23.5t36 87.5q0 62 -33 92.5t-89 30.5q-47 0 -113 -23t-187 -75v-136h268z" />
    <glyph glyph-name="uniFEBC" unicode="&#x635;" horiz-adv-x="763" arabic-form="medial" 
d="M763 93l17 -10v-73l-17 -10q-100 0 -132 56q-57 -56 -182 -56h-449l-17 12v69l17 12h102v291h79v-67l118.5 52t96 33.5t99.5 17.5q86 0 137.5 -54t51.5 -157q0 -51 -14 -91q19 -25 93 -25zM449 93q82 0 118 23.5t36 87.5q0 62 -33 92.5t-89 30.5q-47 0 -113 -23t-187 -75
v-136h268z" />
    <glyph glyph-name="uniFEBE" unicode="&#x636;" horiz-adv-x="1193" arabic-form="final" 
d="M711 595v-106h-79v106h79zM1193 93l17 -10v-73l-17 -10q-100 0 -132 55q-58 -55 -182 -55h-274q-28 -208 -287 -208q-79 0 -135.5 22t-87.5 62t-44.5 87t-13.5 105q0 54 11 110t25 87h80q-33 -95 -33 -190q0 -88 45.5 -139t158.5 -51t158.5 42t45.5 120v339h80v-71
q81 37 119.5 53t97.5 34t100 18q86 0 138 -54t52 -157q0 -52 -14 -92q17 -24 92 -24zM879 93q83 0 118.5 23.5t35.5 87.5q0 62 -33 92.5t-89 30.5q-48 0 -116 -23.5t-187 -75.5v-135h271z" />
    <glyph glyph-name="uniFEBF" unicode="&#x636;" horiz-adv-x="744" arabic-form="initial" 
d="M280 595v-106h-79v106h79zM495 420q86 0 137.5 -54t51.5 -157q0 -110 -59 -159.5t-176 -49.5h-449l-17 12v69l17 12h102v291h79v-67l118.5 52t96 33.5t99.5 17.5zM449 93q82 0 118 23.5t36 87.5q0 62 -33 92.5t-89 30.5q-47 0 -113 -23t-187 -75v-136h268z" />
    <glyph glyph-name="uniFEC0" unicode="&#x636;" horiz-adv-x="763" arabic-form="medial" 
d="M281 595v-106h-79v106h79zM763 93l17 -10v-73l-17 -10q-100 0 -132 56q-57 -56 -182 -56h-449l-17 12v69l17 12h102v291h79v-67l118.5 52t96 33.5t99.5 17.5q86 0 137.5 -54t51.5 -157q0 -51 -14 -91q19 -25 93 -25zM449 93q82 0 118 23.5t36 87.5q0 62 -33 92.5
t-89 30.5q-47 0 -113 -23t-187 -75v-136h268z" />
    <glyph glyph-name="uniFEC2" unicode="&#x637;" horiz-adv-x="778" arabic-form="final" 
d="M778 93l17 -10v-73l-17 -10q-102 0 -133 58q-58 -58 -186 -58h-429v93h96v612h79v-384q155 70 211 86q48 13 85 13q88 0 140.5 -55t52.5 -159q0 -47 -12 -83q10 -18 32 -24t64 -6zM459 93q82 0 117.5 22.5t35.5 85.5q0 64 -33 95t-88 31q-33 0 -82 -14.5t-84.5 -29
l-119.5 -50.5v-140h254z" />
    <glyph glyph-name="uniFEC3" unicode="&#x637;" horiz-adv-x="712" arabic-form="initial" 
d="M459 420q88 0 140.5 -55t52.5 -159q0 -108 -59.5 -157t-176.5 -49h-416l-17 10v73l17 10h84v612h79v-384l112 50.5t87.5 31t96.5 17.5zM416 93q83 0 118.5 22.5t35.5 85.5q0 64 -33 95t-88 31q-33 0 -82 -14.5t-84.5 -29l-119.5 -50.5v-140h253z" />
    <glyph glyph-name="uniFEC4" unicode="&#x637;" horiz-adv-x="734" arabic-form="medial" 
d="M734 93l17 -10v-73l-17 -10q-101 0 -133 57q-57 -57 -185 -57h-416l-17 10v73l17 10h84v612h79v-384l112 50.5t87.5 31t96.5 17.5q88 0 140.5 -55t52.5 -159q0 -49 -12 -85q16 -28 94 -28zM416 93q83 0 118.5 22.5t35.5 85.5q0 64 -33 95t-88 31q-33 0 -82 -14.5
t-84.5 -29l-119.5 -50.5v-140h253z" />
    <glyph glyph-name="uniFEC6" unicode="&#x638;" horiz-adv-x="778" arabic-form="final" 
d="M778 93l17 -10v-73l-17 -10q-102 0 -133 58q-58 -58 -186 -58h-429v93h96v612h79v-384q155 70 211 86q48 13 85 13q88 0 140.5 -55t52.5 -159q0 -47 -12 -83q10 -18 32 -24t64 -6zM517 625v-106h-79v106h79zM459 93q82 0 117.5 22.5t35.5 85.5q0 64 -33 95t-88 31
q-33 0 -82 -14.5t-84.5 -29l-119.5 -50.5v-140h254z" />
    <glyph glyph-name="uniFEC7" unicode="&#x638;" horiz-adv-x="712" arabic-form="initial" 
d="M459 420q88 0 140.5 -55t52.5 -159q0 -108 -59.5 -157t-176.5 -49h-416l-17 10v73l17 10h84v612h79v-384l112 50.5t87.5 31t96.5 17.5zM480 619v-106h-79v106h79zM416 93q83 0 118.5 22.5t35.5 85.5q0 64 -33 95t-88 31q-33 0 -82 -14.5t-84.5 -29l-119.5 -50.5v-140h253
z" />
    <glyph glyph-name="uniFEC8" unicode="&#x638;" horiz-adv-x="734" arabic-form="medial" 
d="M734 93l17 -10v-73l-17 -10q-101 0 -133 57q-57 -57 -185 -57h-416l-17 10v73l17 10h84v612h79v-384l112 50.5t87.5 31t96.5 17.5q88 0 140.5 -55t52.5 -159q0 -49 -12 -85q16 -28 94 -28zM480 619v-106h-79v106h79zM416 93q83 0 118.5 22.5t35.5 85.5q0 64 -33 95
t-88 31q-33 0 -82 -14.5t-84.5 -29l-119.5 -50.5v-140h253z" />
    <glyph glyph-name="uniFECA" unicode="&#x639;" horiz-adv-x="583" arabic-form="final" 
d="M583 93l17 -4v-85l-17 -4q-138 0 -196.5 7.5t-91.5 32.5q-101 -25 -144 -53.5t-43 -91.5q0 -53 36.5 -85t133.5 -32h245v-93h-253q-245 0 -245 208q0 85 49.5 138.5t140.5 72.5l-140 187v93q89 35 224 35q130 0 224 -35v-93l-146 -194q38 -4 206 -4zM299 329
q-81 0 -142 -14l142 -194l141 193q-68 15 -141 15z" />
    <glyph glyph-name="uniFECB" unicode="&#x639;" horiz-adv-x="534" arabic-form="initial" 
d="M304 93h175v-93h-479l-17 3v86l17 4h102q-38 40 -38 128q0 100 61 151t156 51q94 0 157 -29l-22 -87q-73 22 -135 22q-67 0 -100.5 -29t-33.5 -79q0 -66 35 -97t122 -31z" />
    <glyph glyph-name="uniFECC" unicode="&#x639;" horiz-adv-x="563" arabic-form="medial" 
d="M563 93l17 -4v-85l-17 -4q-139 0 -195.5 9t-88.5 40q-33 -31 -88.5 -40t-190.5 -9l-17 4v85l17 4q162 0 200 4l-146 195v93q91 35 225 35q132 0 224 -35v-93l-147 -195q38 -4 207 -4zM279 330q-81 0 -142 -14l142 -194l141 194q-63 14 -141 14z" />
    <glyph glyph-name="uniFECE" unicode="&#x63a;" horiz-adv-x="583" arabic-form="final" 
d="M339 623v-106h-79v106h79zM583 93l17 -4v-85l-17 -4q-138 0 -196.5 7.5t-91.5 32.5q-101 -25 -144 -53.5t-43 -91.5q0 -53 36.5 -85t133.5 -32h245v-93h-253q-245 0 -245 208q0 85 49.5 138.5t140.5 72.5l-140 187v93q89 35 224 35q130 0 224 -35v-93l-146 -194
q38 -4 206 -4zM299 329q-81 0 -142 -14l142 -194l141 193q-68 15 -141 15z" />
    <glyph glyph-name="uniFECF" unicode="&#x63a;" horiz-adv-x="534" arabic-form="initial" 
d="M319 625v-106h-79v106h79zM304 93h175v-93h-479l-17 3v86l17 4h102q-38 40 -38 128q0 100 61 151t156 51q94 0 157 -29l-22 -87q-73 22 -135 22q-67 0 -100.5 -29t-33.5 -79q0 -66 35 -97t122 -31z" />
    <glyph glyph-name="uniFED0" unicode="&#x63a;" horiz-adv-x="563" arabic-form="medial" 
d="M319 623v-106h-79v106h79zM563 93l17 -4v-85l-17 -4q-139 0 -195.5 9t-88.5 40q-33 -31 -88.5 -40t-190.5 -9l-17 4v85l17 4q162 0 200 4l-146 195v93q91 35 225 35q132 0 224 -35v-93l-147 -195q38 -4 207 -4zM279 330q-81 0 -142 -14l142 -194l141 194q-63 14 -141 14z
" />
    <glyph glyph-name="uniFED2" unicode="&#x641;" horiz-adv-x="979" arabic-form="final" 
d="M746 657v-106h-79v106h79zM979 93l17 -5v-83l-17 -5h-689q-75 0 -125.5 16.5t-78 49.5t-38.5 74t-11 99q0 76 29 157l79 1q-26 -74 -26 -148q0 -88 39 -122t132 -34h281q-66 59 -66 141q0 100 55 155.5t146 55.5q90 0 141 -53.5t51 -148.5q0 -87 -70 -150h151zM701 352
q-51 0 -82 -30t-31 -84q0 -35 25 -68.5t91 -76.5q65 42 88 75t23 70q0 54 -31 84t-83 30z" />
    <glyph glyph-name="uniFED3" unicode="&#x641;" horiz-adv-x="487" arabic-form="initial" 
d="M296 766v-106h-79v106h79zM426 520l1 -349q0 -87 -41 -129t-137 -42h-249l-17 10v73l17 10h250q54 0 75.5 15.5t21.5 57.5v64q-40 -56 -136 -56q-90 0 -135 51.5t-45 127.5q0 95 62 154.5t163 59.5q44 0 86.5 -11.5t63.5 -23.5zM229 267q85 0 118 40v142q-39 24 -99 24
q-66 0 -100 -29.5t-34 -79.5q0 -43 29 -70t86 -27z" />
    <glyph glyph-name="uniFED4" unicode="&#x641;" horiz-adv-x="531" arabic-form="medial" 
d="M308 657v-106h-79v106h79zM531 93l17 -5v-83l-17 -5h-531l-17 5v83l17 5h134q-66 59 -66 141q0 101 55 156t146 55q90 0 141 -53.5t51 -148.5q0 -87 -70 -150h140zM264 352q-51 0 -82 -30t-31 -84q0 -36 25 -69t91 -76q65 42 88 75.5t23 69.5q0 54 -31 84t-83 30z" />
    <glyph glyph-name="uniFED6" unicode="&#x642;" horiz-adv-x="826" arabic-form="final" 
d="M523 620v-106h-77v106h77zM651 620v-106h-76v106h76zM826 93l17 -10v-73l-17 -10h-103v-16q0 -106 -57.5 -156.5t-190.5 -50.5h-145q-89 0 -147 16.5t-90 53t-44 83.5t-12 118q0 100 33 184h79q-29 -85 -29 -177q0 -48 8.5 -79.5t30.5 -57t64 -37t107 -11.5h148
q92 0 129 24.5t37 91.5v14h-122q-58 0 -99.5 16t-64 44t-32.5 61t-10 73q0 100 63.5 161t169.5 61q45 0 88.5 -11t64.5 -21l21 -11v-280h103zM527 93h117v208q-40 21 -103 21q-70 0 -106 -32.5t-36 -86.5q0 -49 31.5 -79.5t96.5 -30.5z" />
    <glyph glyph-name="uniFED7" unicode="&#x642;" horiz-adv-x="487" arabic-form="initial" 
d="M230 760v-106h-77v106h77zM358 760v-106h-76v106h76zM426 520l1 -349q0 -87 -41 -129t-137 -42h-249l-17 10v73l17 10h250q54 0 75.5 15.5t21.5 57.5v64q-40 -56 -136 -56q-90 0 -135 51.5t-45 127.5q0 95 62 154.5t163 59.5q44 0 86.5 -11.5t63.5 -23.5zM229 267
q85 0 118 40v142q-39 24 -99 24q-66 0 -100 -29.5t-34 -79.5q0 -43 29 -70t86 -27z" />
    <glyph glyph-name="uniFED8" unicode="&#x642;" horiz-adv-x="531" arabic-form="medial" 
d="M243 651v-106h-77v106h77zM371 651v-106h-76v106h76zM531 93l17 -5v-83l-17 -5h-531l-17 5v83l17 5h134q-66 59 -66 141q0 101 55 156t146 55q90 0 141 -53.5t51 -148.5q0 -87 -70 -150h140zM264 352q-51 0 -82 -30t-31 -84q0 -36 25 -69t91 -76q65 42 88 75.5t23 69.5
q0 54 -31 84t-83 30z" />
    <glyph glyph-name="uniFEDA" unicode="&#x643;" horiz-adv-x="884" arabic-form="final" 
d="M884 93l17 -10v-73l-17 -10q-109 0 -137 66q-51 -66 -182 -66h-274q-77 0 -128.5 15t-78 45.5t-37 68t-10.5 92.5q0 76 30 150h76q-27 -73 -27 -140q0 -77 40 -107.5t137 -30.5h281q61 0 94 17t33 68v527h79v-538q0 -47 23 -60.5t81 -13.5zM526 373q0 -90 -105 -90h-111
v63h111q50 0 50 25q0 49 -142 49l-5 80l181 90l12 -57l-126 -61q135 -9 135 -99z" />
    <glyph glyph-name="uniFEDB" unicode="&#x643;" horiz-adv-x="600" arabic-form="initial" 
d="M293 400q75 0 126.5 -16t78.5 -47t37.5 -68t10.5 -86v-90q0 -49 -20.5 -71t-62.5 -22h-463l-17 4v85l17 4h464v90q0 65 -37.5 99t-137.5 34h-226l-24 92l384 310l47 -71l-317 -247h140z" />
    <glyph glyph-name="uniFEDC" unicode="&#x643;" horiz-adv-x="647" arabic-form="medial" 
d="M647 93l17 -10v-73l-17 -10q-78 0 -114 33q-19 -33 -70 -33h-463l-17 4v85l17 4h464v90q0 65 -37.5 99t-137.5 34h-226l-24 92l384 310l47 -71l-317 -247h140q75 0 126.5 -16t78.5 -47t37.5 -68t10.5 -86v-45q7 -28 29.5 -36.5t71.5 -8.5z" />
    <glyph glyph-name="uniFEDE" unicode="&#x644;" horiz-adv-x="678" arabic-form="final" 
d="M678 93l17 -10v-73l-17 -10q-78 0 -113 32q-43 -180 -262 -180q-266 0 -266 281q0 52 11 107t25 85h79q-32 -100 -32 -185q0 -91 41.5 -143t147.5 -52q104 0 145 45t41 129v586h79v-538q0 -47 23 -60.5t81 -13.5z" />
    <glyph glyph-name="uniFEDF" unicode="&#x644;" horiz-adv-x="267" arabic-form="initial" 
d="M0 0l-17 10v73l17 10q63 0 86.5 17t23.5 78v517h80v-514q0 -103 -43 -147t-147 -44z" />
    <glyph glyph-name="uniFEE0" unicode="&#x644;" horiz-adv-x="294" arabic-form="medial" 
d="M294 93l17 -10v-73l-17 -10q-103 0 -134 59q-40 -59 -160 -59l-17 10v73l17 10q63 0 86.5 17t23.5 78v517h80v-538q0 -47 23 -60.5t81 -13.5z" />
    <glyph glyph-name="uniFEE2" unicode="&#x645;" horiz-adv-x="744" arabic-form="final" 
d="M744 93l17 -10v-73l-17 -10q-99 0 -131 54q-50 -73 -176 -73q-133 0 -183 99h-23q-72 -2 -95 -16.5t-23 -66.5v-296h-79v299q0 87 45 127.5t153 44.5v13q0 105 64 170t170 65q45 0 88.5 -12t64.5 -24l21 -11v-206q0 -47 23 -60.5t81 -13.5zM560 148l1 155q-41 24 -103 24
q-70 0 -106.5 -36t-36.5 -95q0 -54 32 -87.5t95 -33.5q103 0 118 73z" />
    <glyph glyph-name="uniFEE3" unicode="&#x645;" horiz-adv-x="548" arabic-form="initial" 
d="M314 420q45 0 88.5 -12t64.5 -24l21 -11v-220q0 -69 -47.5 -115.5t-155.5 -46.5q-101 0 -156 58q-34 -49 -129 -49l-17 10v73l17 10q72 0 90 26q-10 33 -10 72q0 103 64 166t170 63zM408 148l1 155q-41 24 -103 24q-70 0 -106.5 -34.5t-36.5 -91.5q0 -51 32.5 -83.5
t94.5 -32.5q103 0 118 63z" />
    <glyph glyph-name="uniFEE4" unicode="&#x645;" horiz-adv-x="592" arabic-form="medial" 
d="M592 93l17 -10v-73l-17 -10q-102 0 -133 58q-50 -67 -174 -67q-101 0 -156 58q-34 -49 -129 -49l-17 10v73l17 10q72 0 90 26q-10 33 -10 72q0 103 64 166t170 63q45 0 88.5 -12t64.5 -24l21 -11v-206q0 -47 23 -60.5t81 -13.5zM408 148l1 155q-41 24 -103 24
q-70 0 -106.5 -34.5t-36.5 -91.5q0 -51 32.5 -83.5t94.5 -32.5q103 0 118 63z" />
    <glyph glyph-name="uniFEE6" unicode="&#x646;" horiz-adv-x="712" arabic-form="final" 
d="M365 517v-106h-79v106h79zM712 93l17 -10v-73l-17 -10q-68 0 -105 25q-5 -108 -74 -172t-215 -64q-79 0 -135.5 22t-87.5 62t-44.5 87t-13.5 105q0 54 11 110t25 87h80q-33 -95 -33 -190q0 -88 45.5 -139t158.5 -51t158.5 42t45.5 120v350h80v-227q0 -47 23 -60.5
t81 -13.5z" />
    <glyph glyph-name="uniFEE7" unicode="&#x646;" horiz-adv-x="265" arabic-form="initial" 
d="M127 489v106h79v-106h-79zM0 0l-17 10v73l17 10q69 0 97.5 16.5t28.5 69.5v217h79v-217q0 -96 -47.5 -137.5t-157.5 -41.5z" />
    <glyph glyph-name="uniFEE8" unicode="&#x646;" horiz-adv-x="330" arabic-form="medial" 
d="M206 595v-106h-79v106h79zM330 93l17 -10v-73l-17 -10q-124 0 -154 65q-42 -65 -176 -65l-17 10v73l17 10q69 0 97.5 15.5t28.5 68.5v219h79v-217q0 -56 27.5 -71t97.5 -15z" />
    <glyph glyph-name="uniFEEA" unicode="&#x647;" horiz-adv-x="560" arabic-form="final" 
d="M560 93l17 -4v-85l-17 -4q-78 0 -124.5 25t-62.5 87q-37 -72 -145 -72q-96 0 -143.5 56t-47.5 141q0 102 65.5 165t176.5 63q45 0 86 -15v46h79q0 -83 -0.5 -190.5t-0.5 -113.5q0 -59 24.5 -79t92.5 -20zM246 133q87 0 119 45v8v175q-33 11 -88 11q-79 0 -118 -33.5
t-39 -90.5q0 -51 32 -83t94 -32z" />
    <glyph glyph-name="uniFEEB" unicode="&#x647;" horiz-adv-x="721" arabic-form="initial" 
d="M166 546q107 -29 178.5 -53t136.5 -53.5t101.5 -62t57.5 -74.5t21 -94q0 -49 -12 -84.5t-40.5 -65t-81.5 -44.5t-131 -15q-92 0 -164 24q-62 -24 -232 -24l-17 5v83l17 5h104q-51 47 -51 126q0 87 58.5 142t150.5 55q19 0 53 -4q-78 26 -173 51zM411 93q85 2 126 25
t41 85q0 56 -37 96t-130 78v-284zM263 342q-59 0 -94.5 -31t-35.5 -86q0 -68 47 -96.5t151 -33.5v233q-21 14 -68 14z" />
    <glyph glyph-name="uniFEEC" unicode="&#x647;" horiz-adv-x="579" arabic-form="medial" 
d="M579 93l17 -4v-85l-17 -4h-82q20 -25 20 -59q0 -76 -51.5 -124t-159.5 -48q-114 0 -169.5 56t-58.5 175h-78l-17 4v85l17 4h78v285q94 42 200 42q94 0 146.5 -54t52.5 -141q0 -90 -50 -132h152zM271 327q-70 0 -113 -19v-215h79q88 0 122.5 28.5t34.5 87.5q0 52 -31 85
t-92 33zM311 -138q64 0 93.5 22t29.5 53q0 76 -118 76l-160 -1q1 -84 35.5 -117t119.5 -33z" />
    <glyph glyph-name="uniFEEE" unicode="&#x648;" horiz-adv-x="549" arabic-form="final" 
d="M549 93l17 -10v-73l-17 -10h-104v-32q0 -90 -42.5 -133.5t-140.5 -43.5h-190v93h192q57 0 79.5 19t22.5 70v27h-122q-206 0 -206 191q0 101 63.5 163t169.5 62q45 0 88.5 -11t64.5 -21l21 -11v-280h104zM249 93h117v208q-40 21 -103 21q-70 0 -106 -33t-36 -89
q0 -48 31 -77.5t97 -29.5z" />
    <glyph glyph-name="uniFEF0" unicode="&#x649;" horiz-adv-x="742" arabic-form="final" 
d="M742 93l17 -10v-73l-17 -10h-47v-19q0 -219 -318 -219q-99 0 -166.5 19.5t-105 59t-53 90.5t-15.5 123q0 55 9 112t22 87h79q-27 -88 -27 -189q0 -120 57.5 -164.5t204.5 -44.5q93 0 146 17t69 41t16 60v27h-175v93h304z" />
    <glyph glyph-name="uniFEF2" unicode="&#x64a;" horiz-adv-x="742" arabic-form="final" 
d="M742 93l17 -10v-73l-17 -10h-47v-19q0 -219 -318 -219q-99 0 -166.5 19.5t-105 59t-53 90.5t-15.5 123q0 55 9 112t22 87h79q-27 -88 -27 -189q0 -120 57.5 -164.5t204.5 -44.5q93 0 146 17t69 41t16 60v27h-175v93h304zM279 -423v106h76v-106h-76zM408 -423v106h76v-106
h-76z" />
    <glyph glyph-name="uniFEF3" unicode="&#x64a;" horiz-adv-x="265" arabic-form="initial" 
d="M0 0l-17 10v73l17 10q69 0 97.5 16.5t28.5 69.5v217h79v-217q0 -96 -47.5 -137.5t-157.5 -41.5zM39 -198v107h76v-107h-76zM168 -198v107h76v-107h-76z" />
    <glyph glyph-name="uniFEF4" unicode="&#x64a;" horiz-adv-x="330" arabic-form="medial" 
d="M330 93l17 -10v-73l-17 -10q-124 0 -154 65q-42 -65 -176 -65l-17 10v73l17 10q69 0 97.5 15.5t28.5 68.5v219h79v-217q0 -56 27.5 -71t97.5 -15zM68 -198v107h76v-107h-76zM196 -198v107h77v-107h-77z" />
    <glyph glyph-name=".notdef" horiz-adv-x="863" 
d="M60 0v750h743v-750h-743zM133 69h598v612h-598v-612zM537 217l-109 109l-110 -110l-42 44l109 109l-109 109l42 43l110 -109l109 108l43 -42l-109 -109l109 -109z" />
    <glyph glyph-name=".null" 
 />
    <glyph glyph-name="nonmarkingreturn" horiz-adv-x="333" 
 />
    <glyph glyph-name="space" unicode=" " horiz-adv-x="243" 
 />
    <glyph glyph-name="exclam" unicode="!" horiz-adv-x="242" 
d="M152 230h-62l-21 520h104zM167 0h-91v128h91v-128z" />
    <glyph glyph-name="quotedbl" unicode="&#x22;" horiz-adv-x="379" 
d="M139 469h-59l-13 281h86zM299 469h-60l-13 281h86z" />
    <glyph glyph-name="numbersign" unicode="#" horiz-adv-x="902" 
d="M863 505h-180l-77 -226h203v-58h-223l-75 -221h-64l75 221h-255l-75 -221h-64l75 221h-164v58h184l77 226h-205v58h224l64 187h65l-64 -187h254l64 187h65l-64 -187h160v-58zM542 279l77 226h-255l-77 -226h255z" />
    <glyph glyph-name="dollar" unicode="$" horiz-adv-x="655" 
d="M617 211q0 -97 -67 -157.5t-181 -66.5v-97h-54v97q-127 8 -199 79.5t-75 192.5h98q2 -89 57 -139t151 -50q79 0 127 37t48 98q0 67 -46 99t-154 39q-131 10 -193.5 60.5t-62.5 147.5q0 93 65.5 150.5t174.5 62.5v96h53v-97q110 -10 173.5 -72t69.5 -168h-98
q-6 77 -52.5 117.5t-128.5 40.5q-73 0 -117.5 -34t-44.5 -90q0 -65 44.5 -95.5t151.5 -37.5q134 -9 197 -61t63 -152z" />
    <glyph glyph-name="percent" unicode="%" horiz-adv-x="697" 
d="M168 482q-62 0 -103 40t-41 101q0 60 41 100.5t103 40.5q63 0 104 -40.5t41 -100.5q0 -61 -41 -101t-104 -40zM63 0l497 750h76l-497 -750h-76zM168 537q37 0 61 24.5t24 61.5q0 36 -24 60t-61 24t-61 -24t-24 -60q0 -37 24 -61.5t61 -24.5zM529 -14q-62 0 -103 40
t-41 101q0 60 41 100.5t103 40.5t103 -40.5t41 -100.5q0 -61 -40.5 -101t-103.5 -40zM529 41q37 0 61 24.5t24 61.5q0 36 -24 60.5t-61 24.5t-61 -24.5t-24 -60.5q0 -37 24 -61.5t61 -24.5z" />
    <glyph glyph-name="ampersand" unicode="&#x26;" horiz-adv-x="716" 
d="M709 314h-120q-17 -88 -54 -153l129 -161h-104l-74 90q-91 -104 -233 -104q-97 0 -155.5 50.5t-58.5 132.5q0 66 42 119t146 120l-18 22q-38 48 -54.5 84.5t-16.5 79.5q0 73 50 121.5t127 48.5q75 0 124 -48.5t48 -120.5q-1 -57 -32 -102t-106 -99l130 -164q31 70 42 161
h188v-77zM313 674q-37 0 -59.5 -24.5t-22.5 -59.5q0 -50 46 -107l23 -29q50 33 71.5 64.5t21.5 70.5q0 37 -21.5 61t-58.5 24zM259 71q105 0 175 84l-157 191q-82 -54 -113 -89.5t-31 -78.5q0 -50 34 -78.5t92 -28.5z" />
    <glyph glyph-name="quotesingle" unicode="'" horiz-adv-x="220" 
d="M140 469h-60l-13 281h87z" />
    <glyph glyph-name="parenleft" unicode="(" horiz-adv-x="280" 
d="M207 -156q-63 73 -111.5 195t-48.5 268q0 148 48 269t112 195h79q-65 -76 -113.5 -199.5t-48.5 -264.5q0 -140 49 -264.5t113 -198.5h-79z" />
    <glyph glyph-name="parenright" unicode=")" horiz-adv-x="280" 
d="M72 -156h-79q65 74 114 198t49 265t-48.5 265t-114.5 199h79q64 -74 112.5 -195t48.5 -269q0 -146 -48.5 -267.5t-112.5 -195.5z" />
    <glyph glyph-name="asterisk" unicode="*" horiz-adv-x="323" 
d="M302 670l-106 -57l105 -57l-20 -34l-102 61l3 -117h-42l5 117l-102 -61l-22 36l111 55l-107 58l19 34l101 -63l-3 115h42l-4 -116l103 62z" />
    <glyph glyph-name="plus" unicode="+" horiz-adv-x="610" 
d="M496 399v-65h-158v-159h-65v159h-159v65h159v159h65v-159h158z" />
    <glyph glyph-name="comma" unicode="," horiz-adv-x="242" 
d="M87 -145h-68l78 281h95z" />
    <glyph glyph-name="hyphen" unicode="-" horiz-adv-x="452" 
d="M384 243h-316v65h316v-65z" />
    <glyph glyph-name="period" unicode="." horiz-adv-x="216" 
d="M151 0h-86v136h86v-136z" />
    <glyph glyph-name="slash" unicode="/" horiz-adv-x="402" 
d="M103 0h-54l263 750h55z" />
    <glyph glyph-name="zero" unicode="0" horiz-adv-x="606" 
d="M559 246q0 -114 -71.5 -187t-185.5 -73q-113 0 -184.5 73.5t-71.5 186.5v258q0 112 71.5 186t184.5 74q115 0 186 -74t71 -186v-258zM136 244q0 -77 45.5 -125t120.5 -48q76 0 121.5 48t45.5 125v261q0 77 -45.5 125t-121.5 48q-74 0 -120 -48.5t-46 -124.5v-261z" />
    <glyph glyph-name="one" unicode="1" horiz-adv-x="356" 
d="M200 750h76v-750h-90v653l-167 -75v87z" />
    <glyph glyph-name="two" unicode="2" horiz-adv-x="523" 
d="M160 84h335v-84h-461v78l288 323q70 78 70 147q0 56 -34 93.5t-98 37.5t-100 -39.5t-36 -94.5v-13h-90v13q0 92 62.5 155.5t166.5 63.5t163 -62.5t59 -152.5q0 -54 -23 -101.5t-76 -107.5z" />
    <glyph glyph-name="three" unicode="3" horiz-adv-x="564" 
d="M399 423q60 -28 95 -82t35 -120q0 -101 -71.5 -168t-179.5 -67q-107 0 -178.5 67t-71.5 167q0 9 2 25h90q-2 -16 -2 -20q0 -68 45.5 -112.5t114.5 -44.5q70 0 115.5 44.5t45.5 112.5q0 66 -45.5 110t-114.5 44h-44v77h44q52 0 86 32.5t34 81.5q0 50 -34 82.5t-87 32.5
q-52 0 -86 -32.5t-34 -82.5q0 -9 1 -13h-85q-2 8 -2 19q0 79 59.5 133.5t146.5 54.5q89 0 148 -54t59 -135q0 -99 -86 -152z" />
    <glyph glyph-name="four" unicode="4" horiz-adv-x="576" 
d="M568 296v-81h-106v-215h-89v215h-357v67l357 468h89v-454h106zM128 296h245v323z" />
    <glyph glyph-name="five" unicode="5" horiz-adv-x="570" 
d="M287 -14q-106 0 -177.5 66.5t-71.5 165.5q0 8 2 26h89q-2 -10 -2 -22q0 -67 45.5 -110.5t114.5 -43.5q73 0 118.5 47.5t45.5 121.5q0 71 -43.5 117.5t-117.5 46.5q-89 0 -143 -64h-92l71 413h375v-84h-309l-40 -244q23 25 64 43t85 18q109 0 174 -70t65 -179
t-70.5 -178.5t-182.5 -69.5z" />
    <glyph glyph-name="six" unicode="6" horiz-adv-x="558" 
d="M286 456q108 0 177.5 -67t69.5 -165q0 -102 -71.5 -170t-180.5 -68q-107 0 -179 67.5t-72 168.5q0 64 38 127l245 401h109l-186 -300q24 6 50 6zM281 69q70 0 116 44t46 111q0 66 -46 110.5t-116 44.5q-68 0 -114.5 -45t-46.5 -110q0 -67 46.5 -111t114.5 -44z" />
    <glyph glyph-name="seven" unicode="7" horiz-adv-x="499" 
d="M19 750h466v-72l-289 -678h-100l291 666h-368v84z" />
    <glyph glyph-name="eight" unicode="8" horiz-adv-x="571" 
d="M406 423q59 -28 94.5 -82.5t35.5 -119.5q0 -100 -71 -167.5t-180 -67.5q-108 0 -179 67.5t-71 167.5q0 65 35.5 119.5t94.5 82.5q-86 54 -86 152q0 80 59.5 134.5t146.5 54.5q89 0 148 -54.5t59 -134.5q0 -98 -86 -152zM285 685q-51 0 -86 -33t-35 -82t35 -82t86 -33
q52 0 86.5 32.5t34.5 82.5t-34 82.5t-87 32.5zM285 68q70 0 115.5 44.5t45.5 112.5q0 65 -46 110t-115 45q-68 0 -114 -45.5t-46 -109.5q0 -68 45.5 -112.5t114.5 -44.5z" />
    <glyph glyph-name="nine" unicode="9" horiz-adv-x="556" 
d="M280 764q107 0 179 -67.5t72 -168.5q0 -64 -38 -127l-245 -401h-107l186 301q-22 -7 -52 -7q-107 0 -177 67.5t-70 164.5q0 102 71.5 170t180.5 68zM280 371q68 0 114.5 45t46.5 110q0 67 -46 110.5t-115 43.5q-70 0 -116 -43.5t-46 -110.5q0 -66 46 -110.5t116 -44.5z
" />
    <glyph glyph-name="colon" unicode=":" horiz-adv-x="244" 
d="M165 374h-86v136h86v-136zM165 0h-86v136h86v-136z" />
    <glyph glyph-name="semicolon" unicode=";" horiz-adv-x="260" 
d="M185 374h-86v136h86v-136zM89 -145h-67l79 281h93z" />
    <glyph glyph-name="less" unicode="&#x3c;" horiz-adv-x="609" 
d="M523 563v-67l-347 -131l347 -132v-70l-437 169v63z" />
    <glyph glyph-name="equal" unicode="=" horiz-adv-x="610" 
d="M114 417v64h382v-64h-382zM114 245v63h382v-63h-382z" />
    <glyph glyph-name="greater" unicode="&#x3e;" horiz-adv-x="609" 
d="M86 563l437 -168v-63l-437 -169v70l347 132l-347 131v67z" />
    <glyph glyph-name="question" unicode="?" horiz-adv-x="549" 
d="M281 764q103 0 162.5 -61.5t59.5 -141.5q0 -61 -29 -103.5t-87 -90.5l-86 -71v-66h-90v100l129 104q69 57 69 122q0 48 -34.5 85.5t-95.5 37.5q-64 0 -100.5 -39.5t-36.5 -94.5v-13h-90v13q0 92 62.5 155.5t166.5 63.5zM211 0v128h90v-128h-90z" />
    <glyph glyph-name="at" unicode="@" horiz-adv-x="1050" 
d="M519 730q136 0 247.5 -57.5t176.5 -164t65 -241.5q0 -138 -56.5 -209.5t-143.5 -71.5q-57 0 -95 27t-52 75q-59 -102 -197 -102q-78 0 -127 42t-49 110q0 61 38 99.5t107 49.5l220 34v39q0 69 -67 69h-250v81h252q74 0 114 -36.5t40 -103.5v-222q0 -45 21 -69.5t59 -24.5
q53 0 87 53t34 160q0 180 -121 291.5t-303 111.5q-173 0 -292.5 -117t-119.5 -300q0 -181 112 -294t289 -113q64 0 117 17v-62q-57 -15 -117 -15q-204 0 -335 131.5t-131 335.5q0 206 138.5 341.5t338.5 135.5zM483 59q58 0 105.5 29.5t64.5 75.5v85l-188 -31
q-86 -14 -86 -80q0 -37 28 -58t76 -21z" />
    <glyph glyph-name="A" unicode="A" horiz-adv-x="684" 
d="M554 0l-72 224h-279l-73 -224h-98l247 750h127l247 -750h-99zM229 304h227l-112 347h-3z" />
    <glyph glyph-name="B" unicode="B" horiz-adv-x="622" 
d="M454 412q66 -21 102 -70t36 -117q0 -101 -69 -163t-191 -62h-252v750h266q103 0 159 -50t56 -132q0 -53 -27.5 -94.5t-79.5 -61.5zM470 557q0 52 -33 82.5t-99 30.5h-167v-227h168q63 0 97 32t34 82zM327 80q82 0 127.5 40.5t45.5 104.5q0 63 -43.5 101t-128.5 38h-157
v-284h156z" />
    <glyph glyph-name="C" unicode="C" horiz-adv-x="800" 
d="M762 267q-32 -133 -124 -207t-226 -74q-163 0 -266.5 109.5t-103.5 279.5t103.5 279.5t266.5 109.5q132 0 223.5 -72t126.5 -202h-98q-67 184 -252 184q-122 0 -197.5 -83t-75.5 -217t75.5 -216.5t197.5 -82.5q194 0 254 192h96z" />
    <glyph glyph-name="D" unicode="D" horiz-adv-x="745" 
d="M321 750q179 0 280 -102.5t101 -271.5q0 -171 -101 -273.5t-279 -102.5h-242v750h241zM320 87q144 0 215 80t71 209q0 128 -71.5 208t-215.5 80h-146v-577h147z" />
    <glyph glyph-name="E" unicode="E" horiz-adv-x="596" 
d="M175 80h378v-80h-473v750h460v-80h-365v-229h317v-80h-317v-281z" />
    <glyph glyph-name="F" unicode="F" horiz-adv-x="606" 
d="M567 670h-393v-229h343v-80h-343v-361h-95v750h488v-80z" />
    <glyph glyph-name="G" unicode="G" horiz-adv-x="802" 
d="M764 387v-387h-79v142q-41 -74 -112 -115t-164 -41q-160 0 -263.5 110.5t-103.5 278.5q0 169 104 279t266 110q126 0 218.5 -63.5t128.5 -175.5h-101q-29 71 -92.5 111t-152.5 40q-123 0 -198.5 -83.5t-75.5 -218.5q0 -134 75.5 -218t198.5 -84q108 0 178 63.5t84 171.5
h-224v80h313z" />
    <glyph glyph-name="H" unicode="H" horiz-adv-x="699" 
d="M524 750h95v-750h-95v361h-349v-361h-95v750h95v-309h349v309z" />
    <glyph glyph-name="I" unicode="I" horiz-adv-x="253" 
d="M80 0v750h93v-750h-93z" />
    <glyph glyph-name="J" unicode="J" horiz-adv-x="432" 
d="M35 0v80h166q76 0 76 75v515h-163v80h258v-588q0 -78 -42 -120t-122 -42h-173z" />
    <glyph glyph-name="K" unicode="K" horiz-adv-x="660" 
d="M534 0l-256 361h-103v-361h-95v750h95v-309h102l243 309h114l-274 -346l289 -404h-115z" />
    <glyph glyph-name="L" unicode="L" horiz-adv-x="567" 
d="M175 80h356v-80h-451v750h95v-670z" />
    <glyph glyph-name="M" unicode="M" horiz-adv-x="906" 
d="M175 0h-95v750h145l227 -610h2l228 610h145v-750h-95v619h-3l-236 -613h-79l-236 613h-3v-619z" />
    <glyph glyph-name="N" unicode="N" horiz-adv-x="715" 
d="M170 0h-90v750h103l359 -599h3v599h90v-750h-102l-360 599h-3v-599z" />
    <glyph glyph-name="O" unicode="O" horiz-adv-x="840" 
d="M420 -14q-164 0 -269 110t-105 279t105 279t269 110t268.5 -110t104.5 -279t-104.5 -279t-268.5 -110zM420 75q123 0 199.5 83.5t76.5 215.5q0 133 -76.5 216.5t-199.5 83.5q-124 0 -200.5 -83.5t-76.5 -216.5q0 -132 76.5 -215.5t200.5 -83.5z" />
    <glyph glyph-name="P" unicode="P" horiz-adv-x="603" 
d="M360 750q101 0 158.5 -54.5t57.5 -142.5t-57 -143.5t-158 -55.5h-189v-354h-95v750h283zM355 435q64 0 95 33t31 85q0 51 -31 84t-93 33h-185v-235h183z" />
    <glyph glyph-name="Q" unicode="Q" horiz-adv-x="832" 
d="M790 375q0 -169 -105 -279l91 -96h-101l-47 48q-94 -62 -212 -62q-164 0 -269 110t-105 279t105 279t269 110t269 -110t105 -279zM139 374q0 -132 77 -215.5t200 -83.5q82 0 146 39l-162 170h105l115 -121q72 83 72 211q0 133 -76.5 216.5t-199.5 83.5t-200 -83.5
t-77 -216.5z" />
    <glyph glyph-name="R" unicode="R" horiz-adv-x="608" 
d="M577 552q0 -71 -40.5 -121.5t-115.5 -67.5l149 -363h-101l-144 355h-150v-355h-95v750h267q108 0 169 -55t61 -143zM175 670v-235h166q69 0 103.5 33.5t34.5 84.5t-34 84t-103 33h-167z" />
    <glyph glyph-name="S" unicode="S" horiz-adv-x="655" 
d="M344 -14q-139 0 -219.5 72.5t-83.5 200.5h98q2 -89 57 -139t151 -50q79 0 127 37t48 98q0 67 -46 99t-154 39q-131 10 -193.5 60.5t-62.5 147.5q0 96 70.5 154.5t185.5 58.5q127 0 200 -63t80 -178h-98q-6 77 -52.5 117.5t-128.5 40.5q-73 0 -117.5 -34t-44.5 -90
q0 -65 44.5 -95.5t151.5 -37.5q134 -9 197 -61t63 -152q0 -102 -74.5 -163.5t-198.5 -61.5z" />
    <glyph glyph-name="T" unicode="T" horiz-adv-x="611" 
d="M353 0h-95v670h-232v80h559v-80h-232v-670z" />
    <glyph glyph-name="U" unicode="U" horiz-adv-x="745" 
d="M678 300q0 -146 -82 -230t-223 -84t-223 84t-82 230v450h95v-456q0 -101 55.5 -161t154.5 -60t154.5 60t55.5 161v456h95v-450z" />
    <glyph glyph-name="V" unicode="V" horiz-adv-x="680" 
d="M404 0h-127l-245 750h100l207 -650h3l207 650h100z" />
    <glyph glyph-name="W" unicode="W" horiz-adv-x="1058" 
d="M929 750h98l-218 -750h-117l-163 579l-162 -579h-117l-218 750h97l178 -630h3l171 602h96l171 -602h4z" />
    <glyph glyph-name="X" unicode="X" horiz-adv-x="618" 
d="M604 0h-111l-184 312l-184 -312h-111l240 395l-225 355h112l168 -279l168 279h112l-225 -355z" />
    <glyph glyph-name="Y" unicode="Y" horiz-adv-x="636" 
d="M610 750l-244 -499v-251h-95v253l-243 497h99l190 -400h3l191 400h99z" />
    <glyph glyph-name="Z" unicode="Z" horiz-adv-x="656" 
d="M618 0h-580v77l457 590v3h-439v80h550v-83l-452 -584v-3h464v-80z" />
    <glyph glyph-name="bracketleft" unicode="[" horiz-adv-x="265" 
d="M234 673h-82v-796h82v-77h-173v950h173v-77z" />
    <glyph glyph-name="backslash" unicode="\" horiz-adv-x="402" 
d="M353 0h-54l-263 750h54z" />
    <glyph glyph-name="bracketright" unicode="]" horiz-adv-x="265" 
d="M31 750h173v-950h-173v77h82v796h-82v77z" />
    <glyph glyph-name="asciicircum" unicode="^" horiz-adv-x="479" 
d="M429 245h-82l-108 275l-109 -275h-80l152 372h75z" />
    <glyph glyph-name="underscore" unicode="_" horiz-adv-x="526" 
d="M72 -65v65h382v-65h-382z" />
    <glyph glyph-name="grave" unicode="`" horiz-adv-x="300" 
d="M168 619l-118 133h96l104 -133h-82z" />
    <glyph glyph-name="a" unicode="a" horiz-adv-x="564" 
d="M340 510q74 0 114 -36.5t40 -103.5v-370h-89v76q-60 -90 -189 -90q-79 0 -127.5 42t-48.5 110q0 61 38 99.5t107 49.5l220 34v39q0 69 -67 69h-250v81h252zM235 59q57 0 104.5 29.5t65.5 76.5v84l-188 -31q-86 -14 -86 -80q0 -37 28 -58t76 -21z" />
    <glyph glyph-name="b" unicode="b" horiz-adv-x="623" 
d="M334 523q104 0 171.5 -75t67.5 -193q0 -119 -67.5 -194t-171.5 -75q-112 0 -170 86v-72h-88v750h88v-312q60 85 170 85zM322 69q70 0 114.5 50t44.5 136q0 84 -44.5 134.5t-114.5 50.5q-111 0 -158 -108v-155q46 -108 158 -108z" />
    <glyph glyph-name="c" unicode="c" horiz-adv-x="594" 
d="M550 165q-23 -85 -86 -132t-152 -47q-116 0 -189 75.5t-73 193.5q0 117 73 192.5t189 75.5q89 0 151.5 -47.5t86.5 -134.5h-91q-44 100 -147 100q-78 0 -124 -51t-46 -135t46 -135.5t124 -51.5q104 0 146 97h92z" />
    <glyph glyph-name="d" unicode="d" horiz-adv-x="623" 
d="M459 750h88v-750h-88v72q-58 -86 -170 -86q-104 0 -171.5 75t-67.5 194q0 118 67.5 193t171.5 75q110 0 170 -85v312zM302 69q110 0 157 106v160q-47 105 -157 105q-71 0 -115.5 -50.5t-44.5 -134.5q0 -86 44.5 -136t115.5 -50z" />
    <glyph glyph-name="e" unicode="e" horiz-adv-x="601" 
d="M554 264q0 -18 -1 -27h-412q5 -81 48.5 -126t118.5 -45q51 0 88.5 20t56.5 54h94q-23 -68 -89.5 -111t-150.5 -43q-114 0 -185.5 75.5t-71.5 196.5q0 116 72 190.5t184 74.5q110 0 179 -70.5t69 -188.5zM306 443q-66 0 -108 -34.5t-54 -99.5h315q-20 134 -153 134z" />
    <glyph glyph-name="f" unicode="f" horiz-adv-x="407" 
d="M134 0v429h-100v81h100v102q0 65 39 101.5t113 36.5h144v-80h-138q-68 0 -68 -68v-92h155v-81h-155v-429h-90z" />
    <glyph glyph-name="g" unicode="g" horiz-adv-x="618" 
d="M459 510h88v-545q0 -78 -44.5 -121.5t-129.5 -43.5h-211v79h209q41 0 64.5 23.5t23.5 69.5v108q-59 -84 -170 -84q-104 0 -171.5 73.5t-67.5 190.5q0 116 67.5 189.5t171.5 73.5q110 0 170 -84v71zM302 77q110 0 157 105v154q-46 106 -157 106q-71 0 -115.5 -49.5
t-44.5 -132.5q0 -84 44.5 -133.5t115.5 -49.5z" />
    <glyph glyph-name="h" unicode="h" horiz-adv-x="615" 
d="M349 523q91 0 143.5 -55.5t52.5 -148.5v-319h-90v299q0 64 -33.5 102.5t-96.5 38.5q-49 0 -94 -28.5t-65 -71.5v-340h-90v750h90v-317q66 90 183 90z" />
    <glyph glyph-name="i" unicode="i" horiz-adv-x="302" 
d="M227 616h-90v134h90v-134zM137 0v429h-114v81h204v-510h-90z" />
    <glyph glyph-name="j" unicode="j" horiz-adv-x="307" 
d="M232 616h-90v134h90v-134zM-52 -200v80h141q53 0 53 56v493h-116v81h206v-584q0 -59 -35 -92.5t-102 -33.5h-147z" />
    <glyph glyph-name="k" unicode="k" horiz-adv-x="533" 
d="M406 0l-173 231h-67v-231h-90v750h90v-445h66l167 205h106l-196 -238l205 -272h-108z" />
    <glyph glyph-name="l" unicode="l" horiz-adv-x="296" 
d="M268 0h-63q-64 0 -97.5 32.5t-33.5 89.5v548h-85v80h176v-620q0 -50 48 -50h55v-80z" />
    <glyph glyph-name="m" unicode="m" horiz-adv-x="865" 
d="M639 523q72 0 114.5 -46.5t42.5 -124.5v-352h-86v326q0 52 -27 83t-77 31q-36 0 -70.5 -21t-54.5 -54v-13v-352h-86v326q0 52 -26.5 83t-76.5 31q-39 0 -75.5 -25t-55.5 -61v-354h-85v510h85v-69q29 38 72 60t91 22q105 0 143 -91q29 42 74.5 66.5t97.5 24.5z" />
    <glyph glyph-name="n" unicode="n" horiz-adv-x="615" 
d="M350 523q90 0 142.5 -55t52.5 -147v-321h-90v301q0 63 -33 101t-96 38q-49 0 -94.5 -29t-65.5 -72v-339h-90v510h90v-78q67 91 184 91z" />
    <glyph glyph-name="o" unicode="o" horiz-adv-x="621" 
d="M310 -14q-115 0 -187.5 75.5t-72.5 193.5q0 117 72.5 192.5t187.5 75.5q116 0 188.5 -75.5t72.5 -192.5q0 -118 -72.5 -193.5t-188.5 -75.5zM310 68q77 0 123 51.5t46 135.5t-46 135t-123 51t-122.5 -51t-45.5 -135t45.5 -135.5t122.5 -51.5z" />
    <glyph glyph-name="p" unicode="p" horiz-adv-x="623" 
d="M334 523q104 0 171.5 -75t67.5 -193t-67.5 -193.5t-171.5 -75.5q-112 0 -170 86v-272h-88v710h88v-73q59 86 170 86zM322 69q70 0 114.5 50.5t44.5 135.5q0 84 -44.5 134.5t-114.5 50.5q-111 0 -158 -107v-158q48 -106 158 -106z" />
    <glyph glyph-name="q" unicode="q" horiz-adv-x="623" 
d="M459 510h88v-710h-88v272q-58 -86 -170 -86q-104 0 -171.5 75t-67.5 194q0 118 67.5 193t171.5 75q111 0 170 -86v73zM302 69q110 0 157 106v158q-47 107 -157 107q-71 0 -115.5 -50.5t-44.5 -134.5q0 -86 44.5 -136t115.5 -50z" />
    <glyph glyph-name="r" unicode="r" horiz-adv-x="400" 
d="M319 510h49v-81h-55q-103 0 -150 -77v-352h-90v510h90v-81q56 81 156 81z" />
    <glyph glyph-name="s" unicode="s" horiz-adv-x="515" 
d="M269 -14q-101 0 -160.5 47t-66.5 127h92q8 -45 42.5 -70.5t91.5 -25.5t90 21.5t33 59.5q0 39 -27.5 57.5t-101.5 23.5q-112 7 -158 41.5t-46 102.5q0 71 54 112t148 41t147.5 -40.5t64.5 -112.5h-91q-19 76 -122 76q-52 0 -82 -19t-30 -53q0 -36 25.5 -51.5t100.5 -19.5
q114 -7 161 -43.5t47 -110.5q0 -76 -56.5 -119.5t-155.5 -43.5z" />
    <glyph glyph-name="t" unicode="t" horiz-adv-x="403" 
d="M378 0h-121q-72 0 -109.5 35.5t-37.5 99.5v294h-101v81h101v171h90v-171h175v-81h-175v-283q0 -33 17 -49.5t45 -16.5h116v-80z" />
    <glyph glyph-name="u" unicode="u" horiz-adv-x="605" 
d="M438 510h91v-510h-91v75q-65 -89 -179 -89q-87 0 -138.5 55t-51.5 147v322h91v-302q0 -63 32 -101t92 -38q47 0 90.5 28t63.5 70v343z" />
    <glyph glyph-name="v" unicode="v" horiz-adv-x="502" 
d="M310 0h-118l-168 510h91l135 -427h3l134 427h92z" />
    <glyph glyph-name="w" unicode="w" horiz-adv-x="765" 
d="M652 510h89l-135 -510h-119l-104 364l-105 -364h-118l-136 510h89l108 -421h3l118 399h81l119 -399h3z" />
    <glyph glyph-name="x" unicode="x" horiz-adv-x="512" 
d="M492 0h-100l-139 199l-133 -199h-99l182 260l-175 250h100l125 -187l126 187h100l-176 -249z" />
    <glyph glyph-name="y" unicode="y" horiz-adv-x="505" 
d="M391 510h91l-216 -600q-21 -57 -52 -83.5t-88 -26.5h-86v80h80q27 0 42.5 12t25.5 39l26 71l-190 508h91l139 -394h3z" />
    <glyph glyph-name="z" unicode="z" horiz-adv-x="513" 
d="M477 0h-436v71l316 355v3h-304v81h413v-80l-305 -347v-3h316v-80z" />
    <glyph glyph-name="braceleft" unicode="{" horiz-adv-x="301" 
d="M231 -200q-145 0 -145 135q0 39 11 117t11 114q0 35 -16 56t-45 21h-15v66h15q29 0 45 20.5t16 54.5q0 36 -11 113t-11 116q0 137 145 137h42l1 -64q-102 0 -102 -90q0 -39 9 -110t9 -103q0 -100 -70 -106v-2q70 -6 70 -108q0 -32 -9 -104t-9 -112q0 -86 102 -86l-1 -65
h-42z" />
    <glyph glyph-name="bar" unicode="|" horiz-adv-x="359" 
d="M142 -200v950h74v-950h-74z" />
    <glyph glyph-name="braceright" unicode="}" horiz-adv-x="301" 
d="M70 -200h-42l-1 65q102 0 102 86q0 40 -9.5 112t-9.5 104q0 102 71 108v2q-71 6 -71 106q0 32 9.5 103t9.5 110q0 90 -102 90l1 64h42q145 0 145 -137q0 -39 -11 -116t-11 -113q0 -34 16 -54.5t45 -20.5h15v-66h-15q-29 0 -45 -21t-16 -56q0 -36 11 -114t11 -117
q0 -135 -145 -135z" />
    <glyph glyph-name="asciitilde" unicode="~" horiz-adv-x="479" 
d="M429 423q0 -137 -108 -137q-31 0 -59.5 20t-53 40t-43.5 20q-47 0 -47 -66h-68q0 136 108 136q30 0 58.5 -20t52.5 -40t45 -20q47 0 47 67h68z" />
    <glyph glyph-name="exclamdown" unicode="&#xa1;" horiz-adv-x="242" 
d="M167 381h-91v129h91v-129zM173 -200h-104l21 479h62z" />
    <glyph glyph-name="cent" unicode="&#xa2;" horiz-adv-x="594" 
d="M312 68q104 0 146 97h92q-21 -78 -76 -124t-134 -54v-101h-54v101q-106 9 -171 83t-65 185q0 110 65 184t171 83v101h54v-101q79 -8 133.5 -54.5t76.5 -126.5h-91q-44 100 -147 100q-78 0 -124 -51t-46 -135t46 -135.5t124 -51.5z" />
    <glyph glyph-name="sterling" unicode="&#xa3;" horiz-adv-x="456" 
d="M169 81h251v-81h-398v81h52v269h-50v77h50v114q0 103 53.5 156t154.5 53h94v-82h-79q-128 0 -128 -137v-104h138v-77h-138v-269z" />
    <glyph glyph-name="currency" unicode="&#xa4;" horiz-adv-x="598" 
d="M525 114l-44 -44l-68 68q-51 -39 -115 -39q-62 0 -114 38l-67 -66l-44 43l68 67q-38 52 -38 113q0 63 40 115l-68 68l44 43l67 -67q53 38 115 38t112 -37l67 67l44 -44l-67 -66q38 -52 38 -114q0 -65 -37 -115zM297 161q55 0 96 41t41 96q0 56 -39 93q-39 38 -91 38
q-57 0 -98 -40t-41 -97q0 -53 39 -92t93 -39z" />
    <glyph glyph-name="yen" unicode="&#xa5;" horiz-adv-x="636" 
d="M610 750l-220 -449h136v-49h-160v-70h160v-49h-160v-133h-95v133h-160v49h160v70h-160v49h137l-220 449h99l190 -400h3l191 400h99z" />
    <glyph glyph-name="brokenbar" unicode="&#xa6;" horiz-adv-x="359" 
d="M147 355l-5 395h74l-5 -395h-64zM142 -200l5 395h64l5 -395h-74z" />
    <glyph glyph-name="section" unicode="&#xa7;" horiz-adv-x="532" 
d="M440 54q44 -34 44 -105q0 -76 -56.5 -119.5t-155.5 -43.5q-101 0 -160 47t-67 127h93q8 -45 42.5 -70.5t91.5 -25.5t90 22t33 61q0 37 -27 54t-103 25q-104 9 -147.5 45t-43.5 101q0 55 38 95q-48 33 -51 103q0 71 54 112t149 41q94 0 147.5 -40.5t63.5 -112.5h-91
q-19 76 -121 76q-52 0 -82.5 -19t-30.5 -53q0 -35 25.5 -49.5t100.5 -21.5q105 -9 150 -46.5t45 -107.5q0 -57 -31 -95zM163 177q0 -32 24 -49.5t89 -24.5q56 -7 84 -14q22 22 22 56t-26 54t-91 27q-47 5 -70 10q-32 -20 -32 -59z" />
    <glyph glyph-name="dieresis" unicode="&#xa8;" horiz-adv-x="394" 
d="M50 616v134h80v-134h-80zM265 616v134h79v-134h-79z" />
    <glyph glyph-name="copyright" unicode="&#xa9;" horiz-adv-x="896" 
d="M833 374q0 -162 -112 -275t-273 -113q-160 0 -272.5 113t-112.5 275q0 161 113 275.5t272 114.5q160 0 272.5 -114.5t112.5 -275.5zM138 374q0 -134 90 -226.5t220 -92.5t220 92.5t90 226.5t-90 227t-220 93t-220 -93t-90 -227zM674 305q-22 -75 -81 -122t-140 -47
q-100 0 -167 67.5t-67 170.5t67 170.5t167 67.5q80 0 140 -46.5t81 -119.5h-69q-19 48 -59 74t-93 26q-71 0 -118 -50t-47 -122t47 -122t118 -50q53 0 93.5 27t57.5 76h70z" />
    <glyph glyph-name="ordfeminine" unicode="&#xaa;" horiz-adv-x="322" 
d="M233 526q-34 -44 -87 -44t-91 40t-38 101q0 59 38 100t91 41t87 -44v37h57v-268h-57v37zM74 623q0 -38 23.5 -63t56.5 -25q27 0 48 14.5t31 37.5v72q-24 51 -79 51q-34 0 -57 -24.5t-23 -62.5zM284 352h-236v53h236v-53z" />
    <glyph glyph-name="guillemotleft" unicode="&#xab;" horiz-adv-x="495" 
d="M194 42l-168 200v7l168 200h96l-170 -203l170 -204h-96zM369 42l-168 200v7l168 200h97l-170 -203l170 -204h-97z" />
    <glyph glyph-name="registered" unicode="&#xae;" horiz-adv-x="663" 
d="M331 767q112 0 190 -78.5t78 -189.5q0 -112 -78 -191t-190 -79q-111 0 -189.5 79.5t-78.5 190.5t78.5 189.5t189.5 78.5zM331 284q89 0 150 62.5t61 152.5q0 88 -61 151t-150 63q-88 0 -149 -63t-61 -151q0 -90 61 -152.5t149 -62.5zM440 551q0 -58 -52 -80l50 -109h-44
l-44 101h-8h-58v-101h-41v276h99q47 0 72.5 -25t25.5 -62zM340 500q60 0 60 51t-60 51h-56v-102h56z" />
    <glyph glyph-name="macron" unicode="&#xaf;" horiz-adv-x="460" 
d="M50 630v70h360v-70h-360z" />
    <glyph glyph-name="degree" unicode="&#xb0;" horiz-adv-x="303" 
d="M151 500q-51 0 -92.5 34.5t-41.5 97.5q0 64 41 98t93 34t93.5 -34t41.5 -98q0 -63 -41.5 -97.5t-93.5 -34.5zM151 549q35 0 59 22.5t24 60.5t-24 60t-59 22q-34 0 -58 -22.5t-24 -59.5q0 -38 24 -60.5t58 -22.5z" />
    <glyph glyph-name="plusminus" unicode="&#xb1;" horiz-adv-x="610" 
d="M337 489h150v-60h-150v-151h-63v151h-152v60h152v154h63v-154zM122 164v61h365v-61h-365z" />
    <glyph glyph-name="two.sups" unicode="&#xb2;" horiz-adv-x="255" 
d="M118 506h115v-57h-204v38l119 133q18 20 18 41q0 17 -10 28t-28 11q-19 0 -29.5 -11t-10.5 -27v-4h-58v4q0 41 26 67.5t72 26.5t72.5 -26t26.5 -65q0 -36 -33 -74z" />
    <glyph glyph-name="three.sups" unicode="&#xb3;" horiz-adv-x="260" 
d="M197 614q43 -27 43 -76q0 -40 -30.5 -67.5t-78.5 -27.5q-47 0 -77 26.5t-30 65.5v12h63v-7q0 -18 13 -29t32 -11t31.5 11.5t12.5 30.5t-13 31.5t-32 12.5h-12v50h12q16 0 26.5 9.5t10.5 24.5t-10.5 24.5t-25.5 9.5q-16 0 -26 -9t-10 -25v-6h-58v12q0 34 26 57t67 23
q42 0 68 -24t26 -60q0 -35 -28 -58z" />
    <glyph glyph-name="acute" unicode="&#xb4;" horiz-adv-x="300" 
d="M50 619l103 133h97l-118 -133h-82z" />
    <glyph glyph-name="paragraph" unicode="&#xb6;" horiz-adv-x="690" 
d="M631 750v-52h-93v-898h-69v898h-84v-898h-69v490h-19q-112 0 -183.5 62t-71.5 164q0 107 66.5 170.5t202.5 63.5h320z" />
    <glyph glyph-name="periodcentered" unicode="&#xb7;" horiz-adv-x="216" 
d="M151 222h-86v136h86v-136z" />
    <glyph glyph-name="cedilla" unicode="&#xb8;" horiz-adv-x="243" 
d="M50 -188v66h27q43 0 43 42v95h73v-104q0 -99 -99 -99h-44z" />
    <glyph glyph-name="one.sups" unicode="&#xb9;" horiz-adv-x="191" 
d="M99 750h56v-301h-64v233l-71 -37v62z" />
    <glyph glyph-name="ordmasculine" unicode="&#xba;" horiz-adv-x="331" 
d="M164 482q-62 0 -103 40.5t-41 100.5t41 100.5t103 40.5q63 0 104 -40.5t41 -100.5t-41 -100.5t-104 -40.5zM164 534q38 0 63 25.5t25 63.5q0 37 -25 62t-63 25t-63 -25t-25 -62q0 -38 25 -63.5t63 -25.5zM47 352v53h234v-53h-234z" />
    <glyph glyph-name="guillemotright" unicode="&#xbb;" horiz-adv-x="495" 
d="M126 42h-97l171 204l-171 203h97l168 -200v-7zM302 42h-97l171 204l-171 203h97l168 -200v-7z" />
    <glyph glyph-name="onequarter" unicode="&#xbc;" horiz-adv-x="555" 
d="M489 750h62l-478 -750h-61zM121 449v233l-71 -37v62l79 43h56v-301h-64zM497 301v-172h37v-51h-37v-78h-66v78h-136v46l136 177h66zM354 129h77v99z" />
    <glyph glyph-name="onehalf" unicode="&#xbd;" horiz-adv-x="567" 
d="M489 750h62l-478 -750h-61zM121 449v233l-71 -37v62l79 43h56v-301h-64zM506 142l-76 -85h115v-57h-204v38l119 133q18 19 18 41q0 17 -10 28t-28 11q-19 0 -29.5 -11t-10.5 -27v-4h-58v4q0 41 26 67.5t72 26.5t72.5 -26t26.5 -65q0 -36 -33 -74z" />
    <glyph glyph-name="threequarters" unicode="&#xbe;" horiz-adv-x="594" 
d="M240 538q0 -40 -30.5 -67.5t-78.5 -27.5q-47 0 -77 26.5t-30 65.5v12h63v-7q0 -18 13 -29t32 -11t31.5 11.5t12.5 30.5t-13 31.5t-32 12.5h-12v50h12q16 0 26.5 9.5t10.5 24.5t-10.5 24.5t-25.5 9.5q-16 0 -26 -9t-10 -25v-6h-58v12q0 34 26 57t67 23q42 0 68 -24t26 -60
q0 -35 -28 -58q43 -27 43 -76zM528 750h62l-478 -750h-61zM536 301v-172h37v-51h-37v-78h-66v78h-136v46l136 177h66zM393 129h77v99z" />
    <glyph glyph-name="questiondown" unicode="&#xbf;" horiz-adv-x="549" 
d="M339 510v-114h-91v114h91zM408 17h89v-13q0 -91 -62 -154.5t-166 -63.5q-103 0 -163 61.5t-60 141.5q0 63 29 105t87 87l86 65v48h91v-82l-129 -97q-69 -52 -69 -120q0 -48 34 -86t96 -38q63 0 100 39.5t37 93.5v13z" />
    <glyph glyph-name="Agrave" unicode="&#xc0;" horiz-adv-x="684" 
d="M451 881v-47l-304 42v47zM554 0l-72 224h-279l-73 -224h-98l247 750h127l247 -750h-99zM229 304h227l-112 347h-3z" />
    <glyph glyph-name="Aacute" unicode="&#xc1;" horiz-adv-x="684" 
d="M535 923v-47l-304 -42v47zM554 0l-72 224h-279l-73 -224h-98l247 750h127l247 -750h-99zM229 304h227l-112 347h-3z" />
    <glyph glyph-name="Acircumflex" unicode="&#xc2;" horiz-adv-x="684" 
d="M476 839l-131 40l-136 -40v47l134 41h3l130 -41v-47zM554 0l-72 224h-279l-73 -224h-98l247 750h127l247 -750h-99zM229 304h227l-112 347h-3z" />
    <glyph glyph-name="Atilde" unicode="&#xc3;" horiz-adv-x="684" 
d="M501 903v-46h-318v46h318zM554 0l-72 224h-279l-73 -224h-98l247 750h127l247 -750h-99zM229 304h227l-112 347h-3z" />
    <glyph glyph-name="Adieresis" unicode="&#xc4;" horiz-adv-x="684" 
d="M299 903v-46h-132v46h132zM516 903v-46h-132v46h132zM554 0l-72 224h-279l-73 -224h-98l247 750h127l247 -750h-99zM229 304h227l-112 347h-3z" />
    <glyph glyph-name="Aring" unicode="&#xc5;" horiz-adv-x="684" 
d="M342 827q-91 0 -91 60q0 28 24.5 44t66.5 16t66.5 -16t24.5 -44q0 -29 -24.5 -44.5t-66.5 -15.5zM342 916q-56 0 -56 -30q0 -28 56 -28t56 28q0 30 -56 30zM554 0l-72 224h-279l-73 -224h-98l247 750h127l247 -750h-99zM229 304h227l-112 347h-3z" />
    <glyph glyph-name="AE" unicode="&#xc6;" horiz-adv-x="922" 
d="M554 80h325v-80h-420v224h-220l-109 -224h-98l368 750h465v-80h-311v-229h264v-80h-264v-281zM278 304h181v366h-3z" />
    <glyph glyph-name="Ccedilla" unicode="&#xc7;" horiz-adv-x="800" 
d="M412 75q194 0 254 192h96q-28 -117 -103.5 -189t-186.5 -88v-81q0 -99 -99 -99h-44v66h27q43 0 43 42v68q-158 5 -257.5 114t-99.5 275q0 170 103.5 279.5t266.5 109.5q132 0 223.5 -72t126.5 -202h-98q-67 184 -252 184q-122 0 -197.5 -83t-75.5 -217t75.5 -216.5
t197.5 -82.5z" />
    <glyph glyph-name="Egrave" unicode="&#xc8;" horiz-adv-x="596" 
d="M450 881v-47l-304 42v47zM175 80h378v-80h-473v750h460v-80h-365v-229h317v-80h-317v-281z" />
    <glyph glyph-name="Eacute" unicode="&#xc9;" horiz-adv-x="596" 
d="M475 923v-47l-304 -42v47zM175 80h378v-80h-473v750h460v-80h-365v-229h317v-80h-317v-281z" />
    <glyph glyph-name="Ecircumflex" unicode="&#xca;" horiz-adv-x="596" 
d="M443 839l-131 40l-136 -40v47l134 41h3l130 -41v-47zM175 80h378v-80h-473v750h460v-80h-365v-229h317v-80h-317v-281z" />
    <glyph glyph-name="Edieresis" unicode="&#xcb;" horiz-adv-x="596" 
d="M255 903v-46h-132v46h132zM472 903v-46h-132v46h132zM175 80h378v-80h-473v750h460v-80h-365v-229h317v-80h-317v-281z" />
    <glyph glyph-name="Igrave" unicode="&#xcc;" horiz-adv-x="253" 
d="M211 809l-204 42v46l204 -42v-46zM80 0v750h93v-750h-93z" />
    <glyph glyph-name="Iacute" unicode="&#xcd;" horiz-adv-x="253" 
d="M46 809v46l195 43v-47zM80 0v750h93v-750h-93z" />
    <glyph glyph-name="Icircumflex" unicode="&#xce;" horiz-adv-x="253" 
d="M130 927l130 -41v-47l-131 40l-136 -40v47l134 41h3zM80 0v750h93v-750h-93z" />
    <glyph glyph-name="Idieresis" unicode="&#xcf;" horiz-adv-x="253" 
d="M-11 821v44h101v-44h-101zM163 821v44h101v-44h-101zM80 0v750h93v-750h-93z" />
    <glyph glyph-name="Eth" unicode="&#xd0;" horiz-adv-x="745" 
d="M321 750q179 0 280 -102.5t101 -271.5q0 -171 -101 -273.5t-279 -102.5h-242v359h-69v48h69v343h241zM320 87q144 0 215 80t71 209q0 128 -71.5 208t-215.5 80h-146v-257h183v-48h-183v-272h147z" />
    <glyph glyph-name="Ntilde" unicode="&#xd1;" horiz-adv-x="715" 
d="M198 857v46h318v-46h-318zM170 0h-90v750h103l359 -599h3v599h90v-750h-102l-360 599h-3v-599z" />
    <glyph glyph-name="Ograve" unicode="&#xd2;" horiz-adv-x="840" 
d="M572 834l-304 42v47l304 -42v-47zM420 -14q-164 0 -269 110t-105 279t105 279t269 110t268.5 -110t104.5 -279t-104.5 -279t-268.5 -110zM420 75q123 0 199.5 83.5t76.5 215.5q0 133 -76.5 216.5t-199.5 83.5q-124 0 -200.5 -83.5t-76.5 -216.5q0 -132 76.5 -215.5
t200.5 -83.5z" />
    <glyph glyph-name="Oacute" unicode="&#xd3;" horiz-adv-x="840" 
d="M268 834v47l304 42v-47zM420 -14q-164 0 -269 110t-105 279t105 279t269 110t268.5 -110t104.5 -279t-104.5 -279t-268.5 -110zM420 75q123 0 199.5 83.5t76.5 215.5q0 133 -76.5 216.5t-199.5 83.5q-124 0 -200.5 -83.5t-76.5 -216.5q0 -132 76.5 -215.5t200.5 -83.5z
" />
    <glyph glyph-name="Ocircumflex" unicode="&#xd4;" horiz-adv-x="840" 
d="M553 839l-131 40l-136 -40v47l134 41h3l130 -41v-47zM420 764q164 0 268.5 -110t104.5 -279t-104.5 -279t-268.5 -110t-269 110t-105 279t105 279t269 110zM420 75q123 0 199.5 83.5t76.5 215.5q0 133 -76.5 216.5t-199.5 83.5q-124 0 -200.5 -83.5t-76.5 -216.5
q0 -132 76.5 -215.5t200.5 -83.5z" />
    <glyph glyph-name="Otilde" unicode="&#xd5;" horiz-adv-x="840" 
d="M261 857v46h318v-46h-318zM420 -14q-164 0 -269 110t-105 279t105 279t269 110t268.5 -110t104.5 -279t-104.5 -279t-268.5 -110zM420 75q123 0 199.5 83.5t76.5 215.5q0 133 -76.5 216.5t-199.5 83.5q-124 0 -200.5 -83.5t-76.5 -216.5q0 -132 76.5 -215.5t200.5 -83.5z
" />
    <glyph glyph-name="Odieresis" unicode="&#xd6;" horiz-adv-x="840" 
d="M245 857v46h132v-46h-132zM462 857v46h132v-46h-132zM420 -14q-164 0 -269 110t-105 279t105 279t269 110t268.5 -110t104.5 -279t-104.5 -279t-268.5 -110zM420 75q123 0 199.5 83.5t76.5 215.5q0 133 -76.5 216.5t-199.5 83.5q-124 0 -200.5 -83.5t-76.5 -216.5
q0 -132 76.5 -215.5t200.5 -83.5z" />
    <glyph glyph-name="multiply" unicode="&#xd7;" horiz-adv-x="609" 
d="M463 479l-112 -112l112 -112l-46 -46l-112 112l-113 -113l-45 47l112 112l-112 112l45 47l113 -113l112 112z" />
    <glyph glyph-name="Oslash" unicode="&#xd8;" horiz-adv-x="840" 
d="M802 750l-101 -110q92 -108 92 -265q0 -169 -104.5 -279t-268.5 -110q-142 0 -243 85l-65 -71h-74l101 110q-93 107 -93 265q0 169 105 279t269 110q141 0 242 -85l65 71h75zM143 374q0 -117 60 -195l396 432q-74 63 -179 63q-124 0 -200.5 -83.5t-76.5 -216.5zM696 374
q0 117 -59 196l-397 -431q72 -64 180 -64q123 0 199.5 83.5t76.5 215.5z" />
    <glyph glyph-name="Ugrave" unicode="&#xd9;" horiz-adv-x="745" 
d="M505 834l-304 42v47l304 -42v-47zM678 300q0 -146 -82 -230t-223 -84t-223 84t-82 230v450h95v-456q0 -101 55.5 -161t154.5 -60t154.5 60t55.5 161v456h95v-450z" />
    <glyph glyph-name="Uacute" unicode="&#xda;" horiz-adv-x="745" 
d="M237 834v47l304 42v-47zM678 300q0 -146 -82 -230t-223 -84t-223 84t-82 230v450h95v-456q0 -101 55.5 -161t154.5 -60t154.5 60t55.5 161v456h95v-450z" />
    <glyph glyph-name="Ucircumflex" unicode="&#xdb;" horiz-adv-x="745" 
d="M506 839l-131 40l-136 -40v47l134 41h3l130 -41v-47zM583 750h95v-450q0 -146 -82 -230t-223 -84t-223 84t-82 230v450h95v-456q0 -101 55.5 -161t154.5 -60t154.5 60t55.5 161v456z" />
    <glyph glyph-name="Udieresis" unicode="&#xdc;" horiz-adv-x="745" 
d="M198 857v46h132v-46h-132zM415 857v46h132v-46h-132zM678 300q0 -146 -82 -230t-223 -84t-223 84t-82 230v450h95v-456q0 -101 55.5 -161t154.5 -60t154.5 60t55.5 161v456h95v-450z" />
    <glyph glyph-name="Yacute" unicode="&#xdd;" horiz-adv-x="636" 
d="M496 923v-47l-304 -42v47zM610 750l-244 -499v-251h-95v253l-243 497h99l190 -400h3l191 400h99z" />
    <glyph glyph-name="Thorn" unicode="&#xde;" horiz-adv-x="635" 
d="M343 616q125 0 194.5 -64.5t69.5 -170.5t-69.5 -171t-193.5 -65h-169v-145h-95v750h95v-134h168zM335 225q88 0 131.5 44t43.5 112q0 67 -43 110.5t-131 43.5h-161v-310h160z" />
    <glyph glyph-name="germandbls" unicode="&#xdf;" horiz-adv-x="677" 
d="M494 422q77 -22 117 -78t40 -130q0 -107 -62.5 -167.5t-171.5 -60.5q-93 0 -149 48t-64 128h99q8 -45 38.5 -70.5t80.5 -25.5q61 0 95.5 39t34.5 108q0 70 -41 115t-133 45h-114v81h96q70 0 104 33.5t34 81.5q0 49 -35 81t-99 32h-53q-68 0 -108.5 -42.5t-40.5 -116.5
v-584q0 -66 -39.5 -102.5t-113.5 -36.5h-53v74h48q68 0 68 68v579q0 112 63 177.5t175 65.5h59q96 0 156.5 -53.5t60.5 -133.5q0 -50 -24 -91.5t-68 -63.5z" />
    <glyph glyph-name="agrave" unicode="&#xe0;" horiz-adv-x="564" 
d="M339 619h-82l-118 133h96zM340 510q74 0 114 -36.5t40 -103.5v-370h-89v76q-60 -90 -189 -90q-79 0 -127.5 42t-48.5 110q0 61 38 99.5t107 49.5l220 34v39q0 69 -67 69h-250v81h252zM235 59q57 0 104.5 29.5t65.5 76.5v84l-188 -31q-86 -14 -86 -80q0 -37 28 -58t76 -21
z" />
    <glyph glyph-name="aacute" unicode="&#xe1;" horiz-adv-x="564" 
d="M428 752l-118 -133h-82l104 133h96zM340 510q74 0 114 -36.5t40 -103.5v-370h-89v76q-60 -90 -189 -90q-79 0 -127.5 42t-48.5 110q0 61 38 99.5t107 49.5l220 34v39q0 69 -67 69h-250v81h252zM235 59q57 0 104.5 29.5t65.5 76.5v84l-188 -31q-86 -14 -86 -80
q0 -37 28 -58t76 -21z" />
    <glyph glyph-name="acircumflex" unicode="&#xe2;" horiz-adv-x="564" 
d="M279 690l-67 -71h-81l116 133h69l116 -133h-86zM340 510q74 0 114 -36.5t40 -103.5v-370h-89v76q-60 -90 -189 -90q-79 0 -127.5 42t-48.5 110q0 61 38 99.5t107 49.5l220 34v39q0 69 -67 69h-250v81h252zM235 59q57 0 104.5 29.5t65.5 76.5v84l-188 -31q-86 -14 -86 -80
q0 -37 28 -58t76 -21z" />
    <glyph glyph-name="atilde" unicode="&#xe3;" horiz-adv-x="564" 
d="M462 700v-70h-360v70h360zM340 510q74 0 114 -36.5t40 -103.5v-370h-89v76q-60 -90 -189 -90q-79 0 -127.5 42t-48.5 110q0 61 38 99.5t107 49.5l220 34v39q0 69 -67 69h-250v81h252zM235 59q57 0 104.5 29.5t65.5 76.5v84l-188 -31q-86 -14 -86 -80q0 -37 28 -58t76 -21
z" />
    <glyph glyph-name="adieresis" unicode="&#xe4;" horiz-adv-x="564" 
d="M214 750v-134h-80v134h80zM428 750v-134h-79v134h79zM340 510q74 0 114 -36.5t40 -103.5v-370h-89v76q-60 -90 -189 -90q-79 0 -127.5 42t-48.5 110q0 61 38 99.5t107 49.5l220 34v39q0 69 -67 69h-250v81h252zM235 59q57 0 104.5 29.5t65.5 76.5v84l-188 -31
q-86 -14 -86 -80q0 -37 28 -58t76 -21z" />
    <glyph glyph-name="aring" unicode="&#xe5;" horiz-adv-x="564" 
d="M282 609q-35 0 -60.5 25t-25.5 61q0 35 25.5 60t60.5 25t60.5 -25t25.5 -60q0 -36 -25.5 -61t-60.5 -25zM282 734q-17 0 -29 -11.5t-12 -27.5q0 -17 12 -28.5t29 -11.5t29 11.5t12 28.5q0 16 -12 27.5t-29 11.5zM340 510q74 0 114 -36.5t40 -103.5v-370h-89v76
q-60 -90 -189 -90q-79 0 -127.5 42t-48.5 110q0 61 38 99.5t107 49.5l220 34v39q0 69 -67 69h-250v81h252zM235 59q57 0 104.5 29.5t65.5 76.5v84l-188 -31q-86 -14 -86 -80q0 -37 28 -58t76 -21z" />
    <glyph glyph-name="ae" unicode="&#xe6;" horiz-adv-x="955" 
d="M908 264q0 -18 -2 -27h-411q5 -81 48.5 -126t118.5 -45q51 0 88.5 20.5t55.5 53.5h95q-23 -68 -89.5 -111t-150.5 -43q-69 0 -123 31.5t-85 88.5q-32 -55 -92.5 -87.5t-142.5 -32.5q-80 0 -129 42t-49 110q0 61 38 99.5t107 49.5l220 34v39q0 69 -67 69h-250v81h252
q103 0 139 -69q69 82 181 82q110 0 179 -70.5t69 -188.5zM659 443q-65 0 -107 -35t-54 -99h315q-20 134 -154 134zM235 59q57 0 104.5 29.5t65.5 76.5v84l-188 -31q-86 -14 -86 -80q0 -37 28 -58t76 -21z" />
    <glyph glyph-name="ccedilla" unicode="&#xe7;" horiz-adv-x="594" 
d="M312 68q104 0 146 97h92q-20 -74 -70.5 -119.5t-122.5 -56.5v-80q0 -99 -99 -99h-44v66h27q43 0 43 42v69q-105 10 -169.5 84t-64.5 184q0 117 73 192.5t189 75.5q89 0 151.5 -47.5t86.5 -134.5h-91q-44 100 -147 100q-78 0 -124 -51t-46 -135t46 -135.5t124 -51.5z" />
    <glyph glyph-name="egrave" unicode="&#xe8;" horiz-adv-x="601" 
d="M350 619h-82l-118 133h96zM554 264q0 -18 -1 -27h-412q5 -81 48.5 -126t118.5 -45q51 0 88.5 20t56.5 54h94q-23 -68 -89.5 -111t-150.5 -43q-114 0 -185.5 75.5t-71.5 196.5q0 116 72 190.5t184 74.5q110 0 179 -70.5t69 -188.5zM306 443q-66 0 -108 -34.5t-54 -99.5
h315q-20 134 -153 134z" />
    <glyph glyph-name="eacute" unicode="&#xe9;" horiz-adv-x="601" 
d="M456 752l-118 -133h-82l103 133h97zM554 264q0 -18 -1 -27h-412q5 -81 48.5 -126t118.5 -45q51 0 88.5 20t56.5 54h94q-23 -68 -89.5 -111t-150.5 -43q-114 0 -185.5 75.5t-71.5 196.5q0 116 72 190.5t184 74.5q110 0 179 -70.5t69 -188.5zM306 443q-66 0 -108 -34.5
t-54 -99.5h315q-20 134 -153 134z" />
    <glyph glyph-name="ecircumflex" unicode="&#xea;" horiz-adv-x="601" 
d="M303 690l-67 -71h-81l116 133h69l116 -133h-86zM554 264q0 -18 -1 -27h-412q5 -81 48.5 -126t118.5 -45q51 0 88.5 20t56.5 54h94q-23 -68 -89.5 -111t-150.5 -43q-114 0 -185.5 75.5t-71.5 196.5q0 116 72 190.5t184 74.5q110 0 179 -70.5t69 -188.5zM306 443
q-66 0 -108 -34.5t-54 -99.5h315q-20 134 -153 134z" />
    <glyph glyph-name="edieresis" unicode="&#xeb;" horiz-adv-x="601" 
d="M239 750v-134h-80v134h80zM453 750v-134h-79v134h79zM554 264q0 -18 -1 -27h-412q5 -81 48.5 -126t118.5 -45q51 0 88.5 20t56.5 54h94q-23 -68 -89.5 -111t-150.5 -43q-114 0 -185.5 75.5t-71.5 196.5q0 116 72 190.5t184 74.5q110 0 179 -70.5t69 -188.5zM306 443
q-66 0 -108 -34.5t-54 -99.5h315q-20 134 -153 134z" />
    <glyph glyph-name="igrave" unicode="&#xec;" horiz-adv-x="302" 
d="M95 619l-118 133h96l104 -133h-82zM137 0v429h-114v81h204v-510h-90z" />
    <glyph glyph-name="iacute" unicode="&#xed;" horiz-adv-x="302" 
d="M67 619l103 133h97l-118 -133h-82zM137 0v429h-114v81h204v-510h-90z" />
    <glyph glyph-name="icircumflex" unicode="&#xee;" horiz-adv-x="302" 
d="M268 619h-86l-67 71l-67 -71h-81l116 133h69zM137 0v429h-114v81h204v-510h-90z" />
    <glyph glyph-name="idieresis" unicode="&#xef;" horiz-adv-x="302" 
d="M15 616v134h74v-134h-74zM158 616v134h74v-134h-74zM137 0v429h-114v81h204v-510h-90z" />
    <glyph glyph-name="eth" unicode="&#xf0;" horiz-adv-x="613" 
d="M406 629q165 -177 165 -373q0 -119 -72.5 -194.5t-188.5 -75.5q-115 0 -187.5 75.5t-72.5 193.5q0 117 72.5 192.5t187.5 75.5q68 0 118 -37q-45 67 -103 125l-166 -38v53l120 27q-71 61 -141 97h124q52 -33 100 -78l144 33v-53zM310 68q77 0 123 51.5t46 135.5t-46 135
t-123 51t-122.5 -51t-45.5 -135t45.5 -135.5t122.5 -51.5z" />
    <glyph glyph-name="ntilde" unicode="&#xf1;" horiz-adv-x="615" 
d="M499 700v-70h-360v70h360zM350 523q90 0 142.5 -55t52.5 -147v-321h-90v301q0 63 -33 101t-96 38q-49 0 -94.5 -29t-65.5 -72v-339h-90v510h90v-78q67 91 184 91z" />
    <glyph glyph-name="ograve" unicode="&#xf2;" horiz-adv-x="621" 
d="M272 619l-118 133h96l104 -133h-82zM310 -14q-115 0 -187.5 75.5t-72.5 193.5q0 117 72.5 192.5t187.5 75.5q116 0 188.5 -75.5t72.5 -192.5q0 -118 -72.5 -193.5t-188.5 -75.5zM310 68q77 0 123 51.5t46 135.5t-46 135t-123 51t-122.5 -51t-45.5 -135t45.5 -135.5
t122.5 -51.5z" />
    <glyph glyph-name="oacute" unicode="&#xf3;" horiz-adv-x="621" 
d="M260 619l103 133h97l-118 -133h-82zM310 -14q-115 0 -187.5 75.5t-72.5 193.5q0 117 72.5 192.5t187.5 75.5q116 0 188.5 -75.5t72.5 -192.5q0 -118 -72.5 -193.5t-188.5 -75.5zM310 68q77 0 123 51.5t46 135.5t-46 135t-123 51t-122.5 -51t-45.5 -135t45.5 -135.5
t122.5 -51.5z" />
    <glyph glyph-name="ocircumflex" unicode="&#xf4;" horiz-adv-x="621" 
d="M461 619h-86l-67 71l-67 -71h-81l116 133h69zM310 -14q-115 0 -187.5 75.5t-72.5 193.5q0 117 72.5 192.5t187.5 75.5q116 0 188.5 -75.5t72.5 -192.5q0 -118 -72.5 -193.5t-188.5 -75.5zM310 68q77 0 123 51.5t46 135.5t-46 135t-123 51t-122.5 -51t-45.5 -135
t45.5 -135.5t122.5 -51.5z" />
    <glyph glyph-name="otilde" unicode="&#xf5;" horiz-adv-x="621" 
d="M131 630v70h360v-70h-360zM310 -14q-115 0 -187.5 75.5t-72.5 193.5q0 117 72.5 192.5t187.5 75.5q116 0 188.5 -75.5t72.5 -192.5q0 -118 -72.5 -193.5t-188.5 -75.5zM310 68q77 0 123 51.5t46 135.5t-46 135t-123 51t-122.5 -51t-45.5 -135t45.5 -135.5t122.5 -51.5z
" />
    <glyph glyph-name="odieresis" unicode="&#xf6;" horiz-adv-x="621" 
d="M163 616v134h80v-134h-80zM378 616v134h79v-134h-79zM310 -14q-115 0 -187.5 75.5t-72.5 193.5q0 117 72.5 192.5t187.5 75.5q116 0 188.5 -75.5t72.5 -192.5q0 -118 -72.5 -193.5t-188.5 -75.5zM310 68q77 0 123 51.5t46 135.5t-46 135t-123 51t-122.5 -51t-45.5 -135
t45.5 -135.5t122.5 -51.5z" />
    <glyph glyph-name="divide" unicode="&#xf7;" horiz-adv-x="610" 
d="M348 476h-85v136h85v-136zM114 335v62h382v-62h-382zM348 121h-85v136h85v-136z" />
    <glyph glyph-name="oslash" unicode="&#xf8;" horiz-adv-x="621" 
d="M579 510l-70 -74q62 -73 62 -181q0 -118 -72.5 -193.5t-188.5 -75.5q-98 0 -168 57l-40 -43h-60l69 74q-61 74 -61 181q0 117 72.5 192.5t187.5 75.5q98 0 168 -56l40 43h61zM142 255q0 -68 30 -115l247 264q-43 37 -109 37q-77 0 -122.5 -51t-45.5 -135zM479 255
q0 67 -31 115l-247 -264q44 -38 109 -38q77 0 123 51.5t46 135.5z" />
    <glyph glyph-name="ugrave" unicode="&#xf9;" horiz-adv-x="605" 
d="M346 619h-83l-117 133h96zM438 510h91v-510h-91v75q-65 -89 -179 -89q-87 0 -138.5 55t-51.5 147v322h91v-302q0 -63 32 -101t92 -38q47 0 90.5 28t63.5 70v343z" />
    <glyph glyph-name="uacute" unicode="&#xfa;" horiz-adv-x="605" 
d="M445 752l-118 -133h-82l103 133h97zM438 510h91v-510h-91v75q-65 -89 -179 -89q-87 0 -138.5 55t-51.5 147v322h91v-302q0 -63 32 -101t92 -38q47 0 90.5 28t63.5 70v343z" />
    <glyph glyph-name="ucircumflex" unicode="&#xfb;" horiz-adv-x="605" 
d="M296 690l-67 -71h-81l116 133h69l116 -133h-86zM438 510h91v-510h-91v75q-65 -89 -179 -89q-87 0 -138.5 55t-51.5 147v322h91v-302q0 -63 32 -101t92 -38q47 0 90.5 28t63.5 70v343z" />
    <glyph glyph-name="udieresis" unicode="&#xfc;" horiz-adv-x="605" 
d="M231 750v-134h-80v134h80zM445 750v-134h-79v134h79zM438 510h91v-510h-91v75q-65 -89 -179 -89q-87 0 -138.5 55t-51.5 147v322h91v-302q0 -63 32 -101t92 -38q47 0 90.5 28t63.5 70v343z" />
    <glyph glyph-name="yacute" unicode="&#xfd;" horiz-adv-x="505" 
d="M402 752l-118 -133h-82l103 133h97zM391 510h91l-216 -600q-21 -57 -52 -83.5t-88 -26.5h-86v80h80q27 0 42.5 12t25.5 39l26 71l-190 508h91l139 -394h3z" />
    <glyph glyph-name="thorn" unicode="&#xfe;" horiz-adv-x="623" 
d="M334 523q104 0 171.5 -75t67.5 -193t-67.5 -193.5t-171.5 -75.5q-112 0 -170 86v-272h-88v950h88v-313q59 86 170 86zM322 69q70 0 114.5 50.5t44.5 135.5q0 84 -44.5 134.5t-114.5 50.5q-111 0 -158 -107v-158q48 -106 158 -106z" />
    <glyph glyph-name="ydieresis" unicode="&#xff;" horiz-adv-x="505" 
d="M185 750v-134h-80v134h80zM399 750v-134h-79v134h79zM391 510h91l-216 -600q-21 -57 -52 -83.5t-88 -26.5h-86v80h80q27 0 42.5 12t25.5 39l26 71l-190 508h91l139 -394h3z" />
    <glyph glyph-name="Amacron" unicode="&#x100;" horiz-adv-x="684" 
d="M501 903v-46h-318v46h318zM554 0l-72 224h-279l-73 -224h-98l247 750h127l247 -750h-99zM229 304h227l-112 347h-3z" />
    <glyph glyph-name="amacron" unicode="&#x101;" horiz-adv-x="564" 
d="M462 700v-70h-360v70h360zM340 510q74 0 114 -36.5t40 -103.5v-370h-89v76q-60 -90 -189 -90q-79 0 -127.5 42t-48.5 110q0 61 38 99.5t107 49.5l220 34v39q0 69 -67 69h-250v81h252zM235 59q57 0 104.5 29.5t65.5 76.5v84l-188 -31q-86 -14 -86 -80q0 -37 28 -58t76 -21
z" />
    <glyph glyph-name="Abreve" unicode="&#x102;" horiz-adv-x="684" 
d="M274 852q-64 0 -64 61v22h43v-13q0 -14 6 -20t21 -6h124q16 0 22 6t6 20v13h43v-22q0 -28 -16.5 -44.5t-48.5 -16.5h-136zM554 0l-72 224h-279l-73 -224h-98l247 750h127l247 -750h-99zM229 304h227l-112 347h-3z" />
    <glyph glyph-name="abreve" unicode="&#x103;" horiz-adv-x="564" 
d="M235 612q-106 0 -106 91v29h74v-20q0 -41 44 -41h69q45 0 45 41v20h73v-29q0 -91 -107 -91h-92zM340 510q74 0 114 -36.5t40 -103.5v-370h-89v76q-60 -90 -189 -90q-79 0 -127.5 42t-48.5 110q0 61 38 99.5t107 49.5l220 34v39q0 69 -67 69h-250v81h252zM235 59
q57 0 104.5 29.5t65.5 76.5v84l-188 -31q-86 -14 -86 -80q0 -37 28 -58t76 -21z" />
    <glyph glyph-name="Aogonek" unicode="&#x104;" horiz-adv-x="684" 
d="M502 -127q0 -29 43 -29q29 0 51 10v-54q-25 -14 -71 -14q-39 0 -62 17.5t-23 49.5q0 69 116 137l-75 234h-278l-73 -224h-98l247 750h127l247 -750q-61 -23 -106 -60.5t-45 -66.5zM229 304h226l-111 347h-3z" />
    <glyph glyph-name="aogonek" unicode="&#x105;" horiz-adv-x="564" 
d="M494 0q-49 -26 -87 -59t-38 -58q0 -26 38 -26q27 0 43 7v-62q-26 -14 -69 -14q-41 0 -63.5 18t-22.5 51q0 39 35 77t83 66h-8v76q-60 -90 -189 -90q-79 0 -127.5 42t-48.5 110q0 61 38 99.5t107 49.5l220 34v39q0 69 -67 69h-250v81h252q74 0 114 -36.5t40 -103.5v-370z
M235 59q57 0 104.5 29.5t65.5 76.5v84l-188 -31q-86 -14 -86 -80q0 -37 28 -58t76 -21z" />
    <glyph glyph-name="Cacute" unicode="&#x106;" horiz-adv-x="800" 
d="M259 834v47l304 42v-47zM762 267q-32 -133 -124 -207t-226 -74q-163 0 -266.5 109.5t-103.5 279.5t103.5 279.5t266.5 109.5q132 0 223.5 -72t126.5 -202h-98q-67 184 -252 184q-122 0 -197.5 -83t-75.5 -217t75.5 -216.5t197.5 -82.5q194 0 254 192h96z" />
    <glyph glyph-name="cacute" unicode="&#x107;" horiz-adv-x="594" 
d="M261 619l103 133h97l-118 -133h-82zM550 165q-23 -85 -86 -132t-152 -47q-116 0 -189 75.5t-73 193.5q0 117 73 192.5t189 75.5q89 0 151.5 -47.5t86.5 -134.5h-91q-44 100 -147 100q-78 0 -124 -51t-46 -135t46 -135.5t124 -51.5q104 0 146 97h92z" />
    <glyph glyph-name="Ccircumflex" unicode="&#x108;" horiz-adv-x="800" 
d="M545 839l-131 40l-136 -40v47l134 41h3l130 -41v-47zM412 75q194 0 254 192h96q-32 -133 -124 -207t-226 -74q-163 0 -266.5 109.5t-103.5 279.5t103.5 279.5t266.5 109.5q132 0 223.5 -72t126.5 -202h-98q-67 184 -252 184q-122 0 -197.5 -83t-75.5 -217t75.5 -216.5
t197.5 -82.5z" />
    <glyph glyph-name="ccircumflex" unicode="&#x109;" horiz-adv-x="594" 
d="M462 619h-86l-67 71l-67 -71h-81l116 133h69zM550 165q-23 -85 -86 -132t-152 -47q-116 0 -189 75.5t-73 193.5q0 117 73 192.5t189 75.5q89 0 151.5 -47.5t86.5 -134.5h-91q-44 100 -147 100q-78 0 -124 -51t-46 -135t46 -135.5t124 -51.5q104 0 146 97h92z" />
    <glyph glyph-name="Cdotaccent" unicode="&#x10a;" horiz-adv-x="800" 
d="M339 857v46h145v-46h-145zM762 267q-32 -133 -124 -207t-226 -74q-163 0 -266.5 109.5t-103.5 279.5t103.5 279.5t266.5 109.5q132 0 223.5 -72t126.5 -202h-98q-67 184 -252 184q-122 0 -197.5 -83t-75.5 -217t75.5 -216.5t197.5 -82.5q194 0 254 192h96z" />
    <glyph glyph-name="cdotaccent" unicode="&#x10b;" horiz-adv-x="594" 
d="M272 616v134h80v-134h-80zM550 165q-23 -85 -86 -132t-152 -47q-116 0 -189 75.5t-73 193.5q0 117 73 192.5t189 75.5q89 0 151.5 -47.5t86.5 -134.5h-91q-44 100 -147 100q-78 0 -124 -51t-46 -135t46 -135.5t124 -51.5q104 0 146 97h92z" />
    <glyph glyph-name="Ccaron" unicode="&#x10c;" horiz-adv-x="800" 
d="M415 838h-3l-134 42v47l136 -40l131 40v-47zM412 75q194 0 254 192h96q-32 -133 -124 -207t-226 -74q-163 0 -266.5 109.5t-103.5 279.5t103.5 279.5t266.5 109.5q132 0 223.5 -72t126.5 -202h-98q-67 184 -252 184q-122 0 -197.5 -83t-75.5 -217t75.5 -216.5
t197.5 -82.5z" />
    <glyph glyph-name="ccaron" unicode="&#x10d;" horiz-adv-x="594" 
d="M376 752h86l-116 -133h-69l-116 133h81l67 -71zM550 165q-23 -85 -86 -132t-152 -47q-116 0 -189 75.5t-73 193.5q0 117 73 192.5t189 75.5q89 0 151.5 -47.5t86.5 -134.5h-91q-44 100 -147 100q-78 0 -124 -51t-46 -135t46 -135.5t124 -51.5q104 0 146 97h92z" />
    <glyph glyph-name="Dcaron" unicode="&#x10e;" horiz-adv-x="745" 
d="M316 838h-3l-134 42v47l136 -40l131 40v-47zM321 750q179 0 280 -102.5t101 -271.5q0 -171 -101 -273.5t-279 -102.5h-242v750h241zM320 87q144 0 215 80t71 209q0 128 -71.5 208t-215.5 80h-146v-577h147z" />
    <glyph glyph-name="dcaron" unicode="&#x10f;" horiz-adv-x="726" 
d="M459 438v312h88v-750h-88v72q-58 -86 -170 -86q-104 0 -171.5 75t-67.5 194q0 118 67.5 193t171.5 75q110 0 170 -85zM631 750h95l-69 -173h-69zM302 69q110 0 157 106v160q-47 105 -157 105q-71 0 -115.5 -50.5t-44.5 -134.5q0 -86 44.5 -136t115.5 -50z" />
    <glyph glyph-name="Dcroat" unicode="&#x110;" horiz-adv-x="745" 
d="M321 750q179 0 280 -102.5t101 -271.5q0 -171 -101 -273.5t-279 -102.5h-242v359h-69v48h69v343h241zM320 87q144 0 215 80t71 209q0 128 -71.5 208t-215.5 80h-146v-257h183v-48h-183v-272h147z" />
    <glyph glyph-name="dcroat" unicode="&#x111;" horiz-adv-x="623" 
d="M610 653v-58h-63v-595h-88v72q-58 -86 -170 -86q-104 0 -171.5 75t-67.5 194q0 118 67.5 193t171.5 75q110 0 170 -85v157h-176v58h176v97h88v-97h63zM302 69q110 0 157 106v160q-47 105 -157 105q-71 0 -115.5 -50.5t-44.5 -134.5q0 -86 44.5 -136t115.5 -50z" />
    <glyph glyph-name="Emacron" unicode="&#x112;" horiz-adv-x="596" 
d="M457 903v-46h-318v46h318zM175 80h378v-80h-473v750h460v-80h-365v-229h317v-80h-317v-281z" />
    <glyph glyph-name="emacron" unicode="&#x113;" horiz-adv-x="601" 
d="M486 700v-70h-360v70h360zM554 264q0 -18 -1 -27h-412q5 -81 48.5 -126t118.5 -45q51 0 88.5 20t56.5 54h94q-23 -68 -89.5 -111t-150.5 -43q-114 0 -185.5 75.5t-71.5 196.5q0 116 72 190.5t184 74.5q110 0 179 -70.5t69 -188.5zM306 443q-66 0 -108 -34.5t-54 -99.5
h315q-20 134 -153 134z" />
    <glyph glyph-name="Ebreve" unicode="&#x114;" horiz-adv-x="596" 
d="M230 852q-64 0 -64 61v22h43v-13q0 -14 6 -20t21 -6h124q16 0 22 6t6 20v13h43v-22q0 -28 -16.5 -44.5t-48.5 -16.5h-136zM175 80h378v-80h-473v750h460v-80h-365v-229h317v-80h-317v-281z" />
    <glyph glyph-name="ebreve" unicode="&#x115;" horiz-adv-x="601" 
d="M259 612q-106 0 -106 91v29h74v-20q0 -41 44 -41h69q45 0 45 41v20h73v-29q0 -91 -107 -91h-92zM554 264q0 -18 -1 -27h-412q5 -81 48.5 -126t118.5 -45q51 0 88.5 20t56.5 54h94q-23 -68 -89.5 -111t-150.5 -43q-114 0 -185.5 75.5t-71.5 196.5q0 116 72 190.5t184 74.5
q110 0 179 -70.5t69 -188.5zM306 443q-66 0 -108 -34.5t-54 -99.5h315q-20 134 -153 134z" />
    <glyph glyph-name="Edotaccent" unicode="&#x116;" horiz-adv-x="596" 
d="M371 903v-46h-145v46h145zM175 80h378v-80h-473v750h460v-80h-365v-229h317v-80h-317v-281z" />
    <glyph glyph-name="edotaccent" unicode="&#x117;" horiz-adv-x="601" 
d="M346 750v-134h-80v134h80zM554 264q0 -18 -1 -27h-412q5 -81 48.5 -126t118.5 -45q51 0 88.5 20t56.5 54h94q-23 -68 -89.5 -111t-150.5 -43q-114 0 -185.5 75.5t-71.5 196.5q0 116 72 190.5t184 74.5q110 0 179 -70.5t69 -188.5zM306 443q-66 0 -108 -34.5t-54 -99.5
h315q-20 134 -153 134z" />
    <glyph glyph-name="Eogonek" unicode="&#x118;" horiz-adv-x="596" 
d="M553 0q-49 -26 -87 -59t-38 -58q0 -26 38 -26q27 0 43 7v-62q-26 -14 -69 -14q-41 0 -63.5 18t-22.5 51q0 39 35 77t83 66h-392v750h460v-80h-365v-229h317v-80h-317v-281h378v-80z" />
    <glyph glyph-name="eogonek" unicode="&#x119;" horiz-adv-x="601" 
d="M554 264q0 -18 -1 -27h-412q5 -81 48.5 -126t118.5 -45q51 0 88.5 20t56.5 54h94q-16 -49 -57 -86.5t-97 -54.5q-49 -26 -86.5 -59t-37.5 -57q0 -26 38 -26q28 0 44 7v-62q-26 -14 -69 -14q-41 0 -63.5 18t-22.5 51q0 66 96 129q-108 5 -175 80t-67 192q0 116 72 190.5
t184 74.5q110 0 179 -70.5t69 -188.5zM306 443q-66 0 -108 -34.5t-54 -99.5h315q-20 134 -153 134z" />
    <glyph glyph-name="Ecaron" unicode="&#x11a;" horiz-adv-x="596" 
d="M312 838h-3l-134 42v47l136 -40l131 40v-47zM175 80h378v-80h-473v750h460v-80h-365v-229h317v-80h-317v-281z" />
    <glyph glyph-name="ecaron" unicode="&#x11b;" horiz-adv-x="601" 
d="M340 619h-69l-116 133h81l67 -71l67 71h86zM554 264q0 -18 -1 -27h-412q5 -81 48.5 -126t118.5 -45q51 0 88.5 20t56.5 54h94q-23 -68 -89.5 -111t-150.5 -43q-114 0 -185.5 75.5t-71.5 196.5q0 116 72 190.5t184 74.5q110 0 179 -70.5t69 -188.5zM306 443
q-66 0 -108 -34.5t-54 -99.5h315q-20 134 -153 134z" />
    <glyph glyph-name="Gcircumflex" unicode="&#x11c;" horiz-adv-x="802" 
d="M535 839l-131 40l-136 -40v47l134 41h3l130 -41v-47zM764 387v-387h-79v142q-41 -74 -112 -115t-164 -41q-160 0 -263.5 110.5t-103.5 278.5q0 169 104 279t266 110q126 0 218.5 -63.5t128.5 -175.5h-101q-29 71 -92.5 111t-152.5 40q-123 0 -198.5 -83.5t-75.5 -218.5
q0 -134 75.5 -218t198.5 -84q108 0 178 63.5t84 171.5h-224v80h313z" />
    <glyph glyph-name="gcircumflex" unicode="&#x11d;" horiz-adv-x="618" 
d="M322 690l-67 -71h-81l116 133h69l116 -133h-86zM459 510h88v-545q0 -78 -44.5 -121.5t-129.5 -43.5h-211v79h209q41 0 64.5 23.5t23.5 69.5v108q-59 -84 -170 -84q-104 0 -171.5 73.5t-67.5 190.5q0 116 67.5 189.5t171.5 73.5q110 0 170 -84v71zM302 77q110 0 157 105
v154q-46 106 -157 106q-71 0 -115.5 -49.5t-44.5 -132.5q0 -84 44.5 -133.5t115.5 -49.5z" />
    <glyph glyph-name="Gbreve" unicode="&#x11e;" horiz-adv-x="802" 
d="M333 852q-64 0 -64 61v22h43v-13q0 -14 6 -20t21 -6h124q16 0 22 6t6 20v13h43v-22q0 -28 -16.5 -44.5t-48.5 -16.5h-136zM764 387v-387h-79v142q-41 -74 -112 -115t-164 -41q-160 0 -263.5 110.5t-103.5 278.5q0 169 104 279t266 110q126 0 218.5 -63.5t128.5 -175.5
h-101q-29 71 -92.5 111t-152.5 40q-123 0 -198.5 -83.5t-75.5 -218.5q0 -134 75.5 -218t198.5 -84q108 0 178 63.5t84 171.5h-224v80h313z" />
    <glyph glyph-name="gbreve" unicode="&#x11f;" horiz-adv-x="618" 
d="M278 612q-106 0 -106 91v29h74v-20q0 -41 44 -41h69q45 0 45 41v20h73v-29q0 -91 -107 -91h-92zM459 510h88v-545q0 -78 -44.5 -121.5t-129.5 -43.5h-211v79h209q41 0 64.5 23.5t23.5 69.5v108q-59 -84 -170 -84q-104 0 -171.5 73.5t-67.5 190.5q0 116 67.5 189.5
t171.5 73.5q110 0 170 -84v71zM302 77q110 0 157 105v154q-46 106 -157 106q-71 0 -115.5 -49.5t-44.5 -132.5q0 -84 44.5 -133.5t115.5 -49.5z" />
    <glyph glyph-name="Gdotaccent" unicode="&#x120;" horiz-adv-x="802" 
d="M474 903v-46h-145v46h145zM764 387v-387h-79v142q-41 -74 -112 -115t-164 -41q-160 0 -263.5 110.5t-103.5 278.5q0 169 104 279t266 110q126 0 218.5 -63.5t128.5 -175.5h-101q-29 71 -92.5 111t-152.5 40q-123 0 -198.5 -83.5t-75.5 -218.5q0 -134 75.5 -218t198.5 -84
q108 0 178 63.5t84 171.5h-224v80h313z" />
    <glyph glyph-name="gdotaccent" unicode="&#x121;" horiz-adv-x="618" 
d="M365 750v-134h-80v134h80zM459 510h88v-545q0 -78 -44.5 -121.5t-129.5 -43.5h-211v79h209q41 0 64.5 23.5t23.5 69.5v108q-59 -84 -170 -84q-104 0 -171.5 73.5t-67.5 190.5q0 116 67.5 189.5t171.5 73.5q110 0 170 -84v71zM302 77q110 0 157 105v154q-46 106 -157 106
q-71 0 -115.5 -49.5t-44.5 -132.5q0 -84 44.5 -133.5t115.5 -49.5z" />
    <glyph glyph-name="uni0122" unicode="&#x122;" horiz-adv-x="802" 
d="M764 387v-387h-79v142q-41 -74 -112 -115t-164 -41q-160 0 -263.5 110.5t-103.5 278.5q0 169 104 279t266 110q126 0 218.5 -63.5t128.5 -175.5h-101q-29 71 -92.5 111t-152.5 40q-123 0 -198.5 -83.5t-75.5 -218.5q0 -134 75.5 -218t198.5 -84q108 0 178 63.5t84 171.5
h-224v80h313zM339 -194l40 124h85l-63 -124h-62z" />
    <glyph glyph-name="uni0123" unicode="&#x123;" horiz-adv-x="618" 
d="M400 750l-40 -131h-96l64 131h72zM459 510h88v-545q0 -78 -44.5 -121.5t-129.5 -43.5h-211v79h209q41 0 64.5 23.5t23.5 69.5v108q-59 -84 -170 -84q-104 0 -171.5 73.5t-67.5 190.5q0 116 67.5 189.5t171.5 73.5q110 0 170 -84v71zM302 77q110 0 157 105v154
q-46 106 -157 106q-71 0 -115.5 -49.5t-44.5 -132.5q0 -84 44.5 -133.5t115.5 -49.5z" />
    <glyph glyph-name="Hcircumflex" unicode="&#x124;" horiz-adv-x="699" 
d="M483 839l-131 40l-136 -40v47l134 41h3l130 -41v-47zM524 750h95v-750h-95v361h-349v-361h-95v750h95v-309h349v309z" />
    <glyph glyph-name="hcircumflex" unicode="&#x125;" horiz-adv-x="615" 
d="M254 801l-131 40l-135 -40v47l133 41h3l130 -41v-47zM349 523q91 0 143.5 -55.5t52.5 -148.5v-319h-90v299q0 64 -33.5 102.5t-96.5 38.5q-49 0 -94 -28.5t-65 -71.5v-340h-90v750h90v-317q66 90 183 90z" />
    <glyph glyph-name="Hbar" unicode="&#x126;" horiz-adv-x="699" 
d="M682 619v-55h-63v-564h-95v361h-349v-361h-95v564h-63v55h63v131h95v-131h349v131h95v-131h63zM524 441v123h-349v-123h349z" />
    <glyph glyph-name="hbar" unicode="&#x127;" horiz-adv-x="615" 
d="M349 523q91 0 143.5 -55.5t52.5 -148.5v-319h-90v299q0 64 -33.5 102.5t-96.5 38.5q-49 0 -94 -28.5t-65 -71.5v-340h-90v595h-70v58h70v97h90v-97h166v-58h-166v-162q66 90 183 90z" />
    <glyph glyph-name="Itilde" unicode="&#x128;" horiz-adv-x="253" 
d="M-33 857v46h318v-46h-318zM80 0v750h93v-750h-93z" />
    <glyph glyph-name="itilde" unicode="&#x129;" horiz-adv-x="302" 
d="M-38 630v70h360v-70h-360zM137 0v429h-114v81h204v-510h-90z" />
    <glyph glyph-name="Imacron" unicode="&#x12a;" horiz-adv-x="253" 
d="M-11 821v44h275v-44h-275zM80 0v750h93v-750h-93z" />
    <glyph glyph-name="imacron" unicode="&#x12b;" horiz-adv-x="302" 
d="M-2 637v65h241v-65h-241zM137 0v429h-114v81h204v-510h-90z" />
    <glyph glyph-name="Ibreve" unicode="&#x12c;" horiz-adv-x="253" 
d="M58 840q-64 0 -64 62v21h44v-13q0 -26 26 -26h124q28 0 28 26v13h43v-21q0 -29 -16.5 -45.5t-47.5 -16.5h-137zM80 0v750h93v-750h-93z" />
    <glyph glyph-name="ibreve" unicode="&#x12d;" horiz-adv-x="302" 
d="M71 612q-106 0 -106 91v29h74v-20q0 -41 44 -41h69q45 0 45 41v20h73v-29q0 -91 -107 -91h-92zM137 0v429h-114v81h204v-510h-90z" />
    <glyph glyph-name="Iogonek" unicode="&#x12e;" horiz-adv-x="253" 
d="M173 0q-52 -29 -88.5 -64t-36.5 -61q0 -28 40 -28q23 0 42 8v-56q-24 -13 -66 -13q-38 0 -60 17.5t-22 48.5q0 64 98 133v765h93v-750z" />
    <glyph glyph-name="iogonek" unicode="&#x12f;" horiz-adv-x="302" 
d="M137 750h90v-134h-90v134zM23 429v81h204v-510q-49 -26 -87 -59t-38 -58q0 -26 38 -26q27 0 43 7v-62q-26 -14 -69 -14q-41 0 -63.5 18t-22.5 51q0 37 32 73.5t77 63.5v435h-114z" />
    <glyph glyph-name="Idotaccent" unicode="&#x130;" horiz-adv-x="253" 
d="M44 821v44h165v-44h-165zM80 0v750h93v-750h-93z" />
    <glyph glyph-name="dotlessi" unicode="&#x131;" horiz-adv-x="302" 
d="M137 0v429h-114v81h204v-510h-90z" />
    <glyph glyph-name="IJ" unicode="&#x132;" horiz-adv-x="685" 
d="M80 0v750h93v-750h-93zM288 0v80h166q76 0 76 75v515h-163v80h258v-588q0 -78 -42 -120t-122 -42h-173z" />
    <glyph glyph-name="ij" unicode="&#x133;" horiz-adv-x="610" 
d="M227 616h-90v134h90v-134zM534 616h-90v134h90v-134zM137 0v429h-114v81h204v-510h-90zM250 -200v80h141q53 0 53 56v493h-116v81h206v-584q0 -59 -35 -92.5t-102 -33.5h-147z" />
    <glyph glyph-name="Jcircumflex" unicode="&#x134;" horiz-adv-x="432" 
d="M247 927l130 -41v-47l-131 40l-136 -40v47l134 41h3zM114 670v80h258v-588q0 -78 -42 -120t-122 -42h-173v80h166q76 0 76 75v515h-163z" />
    <glyph glyph-name="jcircumflex" unicode="&#x135;" horiz-adv-x="307" 
d="M273 619h-86l-67 71l-67 -71h-81l116 133h69zM-52 -200v80h141q53 0 53 56v493h-116v81h206v-584q0 -59 -35 -92.5t-102 -33.5h-147z" />
    <glyph glyph-name="uni0136" unicode="&#x136;" horiz-adv-x="660" 
d="M360 404l289 -404h-115l-256 361h-103v-361h-95v750h95v-309h102l243 309h114zM265 -194l40 124h85l-63 -124h-62z" />
    <glyph glyph-name="uni0137" unicode="&#x137;" horiz-adv-x="533" 
d="M309 272l205 -272h-108l-173 231h-67v-231h-90v750h90v-445h66l167 205h106zM203 -194l40 124h85l-63 -124h-62z" />
    <glyph glyph-name="Lacute" unicode="&#x139;" horiz-adv-x="567" 
d="M368 886v-46l-272 -43v46zM175 80h356v-80h-451v750h95v-670z" />
    <glyph glyph-name="lacute" unicode="&#x13a;" horiz-adv-x="296" 
d="M60 797v53l169 44v-58zM268 0h-63q-64 0 -97.5 32.5t-33.5 89.5v548h-85v80h176v-620q0 -50 48 -50h55v-80z" />
    <glyph glyph-name="uni013B" unicode="&#x13b;" horiz-adv-x="567" 
d="M175 80h356v-80h-451v750h95v-670zM231 -194l40 124h85l-63 -124h-62z" />
    <glyph glyph-name="uni013C" unicode="&#x13c;" horiz-adv-x="296" 
d="M268 0h-63q-64 0 -97.5 32.5t-33.5 89.5v548h-85v80h176v-620q0 -50 48 -50h55v-80zM112 -194l40 124h85l-63 -124h-62z" />
    <glyph glyph-name="Lcaron" unicode="&#x13d;" horiz-adv-x="567" 
d="M175 80h356v-80h-451v750h95v-670zM432 750l-75 -185h-69l50 185h94z" />
    <glyph glyph-name="lcaron" unicode="&#x13e;" horiz-adv-x="356" 
d="M268 0h-63q-64 0 -97.5 32.5t-33.5 89.5v548h-85v80h176v-620q0 -50 48 -50h55v-80zM287 577h-69l42 173h96z" />
    <glyph glyph-name="Ldot" unicode="&#x13f;" horiz-adv-x="567" 
d="M175 80h356v-80h-451v750h95v-670zM440 457v-136h-79v136h79z" />
    <glyph glyph-name="ldot" unicode="&#x140;" horiz-adv-x="330" 
d="M268 0h-63q-64 0 -97.5 32.5t-33.5 89.5v548h-85v80h176v-620q0 -50 48 -50h55v-80zM322 252h-80v138h80v-138z" />
    <glyph glyph-name="Lslash" unicode="&#x141;" horiz-adv-x="567" 
d="M175 80h356v-80h-451v309l-71 -23v77l71 24v363h95v-332l144 48v-78l-144 -47v-261z" />
    <glyph glyph-name="lslash" unicode="&#x142;" horiz-adv-x="296" 
d="M213 80h55v-80h-63q-64 0 -97.5 32.5t-33.5 89.5v184l-59 -29v81l59 28v284h-85v80h176v-320l62 30v-80l-62 -30v-220q0 -50 48 -50z" />
    <glyph glyph-name="Nacute" unicode="&#x143;" horiz-adv-x="715" 
d="M205 834v47l304 42v-47zM170 0h-90v750h103l359 -599h3v599h90v-750h-102l-360 599h-3v-599z" />
    <glyph glyph-name="nacute" unicode="&#x144;" horiz-adv-x="615" 
d="M454 752l-119 -133h-81l103 133h97zM350 523q90 0 142.5 -55t52.5 -147v-321h-90v301q0 63 -33 101t-96 38q-49 0 -94.5 -29t-65.5 -72v-339h-90v510h90v-78q67 91 184 91z" />
    <glyph glyph-name="uni0145" unicode="&#x145;" horiz-adv-x="715" 
d="M170 0h-90v750h103l359 -599h3v599h90v-750h-102l-360 599h-3v-599zM295 -194l40 124h85l-63 -124h-62z" />
    <glyph glyph-name="uni0146" unicode="&#x146;" horiz-adv-x="615" 
d="M350 523q90 0 142.5 -55t52.5 -147v-321h-90v301q0 63 -33 101t-96 38q-49 0 -94.5 -29t-65.5 -72v-339h-90v510h90v-78q67 91 184 91zM244 -194l40 124h85l-63 -124h-62z" />
    <glyph glyph-name="Ncaron" unicode="&#x147;" horiz-adv-x="715" 
d="M361 838h-3l-134 42v47l136 -40l131 40v-47zM545 750h90v-750h-102l-360 599h-3v-599h-90v750h103l359 -599h3v599z" />
    <glyph glyph-name="ncaron" unicode="&#x148;" horiz-adv-x="615" 
d="M354 619h-69l-116 133h81l67 -71l67 71h86zM350 523q90 0 142.5 -55t52.5 -147v-321h-90v301q0 63 -33 101t-96 38q-49 0 -94.5 -29t-65.5 -72v-339h-90v510h90v-78q67 91 184 91z" />
    <glyph glyph-name="Eng" unicode="&#x14a;" horiz-adv-x="694" 
d="M545 750h90v-788q0 -78 -42 -120t-122 -42h-145v80h138q76 0 76 75v32l-367 612h-3v-599h-90v750h103l359 -599h3v599z" />
    <glyph glyph-name="eng" unicode="&#x14b;" horiz-adv-x="621" 
d="M350 523q90 0 142.5 -55t52.5 -147v-395q0 -60 -35 -93t-102 -33h-129v80h123q53 0 53 56v365q0 63 -33 101t-96 38q-49 0 -94.5 -29t-65.5 -72v-339h-90v510h90v-78q67 91 184 91z" />
    <glyph glyph-name="Omacron" unicode="&#x14c;" horiz-adv-x="840" 
d="M261 857v46h318v-46h-318zM420 -14q-164 0 -269 110t-105 279t105 279t269 110t268.5 -110t104.5 -279t-104.5 -279t-268.5 -110zM420 75q123 0 199.5 83.5t76.5 215.5q0 133 -76.5 216.5t-199.5 83.5q-124 0 -200.5 -83.5t-76.5 -216.5q0 -132 76.5 -215.5t200.5 -83.5z
" />
    <glyph glyph-name="omacron" unicode="&#x14d;" horiz-adv-x="621" 
d="M131 630v70h360v-70h-360zM310 -14q-115 0 -187.5 75.5t-72.5 193.5q0 117 72.5 192.5t187.5 75.5q116 0 188.5 -75.5t72.5 -192.5q0 -118 -72.5 -193.5t-188.5 -75.5zM310 68q77 0 123 51.5t46 135.5t-46 135t-123 51t-122.5 -51t-45.5 -135t45.5 -135.5t122.5 -51.5z
" />
    <glyph glyph-name="Obreve" unicode="&#x14e;" horiz-adv-x="840" 
d="M352 852q-64 0 -64 61v22h43v-13q0 -14 6 -20t21 -6h124q16 0 22 6t6 20v13h43v-22q0 -28 -16.5 -44.5t-48.5 -16.5h-136zM420 -14q-164 0 -269 110t-105 279t105 279t269 110t268.5 -110t104.5 -279t-104.5 -279t-268.5 -110zM420 75q123 0 199.5 83.5t76.5 215.5
q0 133 -76.5 216.5t-199.5 83.5q-124 0 -200.5 -83.5t-76.5 -216.5q0 -132 76.5 -215.5t200.5 -83.5z" />
    <glyph glyph-name="obreve" unicode="&#x14f;" horiz-adv-x="621" 
d="M264 612q-106 0 -106 91v29h74v-20q0 -41 44 -41h69q45 0 45 41v20h73v-29q0 -91 -107 -91h-92zM310 -14q-115 0 -187.5 75.5t-72.5 193.5q0 117 72.5 192.5t187.5 75.5q116 0 188.5 -75.5t72.5 -192.5q0 -118 -72.5 -193.5t-188.5 -75.5zM310 68q77 0 123 51.5t46 135.5
t-46 135t-123 51t-122.5 -51t-45.5 -135t45.5 -135.5t122.5 -51.5z" />
    <glyph glyph-name="Ohungarumlaut" unicode="&#x150;" horiz-adv-x="840" 
d="M279 847l124 65h83l-126 -65h-81zM452 847l124 65h83l-126 -65h-81zM420 -14q-164 0 -269 110t-105 279t105 279t269 110t268.5 -110t104.5 -279t-104.5 -279t-268.5 -110zM420 75q123 0 199.5 83.5t76.5 215.5q0 133 -76.5 216.5t-199.5 83.5q-124 0 -200.5 -83.5
t-76.5 -216.5q0 -132 76.5 -215.5t200.5 -83.5z" />
    <glyph glyph-name="ohungarumlaut" unicode="&#x151;" horiz-adv-x="621" 
d="M208 619l83 133h80l-85 -133h-78zM341 619l84 133h81l-87 -133h-78zM310 -14q-115 0 -187.5 75.5t-72.5 193.5q0 117 72.5 192.5t187.5 75.5q116 0 188.5 -75.5t72.5 -192.5q0 -118 -72.5 -193.5t-188.5 -75.5zM310 68q77 0 123 51.5t46 135.5t-46 135t-123 51
t-122.5 -51t-45.5 -135t45.5 -135.5t122.5 -51.5z" />
    <glyph glyph-name="OE" unicode="&#x152;" horiz-adv-x="1260" 
d="M838 80h378v-80h-473v172q-47 -87 -131.5 -136.5t-191.5 -49.5q-164 0 -269 110t-105 279t105 279t269 110q107 0 191.5 -49.5t131.5 -136.5v172h460v-80h-365v-229h318v-80h-318v-281zM420 75q123 0 199.5 83.5t76.5 215.5q0 133 -76.5 216.5t-199.5 83.5
q-124 0 -200.5 -83.5t-76.5 -216.5q0 -132 76.5 -215.5t200.5 -83.5z" />
    <glyph glyph-name="oe" unicode="&#x153;" horiz-adv-x="1036" 
d="M989 264q0 -18 -1 -27h-411q5 -81 48 -126t118 -45q104 0 145 74h95q-23 -68 -90 -111t-151 -43q-71 0 -126.5 32t-87.5 89q-33 -57 -89.5 -89t-128.5 -32q-115 0 -187.5 75.5t-72.5 193.5q0 117 72.5 192.5t187.5 75.5q72 0 128.5 -32t89.5 -88q32 56 87.5 88t125.5 32
q111 0 179.5 -70.5t68.5 -188.5zM741 443q-66 0 -107.5 -34.5t-53.5 -99.5h314q-20 134 -153 134zM310 68q77 0 123 51.5t46 135.5t-46 135t-123 51t-122.5 -51t-45.5 -135t45.5 -135.5t122.5 -51.5z" />
    <glyph glyph-name="Racute" unicode="&#x154;" horiz-adv-x="608" 
d="M456 923v-47l-304 -42v47zM577 552q0 -71 -40.5 -121.5t-115.5 -67.5l149 -363h-101l-144 355h-150v-355h-95v750h267q108 0 169 -55t61 -143zM175 670v-235h166q69 0 103.5 33.5t34.5 84.5t-34 84t-103 33h-167z" />
    <glyph glyph-name="racute" unicode="&#x155;" horiz-adv-x="400" 
d="M371 752l-118 -133h-82l103 133h97zM163 429q56 81 156 81h49v-81h-55q-103 0 -150 -77v-352h-90v510h90v-81z" />
    <glyph glyph-name="uni0156" unicode="&#x156;" horiz-adv-x="608" 
d="M577 552q0 -71 -40.5 -121.5t-115.5 -67.5l149 -363h-101l-144 355h-150v-355h-95v750h267q108 0 169 -55t61 -143zM175 670v-235h166q69 0 103.5 33.5t34.5 84.5t-34 84t-103 33h-167zM239 -194l40 124h85l-63 -124h-62z" />
    <glyph glyph-name="uni0157" unicode="&#x157;" horiz-adv-x="400" 
d="M319 510h49v-81h-55q-103 0 -150 -77v-352h-90v510h90v-81q56 81 156 81zM37 -194l40 124h85l-63 -124h-62z" />
    <glyph glyph-name="Rcaron" unicode="&#x158;" horiz-adv-x="608" 
d="M308 838h-3l-134 42v47l136 -40l131 40v-47zM577 552q0 -71 -40.5 -121.5t-115.5 -67.5l149 -363h-101l-144 355h-150v-355h-95v750h267q108 0 169 -55t61 -143zM175 670v-235h166q69 0 103.5 33.5t34.5 84.5t-34 84t-103 33h-167z" />
    <glyph glyph-name="rcaron" unicode="&#x159;" horiz-adv-x="400" 
d="M256 619h-69l-116 133h81l67 -71l67 71h86zM163 429q56 81 156 81h49v-81h-55q-103 0 -150 -77v-352h-90v510h90v-81z" />
    <glyph glyph-name="Sacute" unicode="&#x15a;" horiz-adv-x="655" 
d="M183 834v47l304 42v-47zM344 -14q-139 0 -219.5 72.5t-83.5 200.5h98q2 -89 57 -139t151 -50q79 0 127 37t48 98q0 67 -46 99t-154 39q-131 10 -193.5 60.5t-62.5 147.5q0 96 70.5 154.5t185.5 58.5q127 0 200 -63t80 -178h-98q-6 77 -52.5 117.5t-128.5 40.5
q-73 0 -117.5 -34t-44.5 -90q0 -65 44.5 -95.5t151.5 -37.5q134 -9 197 -61t63 -152q0 -102 -74.5 -163.5t-198.5 -61.5z" />
    <glyph glyph-name="sacute" unicode="&#x15b;" horiz-adv-x="515" 
d="M210 619l103 133h97l-118 -133h-82zM269 -14q-101 0 -160.5 47t-66.5 127h92q8 -45 42.5 -70.5t91.5 -25.5t90 21.5t33 59.5q0 39 -27.5 57.5t-101.5 23.5q-112 7 -158 41.5t-46 102.5q0 71 54 112t148 41t147.5 -40.5t64.5 -112.5h-91q-19 76 -122 76q-52 0 -82 -19
t-30 -53q0 -36 25.5 -51.5t100.5 -19.5q114 -7 161 -43.5t47 -110.5q0 -76 -56.5 -119.5t-155.5 -43.5z" />
    <glyph glyph-name="Scircumflex" unicode="&#x15c;" horiz-adv-x="655" 
d="M461 839l-131 40l-136 -40v47l134 41h3l130 -41v-47zM357 424q134 -9 197 -61t63 -152q0 -102 -74.5 -163.5t-198.5 -61.5q-139 0 -219.5 72.5t-83.5 200.5h98q2 -89 57 -139t151 -50q79 0 127 37t48 98q0 67 -46 99t-154 39q-131 10 -193.5 60.5t-62.5 147.5
q0 96 70.5 154.5t185.5 58.5q127 0 200 -63t80 -178h-98q-6 77 -52.5 117.5t-128.5 40.5q-73 0 -117.5 -34t-44.5 -90q0 -65 44.5 -95.5t151.5 -37.5z" />
    <glyph glyph-name="scircumflex" unicode="&#x15d;" horiz-adv-x="515" 
d="M410 619h-86l-67 71l-67 -71h-81l116 133h69zM269 -14q-101 0 -160.5 47t-66.5 127h92q8 -45 42.5 -70.5t91.5 -25.5t90 21.5t33 59.5q0 39 -27.5 57.5t-101.5 23.5q-112 7 -158 41.5t-46 102.5q0 71 54 112t148 41t147.5 -40.5t64.5 -112.5h-91q-19 76 -122 76
q-52 0 -82 -19t-30 -53q0 -36 25.5 -51.5t100.5 -19.5q114 -7 161 -43.5t47 -110.5q0 -76 -56.5 -119.5t-155.5 -43.5z" />
    <glyph glyph-name="Scedilla" unicode="&#x15e;" horiz-adv-x="655" 
d="M617 211q0 -94 -63 -153.5t-170 -69.5v-79q0 -99 -99 -99h-43v66h27q43 0 43 42v69q-125 8 -196.5 79.5t-74.5 192.5h98q2 -89 57 -139t151 -50q79 0 127 37t48 98q0 67 -46 99t-154 39q-131 10 -193.5 60.5t-62.5 147.5q0 96 70.5 154.5t185.5 58.5q127 0 200 -63
t80 -178h-98q-6 77 -52.5 117.5t-128.5 40.5q-73 0 -117.5 -34t-44.5 -90q0 -65 44.5 -95.5t151.5 -37.5q134 -9 197 -61t63 -152z" />
    <glyph glyph-name="scedilla" unicode="&#x15f;" horiz-adv-x="515" 
d="M481 149q0 -66 -42 -107t-117 -52v-81q0 -99 -99 -99h-44v66h27q43 0 43 42v69q-93 4 -146.5 50.5t-60.5 122.5h92q8 -45 42.5 -70.5t91.5 -25.5t90 21.5t33 59.5q0 39 -27.5 57.5t-101.5 23.5q-112 7 -158 41.5t-46 102.5q0 71 54 112t148 41t147.5 -40.5t64.5 -112.5
h-91q-19 76 -122 76q-52 0 -82 -19t-30 -53q0 -36 25.5 -51.5t100.5 -19.5q114 -7 161 -43.5t47 -110.5z" />
    <glyph glyph-name="Scaron" unicode="&#x160;" horiz-adv-x="655" 
d="M331 838h-3l-134 42v47l136 -40l131 40v-47zM357 424q134 -9 197 -61t63 -152q0 -102 -74.5 -163.5t-198.5 -61.5q-139 0 -219.5 72.5t-83.5 200.5h98q2 -89 57 -139t151 -50q79 0 127 37t48 98q0 67 -46 99t-154 39q-131 10 -193.5 60.5t-62.5 147.5q0 96 70.5 154.5
t185.5 58.5q127 0 200 -63t80 -178h-98q-6 77 -52.5 117.5t-128.5 40.5q-73 0 -117.5 -34t-44.5 -90q0 -65 44.5 -95.5t151.5 -37.5z" />
    <glyph glyph-name="scaron" unicode="&#x161;" horiz-adv-x="515" 
d="M324 752h86l-116 -133h-69l-116 133h81l67 -71zM269 -14q-101 0 -160.5 47t-66.5 127h92q8 -45 42.5 -70.5t91.5 -25.5t90 21.5t33 59.5q0 39 -27.5 57.5t-101.5 23.5q-112 7 -158 41.5t-46 102.5q0 71 54 112t148 41t147.5 -40.5t64.5 -112.5h-91q-19 76 -122 76
q-52 0 -82 -19t-30 -53q0 -36 25.5 -51.5t100.5 -19.5q114 -7 161 -43.5t47 -110.5q0 -76 -56.5 -119.5t-155.5 -43.5z" />
    <glyph glyph-name="uni0162" unicode="&#x162;" horiz-adv-x="611" 
d="M26 750h559v-80h-232v-670h-13v-91q0 -99 -99 -99h-43v66h27q43 0 43 42v82h-10v670h-232v80z" />
    <glyph glyph-name="uni0163" unicode="&#x163;" horiz-adv-x="403" 
d="M378 80v-80h-86v-91q0 -99 -99 -99h-44v66h27q43 0 43 42v85q-53 9 -81 43t-28 89v294h-101v81h101v171h90v-171h175v-81h-175v-283q0 -33 17 -49.5t45 -16.5h116z" />
    <glyph glyph-name="Tcaron" unicode="&#x164;" horiz-adv-x="611" 
d="M308 838h-3l-133 42v47l136 -40l131 40v-47zM26 750h559v-80h-232v-670h-95v670h-232v80z" />
    <glyph glyph-name="tcaron" unicode="&#x165;" horiz-adv-x="428" 
d="M358 592h-68l37 158h96zM378 0h-121q-72 0 -109.5 35.5t-37.5 99.5v294h-101v81h101v171h90v-171h175v-81h-175v-283q0 -33 17 -49.5t45 -16.5h116v-80z" />
    <glyph glyph-name="Tbar" unicode="&#x166;" horiz-adv-x="611" 
d="M585 670h-232v-245h98v-56h-98v-369h-95v369h-97v56h97v245h-232v80h559v-80z" />
    <glyph glyph-name="tbar" unicode="&#x167;" horiz-adv-x="403" 
d="M262 80h116v-80h-121q-72 0 -109.5 35.5t-37.5 99.5v102h-71v59h71v133h-101v81h101v171h90v-171h175v-81h-175v-133h99v-59h-99v-91q0 -33 17 -49.5t45 -16.5z" />
    <glyph glyph-name="Utilde" unicode="&#x168;" horiz-adv-x="745" 
d="M214 857v46h318v-46h-318zM678 300q0 -146 -82 -230t-223 -84t-223 84t-82 230v450h95v-456q0 -101 55.5 -161t154.5 -60t154.5 60t55.5 161v456h95v-450z" />
    <glyph glyph-name="utilde" unicode="&#x169;" horiz-adv-x="605" 
d="M478 700v-70h-360v70h360zM438 510h91v-510h-91v75q-65 -89 -179 -89q-87 0 -138.5 55t-51.5 147v322h91v-302q0 -63 32 -101t92 -38q47 0 90.5 28t63.5 70v343z" />
    <glyph glyph-name="Umacron" unicode="&#x16a;" horiz-adv-x="745" 
d="M214 857v46h318v-46h-318zM678 300q0 -146 -82 -230t-223 -84t-223 84t-82 230v450h95v-456q0 -101 55.5 -161t154.5 -60t154.5 60t55.5 161v456h95v-450z" />
    <glyph glyph-name="umacron" unicode="&#x16b;" horiz-adv-x="605" 
d="M478 700v-70h-360v70h360zM438 510h91v-510h-91v75q-65 -89 -179 -89q-87 0 -138.5 55t-51.5 147v322h91v-302q0 -63 32 -101t92 -38q47 0 90.5 28t63.5 70v343z" />
    <glyph glyph-name="Ubreve" unicode="&#x16c;" horiz-adv-x="745" 
d="M304 852q-64 0 -64 61v22h43v-13q0 -14 6 -20t21 -6h124q16 0 22 6t6 20v13h43v-22q0 -28 -16.5 -44.5t-48.5 -16.5h-136zM678 300q0 -146 -82 -230t-223 -84t-223 84t-82 230v450h95v-456q0 -101 55.5 -161t154.5 -60t154.5 60t55.5 161v456h95v-450z" />
    <glyph glyph-name="ubreve" unicode="&#x16d;" horiz-adv-x="605" 
d="M251 612q-106 0 -106 91v29h74v-20q0 -41 44 -41h69q45 0 45 41v20h73v-29q0 -91 -107 -91h-92zM438 510h91v-510h-91v75q-65 -89 -179 -89q-87 0 -138.5 55t-51.5 147v322h91v-302q0 -63 32 -101t92 -38q47 0 90.5 28t63.5 70v343z" />
    <glyph glyph-name="Uring" unicode="&#x16e;" horiz-adv-x="745" 
d="M372 827q-91 0 -91 60q0 28 24.5 44t66.5 16t66.5 -16t24.5 -44q0 -29 -24.5 -44.5t-66.5 -15.5zM372 858q56 0 56 28q0 30 -56 30t-56 -30q0 -28 56 -28zM678 300q0 -146 -82 -230t-223 -84t-223 84t-82 230v450h95v-456q0 -101 55.5 -161t154.5 -60t154.5 60t55.5 161
v456h95v-450z" />
    <glyph glyph-name="uring" unicode="&#x16f;" horiz-adv-x="605" 
d="M298 609q-35 0 -60.5 25t-25.5 61q0 35 25.5 60t60.5 25t60.5 -25t25.5 -60q0 -36 -25.5 -61t-60.5 -25zM298 734q-17 0 -29 -11.5t-12 -27.5q0 -17 12 -28.5t29 -11.5t29 11.5t12 28.5q0 16 -12 27.5t-29 11.5zM438 510h91v-510h-91v75q-65 -89 -179 -89
q-87 0 -138.5 55t-51.5 147v322h91v-302q0 -63 32 -101t92 -38q47 0 90.5 28t63.5 70v343z" />
    <glyph glyph-name="Uhungarumlaut" unicode="&#x170;" horiz-adv-x="745" 
d="M232 847l124 65h83l-126 -65h-81zM405 847l124 65h83l-126 -65h-81zM678 300q0 -146 -82 -230t-223 -84t-223 84t-82 230v450h95v-456q0 -101 55.5 -161t154.5 -60t154.5 60t55.5 161v456h95v-450z" />
    <glyph glyph-name="uhungarumlaut" unicode="&#x171;" horiz-adv-x="605" 
d="M358 752l-85 -133h-78l83 133h80zM406 619h-78l84 133h81zM438 510h91v-510h-91v75q-65 -89 -179 -89q-87 0 -138.5 55t-51.5 147v322h91v-302q0 -63 32 -101t92 -38q47 0 90.5 28t63.5 70v343z" />
    <glyph glyph-name="Uogonek" unicode="&#x172;" horiz-adv-x="745" 
d="M583 750h95v-450q0 -131 -67 -213t-185 -98q-42 -27 -69.5 -58.5t-27.5 -55.5q0 -28 40 -28q23 0 42 8v-56q-24 -13 -66 -13q-38 0 -59.5 17.5t-21.5 48.5q0 69 94 134q-134 5 -212 88.5t-78 225.5v450h95v-456q0 -101 55.5 -161t154.5 -60t154.5 60t55.5 161v456z" />
    <glyph glyph-name="uogonek" unicode="&#x173;" horiz-adv-x="605" 
d="M529 0q-49 -26 -87 -59t-38 -58q0 -26 38 -26q27 0 43 7v-62q-26 -14 -69 -14q-41 0 -63.5 18t-22.5 51q0 39 35 77t83 66h-10v75q-65 -89 -179 -89q-87 0 -138.5 55t-51.5 147v322h91v-302q0 -63 32 -101t92 -38q47 0 90.5 28t63.5 70v343h91v-510z" />
    <glyph glyph-name="Wcircumflex" unicode="&#x174;" horiz-adv-x="1058" 
d="M663 839l-131 40l-136 -40v47l134 41h3l130 -41v-47zM929 750h98l-218 -750h-117l-163 579l-162 -579h-117l-218 750h97l178 -630h3l171 602h96l171 -602h4z" />
    <glyph glyph-name="wcircumflex" unicode="&#x175;" horiz-adv-x="765" 
d="M380 690l-67 -71h-81l116 133h69l116 -133h-86zM652 510h89l-135 -510h-119l-104 364l-105 -364h-118l-136 510h89l108 -421h3l118 399h81l119 -399h3z" />
    <glyph glyph-name="Ycircumflex" unicode="&#x176;" horiz-adv-x="636" 
d="M452 839l-131 40l-136 -40v47l134 41h3l130 -41v-47zM610 750l-244 -499v-251h-95v253l-243 497h99l190 -400h3l191 400h99z" />
    <glyph glyph-name="ycircumflex" unicode="&#x177;" horiz-adv-x="505" 
d="M250 690l-67 -71h-81l116 133h69l116 -133h-86zM391 510h91l-216 -600q-21 -57 -52 -83.5t-88 -26.5h-86v80h80q27 0 42.5 12t25.5 39l26 71l-190 508h91l139 -394h3z" />
    <glyph glyph-name="Ydieresis" unicode="&#x178;" horiz-adv-x="636" 
d="M275 903v-46h-132v46h132zM492 903v-46h-132v46h132zM610 750l-244 -499v-251h-95v253l-243 497h99l190 -400h3l191 400h99z" />
    <glyph glyph-name="Zacute" unicode="&#x179;" horiz-adv-x="656" 
d="M205 834v47l304 42v-47zM618 0h-580v77l457 590v3h-439v80h550v-83l-452 -584v-3h464v-80z" />
    <glyph glyph-name="zacute" unicode="&#x17a;" horiz-adv-x="513" 
d="M206 619l103 133h97l-118 -133h-82zM477 0h-436v71l316 355v3h-304v81h413v-80l-305 -347v-3h316v-80z" />
    <glyph glyph-name="Zdotaccent" unicode="&#x17b;" horiz-adv-x="656" 
d="M256 857v46h145v-46h-145zM618 0h-580v77l457 590v3h-439v80h550v-83l-452 -584v-3h464v-80z" />
    <glyph glyph-name="zdotaccent" unicode="&#x17c;" horiz-adv-x="513" 
d="M216 616v134h80v-134h-80zM477 0h-436v71l316 355v3h-304v81h413v-80l-305 -347v-3h316v-80z" />
    <glyph glyph-name="Zcaron" unicode="&#x17d;" horiz-adv-x="656" 
d="M331 838h-3l-134 42v47l136 -40l131 40v-47zM154 80h464v-80h-580v77l457 590v3h-439v80h550v-83l-452 -584v-3z" />
    <glyph glyph-name="zcaron" unicode="&#x17e;" horiz-adv-x="513" 
d="M321 752h86l-116 -133h-69l-116 133h81l67 -71zM477 0h-436v71l316 355v3h-304v81h413v-80l-305 -347v-3h316v-80z" />
    <glyph glyph-name="florin" unicode="&#x192;" horiz-adv-x="332" 
d="M51 -200h-54v74h49q67 0 67 68v493h-101v75h101v101q0 66 39.5 102.5t113.5 36.5h54v-74h-49q-67 0 -67 -68v-98h116v-75h-116v-496q0 -66 -39.5 -102.5t-113.5 -36.5z" />
    <glyph glyph-name="Aringacute" unicode="&#x1fa;" horiz-adv-x="684" 
d="M342 827q-91 0 -91 60q0 25 19.5 40.5t54.5 18.5l38 55h58l-49 -56q61 -11 61 -58q0 -29 -24.5 -44.5t-66.5 -15.5zM342 916q-56 0 -56 -30q0 -28 56 -28t56 28q0 30 -56 30zM554 0l-72 224h-279l-73 -224h-98l247 750h127l247 -750h-99zM229 304h227l-112 347h-3z" />
    <glyph glyph-name="aringacute" unicode="&#x1fb;" horiz-adv-x="564" 
d="M282 609q-36 0 -61 25t-25 61q0 30 18 52.5t47 29.5l64 97h97l-93 -108q38 -25 38 -71q0 -36 -25 -61t-60 -25zM282 655q17 0 29 11.5t12 28.5q0 16 -12 27.5t-29 11.5t-29 -11.5t-12 -27.5q0 -17 12 -28.5t29 -11.5zM340 510q74 0 114 -36.5t40 -103.5v-370h-89v76
q-60 -90 -189 -90q-79 0 -127.5 42t-48.5 110q0 61 38 99.5t107 49.5l220 34v39q0 69 -67 69h-250v81h252zM235 59q57 0 104.5 29.5t65.5 76.5v84l-188 -31q-86 -14 -86 -80q0 -37 28 -58t76 -21z" />
    <glyph glyph-name="AEacute" unicode="&#x1fc;" horiz-adv-x="922" 
d="M779 923v-47l-304 -42v47zM554 80h325v-80h-420v224h-220l-109 -224h-98l368 750h465v-80h-311v-229h264v-80h-264v-281zM278 304h181v366h-3z" />
    <glyph glyph-name="aeacute" unicode="&#x1fd;" horiz-adv-x="955" 
d="M627 752l-118 -133h-82l103 133h97zM908 264q0 -18 -2 -27h-411q5 -81 48.5 -126t118.5 -45q51 0 88.5 20.5t55.5 53.5h95q-23 -68 -89.5 -111t-150.5 -43q-69 0 -123 31.5t-85 88.5q-32 -55 -92.5 -87.5t-142.5 -32.5q-80 0 -129 42t-49 110q0 61 38 99.5t107 49.5
l220 34v39q0 69 -67 69h-250v81h252q103 0 139 -69q69 82 181 82q110 0 179 -70.5t69 -188.5zM659 443q-65 0 -107 -35t-54 -99h315q-20 134 -154 134zM235 59q57 0 104.5 29.5t65.5 76.5v84l-188 -31q-86 -14 -86 -80q0 -37 28 -58t76 -21z" />
    <glyph glyph-name="Oslashacute" unicode="&#x1fe;" horiz-adv-x="840" 
d="M572 923v-47l-304 -42v47zM802 750l-101 -110q92 -108 92 -265q0 -169 -104.5 -279t-268.5 -110q-142 0 -243 85l-65 -71h-74l101 110q-93 107 -93 265q0 169 105 279t269 110q141 0 242 -85l65 71h75zM143 374q0 -117 60 -195l396 432q-74 63 -179 63
q-124 0 -200.5 -83.5t-76.5 -216.5zM696 374q0 117 -59 196l-397 -431q72 -64 180 -64q123 0 199.5 83.5t76.5 215.5z" />
    <glyph glyph-name="oslashacute" unicode="&#x1ff;" horiz-adv-x="621" 
d="M462 752l-118 -133h-82l103 133h97zM579 510l-70 -74q62 -73 62 -181q0 -118 -72.5 -193.5t-188.5 -75.5q-98 0 -168 57l-40 -43h-60l69 74q-61 74 -61 181q0 117 72.5 192.5t187.5 75.5q98 0 168 -56l40 43h61zM142 255q0 -68 30 -115l247 264q-43 37 -109 37
q-77 0 -122.5 -51t-45.5 -135zM479 255q0 67 -31 115l-247 -264q44 -38 109 -38q77 0 123 51.5t46 135.5z" />
    <glyph glyph-name="uni0218" unicode="&#x218;" horiz-adv-x="655" 
d="M344 -14q-139 0 -219.5 72.5t-83.5 200.5h98q2 -89 57 -139t151 -50q79 0 127 37t48 98q0 67 -46 99t-154 39q-131 10 -193.5 60.5t-62.5 147.5q0 96 70.5 154.5t185.5 58.5q127 0 200 -63t80 -178h-98q-6 77 -52.5 117.5t-128.5 40.5q-73 0 -117.5 -34t-44.5 -90
q0 -65 44.5 -95.5t151.5 -37.5q134 -9 197 -61t63 -152q0 -102 -74.5 -163.5t-198.5 -61.5zM280 -194l40 124h85l-63 -124h-62z" />
    <glyph glyph-name="uni0219" unicode="&#x219;" horiz-adv-x="515" 
d="M269 -14q-101 0 -160.5 47t-66.5 127h92q8 -45 42.5 -70.5t91.5 -25.5t90 21.5t33 59.5q0 39 -27.5 57.5t-101.5 23.5q-112 7 -158 41.5t-46 102.5q0 71 54 112t148 41t147.5 -40.5t64.5 -112.5h-91q-19 76 -122 76q-52 0 -82 -19t-30 -53q0 -36 25.5 -51.5t100.5 -19.5
q114 -7 161 -43.5t47 -110.5q0 -76 -56.5 -119.5t-155.5 -43.5zM210 -194l40 124h85l-63 -124h-62z" />
    <glyph glyph-name="uni021A" unicode="&#x21a;" horiz-adv-x="611" 
d="M353 0h-95v670h-232v80h559v-80h-232v-670zM224 -194l39 124h86l-63 -124h-62z" />
    <glyph glyph-name="uni021B" unicode="&#x21b;" horiz-adv-x="403" 
d="M378 0h-121q-72 0 -109.5 35.5t-37.5 99.5v294h-101v81h101v171h90v-171h175v-81h-175v-283q0 -33 17 -49.5t45 -16.5h116v-80zM197 -194l40 124h85l-63 -124h-62z" />
    <glyph glyph-name="circumflex" unicode="&#x2c6;" horiz-adv-x="401" 
d="M351 619h-86l-67 71l-67 -71h-81l116 133h69z" />
    <glyph glyph-name="caron" unicode="&#x2c7;" horiz-adv-x="401" 
d="M265 752h86l-116 -133h-69l-116 133h81l67 -71z" />
    <glyph glyph-name="breve" unicode="&#x2d8;" horiz-adv-x="405" 
d="M156 612q-106 0 -106 91v29h74v-20q0 -41 44 -41h69q45 0 45 41v20h73v-29q0 -91 -107 -91h-92z" />
    <glyph glyph-name="dotaccent" unicode="&#x2d9;" horiz-adv-x="180" 
d="M50 616v134h80v-134h-80z" />
    <glyph glyph-name="ring" unicode="&#x2da;" horiz-adv-x="272" 
d="M136 609q-35 0 -60.5 25t-25.5 61q0 35 25.5 60t60.5 25t60.5 -25t25.5 -60q0 -36 -25.5 -61t-60.5 -25zM136 655q17 0 29 11.5t12 28.5q0 16 -12 27.5t-29 11.5t-29 -11.5t-12 -27.5q0 -17 12 -28.5t29 -11.5z" />
    <glyph glyph-name="ogonek" unicode="&#x2db;" horiz-adv-x="299" 
d="M136 -212q-41 0 -63.5 18t-22.5 51q0 44 45.5 88t99.5 69l54 -14q-49 -26 -87 -59t-38 -58q0 -26 38 -26q27 0 43 7v-62q-26 -14 -69 -14z" />
    <glyph glyph-name="tilde" unicode="&#x2dc;" horiz-adv-x="413" 
d="M50 630v70h360v-70h-360z" />
    <glyph glyph-name="hungarumlaut" unicode="&#x2dd;" horiz-adv-x="398" 
d="M50 619l83 133h80l-85 -133h-78zM183 619l84 133h81l-87 -133h-78z" />
    <glyph glyph-name="gravecomb" unicode="&#x300;" 
d="M-82 619l-118 133h96l104 -133h-82z" />
    <glyph glyph-name="acutecomb" unicode="&#x301;" 
d="M-200 619l103 133h97l-118 -133h-82z" />
    <glyph glyph-name="uni0302" unicode="&#x302;" 
d="M0 619h-86l-67 71l-67 -71h-81l116 133h69z" />
    <glyph glyph-name="tildecomb" unicode="&#x303;" 
d="M-360 630v70h360v-70h-360z" />
    <glyph glyph-name="uni0304" unicode="&#x304;" 
d="M-360 630v70h360v-70h-360z" />
    <glyph glyph-name="uni0306" unicode="&#x306;" 
d="M-199 612q-106 0 -106 91v29h74v-20q0 -41 44 -41h69q45 0 45 41v20h73v-29q0 -91 -107 -91h-92z" />
    <glyph glyph-name="uni0307" unicode="&#x307;" 
d="M-80 616v134h80v-134h-80z" />
    <glyph glyph-name="uni0308" unicode="&#x308;" 
d="M-294 616v134h80v-134h-80zM-79 616v134h79v-134h-79z" />
    <glyph glyph-name="uni030A" unicode="&#x30a;" 
d="M-86 609q-35 0 -60.5 25t-25.5 61q0 35 25.5 60t60.5 25t60.5 -25t25.5 -60q0 -36 -25.5 -61t-60.5 -25zM-86 655q17 0 29 11.5t12 28.5q0 16 -12 27.5t-29 11.5t-29 -11.5t-12 -27.5q0 -17 12 -28.5t29 -11.5z" />
    <glyph glyph-name="uni030B" unicode="&#x30b;" 
d="M-298 619l83 133h80l-85 -133h-78zM-165 619l84 133h81l-87 -133h-78z" />
    <glyph glyph-name="uni030C" unicode="&#x30c;" 
d="M-86 752h86l-116 -133h-69l-116 133h81l67 -71z" />
    <glyph glyph-name="uni0326" unicode="&#x326;" 
d="M-125 -194l40 124h85l-63 -124h-62z" />
    <glyph glyph-name="uni0327" unicode="&#x327;" 
d="M-143 -188v66h27q43 0 43 42v95h73v-104q0 -99 -99 -99h-44z" />
    <glyph glyph-name="uni0328" unicode="&#x328;" 
d="M-113 -212q-41 0 -63.5 18t-22.5 51q0 44 45.5 88t99.5 69l54 -14q-49 -26 -87 -59t-38 -58q0 -26 38 -26q27 0 43 7v-62q-26 -14 -69 -14z" />
    <glyph glyph-name="pi" unicode="&#x3c0;" horiz-adv-x="636" 
d="M604 435h-101v-335q0 -41 40 -41q21 0 32 7v-66q-19 -12 -54 -12q-109 0 -109 102v345h-196v-435h-91v435h-93v75h572v-75z" />
    <glyph glyph-name="uni060C" unicode="&#x60c;" horiz-adv-x="265" 
d="M139 267h68l-78 -281h-95z" />
    <glyph glyph-name="uni061B" unicode="&#x61b;" horiz-adv-x="265" 
d="M146 546h67l-78 -281h-93zM51 123h85v-136h-85v136z" />
    <glyph glyph-name="uni061F" unicode="&#x61f;" horiz-adv-x="537" 
d="M261 764q103 0 165.5 -63.5t62.5 -155.5v-13h-88v13q0 55 -37 94t-101 39q-62 0 -96.5 -37t-34.5 -85q0 -66 70 -122l128 -104v-100h-88v65l-87 72q-38 31 -60.5 54.5t-39.5 60t-17 79.5q0 80 60 141.5t163 61.5zM242 0v128h88v-128h-88z" />
    <glyph glyph-name="uni0621" unicode="&#x621;" horiz-adv-x="482" 
d="M249 90h176v-90h-395v90h75q-33 40 -33 104q0 82 48.5 130t140.5 48q33 0 64 -5t46 -11l15 -5l-17 -83q-57 14 -111 14q-52 0 -79 -26.5t-27 -68.5q0 -46 21.5 -71.5t75.5 -25.5z" />
    <glyph glyph-name="uni0622" unicode="&#x622;" horiz-adv-x="235" 
d="M228 756l15 -45q-27 -25 -69 -25q-22 0 -55.5 12t-47.5 12q-29 0 -61 -20l-18 45q32 26 76 26q20 0 49 -12t50 -12q30 0 61 19zM78 0v613h79v-613h-79z" />
    <glyph glyph-name="uni0623" unicode="&#x623;" horiz-adv-x="235" 
d="M127 747h77v-51h-177v48h31q-16 18 -16 49q0 39 26.5 60.5t64.5 21.5q16 0 31 -3.5t22 -6.5l8 -3l-11 -43q-24 6 -50 6q-48 0 -48 -38q0 -21 9 -30.5t33 -9.5zM78 0v613h79v-613h-79z" />
    <glyph glyph-name="uni0624" unicode="&#x624;" horiz-adv-x="502" 
d="M348 554v-51h-177v48h31q-16 18 -16 49q0 39 26.5 60.5t64.5 21.5q16 0 31 -3t22 -7l8 -3l-11 -43q-24 6 -50 6q-48 0 -48 -38q0 -21 9 -30.5t33 -9.5h77zM271 420q45 0 88.5 -11t64.5 -21l21 -11v-409q0 -90 -42.5 -133.5t-140.5 -43.5h-190v94h192q57 0 79.5 18.5
t22.5 69.5v89q-39 -62 -140 -62q-95 0 -141.5 55t-46.5 138q0 102 63.5 164.5t169.5 62.5zM243 94q92 0 123 46v165q-40 21 -103 21q-70 0 -106 -34t-36 -90q0 -48 31 -78t91 -30z" />
    <glyph glyph-name="uni0625" unicode="&#x625;" horiz-adv-x="250" 
d="M157 713v-613h-79v613h79zM125 -89h77v-51h-177v48h31q-16 18 -16 49q0 39 26.5 60.5t64.5 21.5q16 0 31 -3.5t22 -6.5l8 -3l-11 -43q-24 6 -50 6q-48 0 -48 -38q0 -21 9 -30.5t33 -9.5z" />
    <glyph glyph-name="uni0626" unicode="&#x626;" horiz-adv-x="821" 
d="M196 411v-51h-177v48h31q-16 18 -16 49q0 39 26.5 60.5t64.5 21.5q16 0 31 -3.5t22 -6.5l8 -3l-11 -43q-24 6 -50 6q-48 0 -48 -38q0 -21 9 -30.5t33 -9.5h77zM622 159q77 -11 108 -48.5t31 -117.5q0 -101 -81.5 -153.5t-282.5 -52.5q-109 0 -181.5 20.5t-110.5 62
t-53 91.5t-15 121q0 55 10 111t24 85h79q-30 -94 -30 -187q0 -120 60 -165.5t223 -45.5q84 0 140.5 8t85 23.5t39 33t10.5 41.5q0 38 -15 55.5t-52 23.5l-108 17q-100 16 -136.5 55.5t-36.5 135.5q0 95 58.5 149t161.5 54q104 0 177 -46l-27 -80q-76 33 -153 33
q-69 0 -101.5 -26.5t-32.5 -83.5q0 -51 23.5 -70.5t89.5 -29.5z" />
    <glyph glyph-name="uni0627" unicode="&#x627;" horiz-adv-x="235" 
d="M78 0v705h79v-705h-79z" />
    <glyph glyph-name="uni0628" unicode="&#x628;" horiz-adv-x="880" 
d="M291 0q-77 0 -128.5 15t-78 45.5t-37 68t-10.5 92.5q0 76 30 150h76q-27 -73 -27 -140q0 -77 40 -107.5t137 -30.5h321q61 0 94 17t33 68v219h79v-211q0 -97 -53.5 -141.5t-161.5 -44.5h-314zM387 -199v106h79v-106h-79z" />
    <glyph glyph-name="uni0629" unicode="&#x629;" horiz-adv-x="504" 
d="M230 653v-106h-77v106h77zM358 653v-106h-76v106h76zM365 484h79q0 -78 -0.5 -186t-0.5 -112q0 -186 -201 -186q-105 0 -155 56t-50 142q0 102 65.5 164.5t175.5 62.5q44 0 87 -13v72zM245 93q120 0 120 81v146q-30 12 -96 12q-75 0 -112 -33.5t-37 -90.5
q0 -115 125 -115z" />
    <glyph glyph-name="uni062A" unicode="&#x62a;" horiz-adv-x="880" 
d="M330 418v106h77v-106h-77zM459 418v106h76v-106h-76zM291 0q-77 0 -128.5 15t-78 45.5t-37 68t-10.5 92.5q0 76 30 150h76q-27 -73 -27 -140q0 -77 40 -107.5t137 -30.5h321q61 0 94 17t33 68v219h79v-211q0 -97 -53.5 -141.5t-161.5 -44.5h-314z" />
    <glyph glyph-name="uni062B" unicode="&#x62b;" horiz-adv-x="880" 
d="M397 563v103h79v-103h-79zM332 421v106h76v-106h-76zM463 421v106h76v-106h-76zM291 0q-77 0 -128.5 15t-78 45.5t-37 68t-10.5 92.5q0 76 30 150h76q-27 -73 -27 -140q0 -77 40 -107.5t137 -30.5h321q61 0 94 17t33 68v219h79v-211q0 -97 -53.5 -141.5t-161.5 -44.5
h-314z" />
    <glyph glyph-name="uni062C" unicode="&#x62c;" horiz-adv-x="659" 
d="M294 -311q-134 0 -196.5 57t-62.5 152q0 37 10 69.5t32 62t63.5 46.5t98.5 17h241q37 0 37 32v86q0 116 -161 116q-96 0 -185 -36l-22 80q103 49 215 49q31 0 59 -3.5t61.5 -16t57.5 -33t40.5 -58t16.5 -87.5v-95q0 -127 -119 -127h-244q-117 0 -117 -96
q0 -55 39.5 -88.5t142.5 -33.5h194v-93h-201zM301 -166v95h71v-95h-71z" />
    <glyph glyph-name="uni062D" unicode="&#x62d;" horiz-adv-x="659" 
d="M294 -311q-134 0 -196.5 57t-62.5 152q0 37 10 69.5t32 62t63.5 46.5t98.5 17h241q37 0 37 32v86q0 116 -161 116q-96 0 -185 -36l-22 80q103 49 215 49q31 0 59 -3.5t61.5 -16t57.5 -33t40.5 -58t16.5 -87.5v-95q0 -127 -119 -127h-244q-117 0 -117 -96
q0 -55 39.5 -88.5t142.5 -33.5h194v-93h-201z" />
    <glyph glyph-name="uni062E" unicode="&#x62e;" horiz-adv-x="659" 
d="M317 514v106h79v-106h-79zM294 -311q-134 0 -196.5 57t-62.5 152q0 37 10 69.5t32 62t63.5 46.5t98.5 17h241q37 0 37 32v86q0 116 -161 116q-96 0 -185 -36l-22 80q103 49 215 49q31 0 59 -3.5t61.5 -16t57.5 -33t40.5 -58t16.5 -87.5v-95q0 -127 -119 -127h-244
q-117 0 -117 -96q0 -55 39.5 -88.5t142.5 -33.5h194v-93h-201z" />
    <glyph glyph-name="uni062F" unicode="&#x62f;" horiz-adv-x="542" 
d="M119 430q115 -15 190.5 -37.5t114 -55t52.5 -67.5t13 -83l-1 -72q-1 -115 -123 -115h-325v93h366v86q0 25 -5 42t-23 36t-50 33t-87.5 27t-135.5 24z" />
    <glyph glyph-name="uni0630" unicode="&#x630;" horiz-adv-x="542" 
d="M287 643v-106h-79v106h79zM119 430q115 -15 190.5 -37.5t114 -55t52.5 -67.5t13 -83l-1 -72q-1 -115 -123 -115h-325v93h366v86q0 25 -5 42t-23 36t-50 33t-87.5 27t-135.5 24z" />
    <glyph glyph-name="uni0631" unicode="&#x631;" horiz-adv-x="310" 
d="M-6 -209v93h95q46 0 63.5 14.5t17.5 51.5v446h79v-444q0 -77 -35.5 -119t-122.5 -42h-97z" />
    <glyph glyph-name="uni0632" unicode="&#x632;" horiz-adv-x="310" 
d="M170 489v106h79v-106h-79zM-6 -209v93h95q46 0 63.5 14.5t17.5 51.5v446h79v-444q0 -77 -35.5 -119t-122.5 -42h-97z" />
    <glyph glyph-name="uni0633" unicode="&#x633;" horiz-adv-x="1220" 
d="M1081 395h79v-244q0 -76 -46 -113.5t-129 -37.5q-103 0 -134 53q-32 -53 -139 -53h-107q-28 -208 -287 -208q-79 0 -135.5 22t-87.5 62t-44.5 87t-13.5 105q0 54 11 110t25 87h80q-33 -95 -33 -190q0 -88 45.5 -139t158.5 -51t158.5 42t45.5 120v287h80v-241h106
q50 0 72 12t22 40v189h80v-211q26 -30 99 -30q50 0 72 13t22 45v244z" />
    <glyph glyph-name="uni0634" unicode="&#x634;" horiz-adv-x="1220" 
d="M892 690v-103h-79v103h79zM824 551v-106h-76v106h76zM879 445v106h76v-106h-76zM1081 395h79v-244q0 -76 -46 -113.5t-129 -37.5q-103 0 -134 53q-32 -53 -139 -53h-107q-28 -208 -287 -208q-79 0 -135.5 22t-87.5 62t-44.5 87t-13.5 105q0 54 11 110t25 87h80
q-33 -95 -33 -190q0 -88 45.5 -139t158.5 -51t158.5 42t45.5 120v287h80v-241h106q50 0 72 12t22 40v189h80v-211q26 -30 99 -30q50 0 72 13t22 45v244z" />
    <glyph glyph-name="uni0635" unicode="&#x635;" horiz-adv-x="1175" 
d="M925 420q86 0 138 -54t52 -157q0 -110 -59.5 -159.5t-176.5 -49.5h-274q-28 -208 -287 -208q-79 0 -135.5 22t-87.5 62t-44.5 87t-13.5 105q0 54 11 110t25 87h80q-33 -95 -33 -190q0 -88 45.5 -139t158.5 -51t158.5 42t45.5 120v339h80v-71q81 37 119.5 53t97.5 34
t100 18zM879 93q83 0 118.5 23.5t35.5 87.5q0 62 -33 92.5t-89 30.5q-48 0 -116 -23.5t-187 -75.5v-135h271z" />
    <glyph glyph-name="uni0636" unicode="&#x636;" horiz-adv-x="1175" 
d="M711 595v-106h-79v106h79zM925 420q86 0 138 -54t52 -157q0 -110 -59.5 -159.5t-176.5 -49.5h-274q-28 -208 -287 -208q-79 0 -135.5 22t-87.5 62t-44.5 87t-13.5 105q0 54 11 110t25 87h80q-33 -95 -33 -190q0 -88 45.5 -139t158.5 -51t158.5 42t45.5 120v339h80v-71
q81 37 119.5 53t97.5 34t100 18zM879 93q83 0 118.5 23.5t35.5 87.5q0 62 -33 92.5t-89 30.5q-48 0 -116 -23.5t-187 -75.5v-135h271z" />
    <glyph glyph-name="uni0637" unicode="&#x637;" horiz-adv-x="754" 
d="M501 420q88 0 140.5 -55t52.5 -159q0 -108 -59.5 -157t-175.5 -49h-429v93h96v612h79v-384q155 70 211 86q48 13 85 13zM459 93q82 0 117.5 22.5t35.5 85.5q0 64 -33 95t-88 31q-33 0 -82 -14.5t-84.5 -29l-119.5 -50.5v-140h254z" />
    <glyph glyph-name="uni0638" unicode="&#x638;" horiz-adv-x="754" 
d="M501 420q88 0 140.5 -55t52.5 -159q0 -108 -59.5 -157t-175.5 -49h-429v93h96v612h79v-384q155 70 211 86q48 13 85 13zM517 625v-106h-79v106h79zM459 93q82 0 117.5 22.5t35.5 85.5q0 64 -33 95t-88 31q-33 0 -82 -14.5t-84.5 -29l-119.5 -50.5v-140h254z" />
    <glyph glyph-name="uni0639" unicode="&#x639;" horiz-adv-x="548" 
d="M272 -222h238v-93h-246q-239 0 -239 197q0 132 140 177q-50 25 -67.5 62.5t-17.5 96.5q0 101 61 153t157 52q94 0 157 -29l-23 -87q-70 22 -134 22q-68 0 -101.5 -29.5t-33.5 -81.5q0 -64 35 -94.5t122 -30.5h167v-93h-172q-66 0 -109.5 -9.5t-63.5 -27t-27 -34.5t-7 -41
q0 -110 164 -110z" />
    <glyph glyph-name="uni063A" unicode="&#x63a;" horiz-adv-x="548" 
d="M338 622v-106h-79v106h79zM272 -222h238v-93h-246q-239 0 -239 197q0 132 140 177q-50 25 -67.5 62.5t-17.5 96.5q0 101 61 153t157 52q94 0 157 -29l-23 -87q-70 22 -134 22q-68 0 -101.5 -29.5t-33.5 -81.5q0 -64 35 -94.5t122 -30.5h167v-93h-172q-66 0 -109.5 -9.5
t-63.5 -27t-27 -34.5t-7 -41q0 -110 164 -110z" />
    <glyph glyph-name="uni0640" unicode="&#x640;" horiz-adv-x="213" 
d="M0 93h213l17 -10v-73l-17 -10h-213l-17 10v73z" />
    <glyph glyph-name="uni0641" unicode="&#x641;" horiz-adv-x="937" 
d="M743 765v-106h-79v106h79zM876 520l1 -341q0 -92 -42.5 -135.5t-142.5 -43.5h-403q-144 0 -198 60.5t-54 180.5q0 81 30 163h79q-27 -81 -27 -154q0 -88 39 -122.5t131 -34.5h404q58 0 81 17t23 63v55q-40 -56 -136 -56q-89 0 -134.5 52.5t-45.5 128.5q0 95 62 154.5
t163 59.5q44 0 86.5 -11.5t63.5 -23.5zM679 265q86 0 118 41v143q-39 24 -99 24q-66 0 -100 -29.5t-34 -79.5q0 -43 29 -71t86 -28z" />
    <glyph glyph-name="uni0642" unicode="&#x642;" horiz-adv-x="783" 
d="M523 620v-106h-77v106h77zM651 620v-106h-76v106h76zM549 420q45 0 88.5 -11t64.5 -21l21 -11v-393q0 -106 -57.5 -156.5t-190.5 -50.5h-147q-89 0 -146.5 15.5t-89 51t-43.5 83t-12 121.5q0 100 33 184h79q-29 -85 -29 -177q0 -50 8 -82t30 -56.5t63.5 -35.5t106.5 -11
h150q92 0 129 24.5t37 91.5v76q-39 -62 -140 -62q-95 0 -141.5 56t-46.5 140q0 100 63.5 162t169.5 62zM521 94q92 0 123 46v165q-40 21 -103 21q-70 0 -106 -33t-36 -88q0 -49 31 -80t91 -31z" />
    <glyph glyph-name="uni0643" unicode="&#x643;" horiz-adv-x="858" 
d="M701 705h79v-519q0 -97 -53.5 -141.5t-161.5 -44.5h-274q-77 0 -128.5 15t-78 45.5t-37 68t-10.5 92.5q0 76 30 150h76q-27 -73 -27 -140q0 -77 40 -107.5t137 -30.5h281q61 0 94 17t33 68v527zM526 373q0 -90 -105 -90h-111v63h111q50 0 50 25q0 49 -142 49l-5 80
l181 90l12 -57l-126 -61q135 -9 135 -99z" />
    <glyph glyph-name="uni0644" unicode="&#x644;" horiz-adv-x="652" 
d="M303 -148q-266 0 -266 281q0 52 11 107t25 85h79q-32 -100 -32 -185q0 -91 41.5 -143t147.5 -52q104 0 145 45t41 129v586h79v-585q0 -121 -63.5 -194.5t-207.5 -73.5z" />
    <glyph glyph-name="uni0645" unicode="&#x645;" horiz-adv-x="703" 
d="M466 420q45 0 88.5 -12t64.5 -24l21 -11v-220q0 -74 -47.5 -123t-155.5 -49q-133 0 -183 99h-23q-72 -2 -95 -16.5t-23 -66.5v-296h-79v299q0 87 45 127.5t153 44.5v13q0 105 64 170t170 65zM560 148l1 155q-41 24 -103 24q-70 0 -106.5 -36t-36.5 -95q0 -54 32 -87.5
t95 -33.5q103 0 118 73z" />
    <glyph glyph-name="uni0646" unicode="&#x646;" horiz-adv-x="668" 
d="M286 411v106h79v-106h-79zM318 -211q-79 0 -135.5 22t-87.5 62t-44.5 87t-13.5 105q0 54 11 110t25 87h80q-33 -95 -33 -190q0 -88 45.5 -139t158.5 -51t158.5 42t45.5 120v350h80v-349q0 -117 -68.5 -186.5t-221.5 -69.5z" />
    <glyph glyph-name="uni0647" unicode="&#x647;" horiz-adv-x="504" 
d="M365 484h79q0 -78 -0.5 -186t-0.5 -112q0 -186 -201 -186q-105 0 -155 56t-50 142q0 102 65.5 164.5t175.5 62.5q44 0 87 -13v72zM245 93q120 0 120 81v146q-30 12 -96 12q-75 0 -112 -33.5t-37 -90.5q0 -115 125 -115z" />
    <glyph glyph-name="uni0648" unicode="&#x648;" horiz-adv-x="502" 
d="M271 420q45 0 88.5 -11t64.5 -21l21 -11v-409q0 -90 -42.5 -133.5t-140.5 -43.5h-190v94h192q57 0 79.5 18.5t22.5 69.5v89q-39 -62 -140 -62q-95 0 -141.5 55t-46.5 138q0 102 63.5 164.5t169.5 62.5zM243 94q92 0 123 46v165q-40 21 -103 21q-70 0 -106 -34t-36 -90
q0 -48 31 -78t91 -30z" />
    <glyph glyph-name="uni0649" unicode="&#x649;" horiz-adv-x="821" 
d="M397 -213q-109 0 -181.5 20.5t-110.5 62t-53 91.5t-15 121q0 55 10 111t24 85h79q-30 -94 -30 -187q0 -120 60 -165.5t223 -45.5q84 0 140.5 8t85 23.5t39 33t10.5 41.5q0 38 -15 55.5t-52 23.5l-108 17q-100 16 -136.5 55.5t-36.5 135.5q0 95 58.5 149t161.5 54
q104 0 177 -46l-27 -80q-76 33 -153 33q-69 0 -101.5 -26.5t-32.5 -83.5q0 -51 23.5 -70.5t89.5 -29.5l96 -14q77 -11 108 -48.5t31 -117.5q0 -101 -81.5 -153.5t-282.5 -52.5z" />
    <glyph glyph-name="uni064A" unicode="&#x64a;" horiz-adv-x="821" 
d="M397 -213q-109 0 -181.5 20.5t-110.5 62t-53 91.5t-15 121q0 55 10 111t24 85h79q-30 -94 -30 -187q0 -120 60 -165.5t223 -45.5q84 0 140.5 8t85 23.5t39 33t10.5 41.5q0 38 -15 55.5t-52 23.5l-108 17q-100 16 -136.5 55.5t-36.5 135.5q0 95 58.5 149t161.5 54
q104 0 177 -46l-27 -80q-76 33 -153 33q-69 0 -101.5 -26.5t-32.5 -83.5q0 -51 23.5 -70.5t89.5 -29.5l96 -14q77 -11 108 -48.5t31 -117.5q0 -101 -81.5 -153.5t-282.5 -52.5zM300 -404v106h76v-106h-76zM429 -404v106h76v-106h-76z" />
    <glyph glyph-name="uni064B" unicode="&#x64b;" 
d="M9 640l-8 44l242 50l9 -45zM9 541l-8 44l242 49l9 -45z" />
    <glyph glyph-name="uni064C" unicode="&#x64c;" 
d="M236 616q32 0 49.5 -22t17.5 -53q0 -43 -41.5 -77.5t-94.5 -34.5q-71 0 -71 75v26h-37v51l38 1q35 0 37 -41l1 -32q1 -18 8 -25.5t29 -7.5q12 0 32 4q-40 18 -40 61q0 30 19 52.5t53 22.5zM246 502q19 16 19 35q0 15 -9 23t-22 8t-22 -8.5t-9 -22.5q0 -25 43 -35z" />
    <glyph glyph-name="uni064D" unicode="&#x64d;" 
d="M28 106l-8 44l242 49l9 -45zM28 7l-8 44l242 49l9 -45z" />
    <glyph glyph-name="uni064E" unicode="&#x64e;" 
d="M47 541l-7 44l242 49l8 -45z" />
    <glyph glyph-name="uni064F" unicode="&#x64f;" 
d="M152 619q32 0 49.5 -22t17.5 -53q0 -50 -39 -76.5t-121 -51.5l-14 48q40 10 70 21q-35 17 -35 59q0 30 19 52.5t53 22.5zM159 505q22 16 22 35q0 30 -32 30q-13 0 -22 -8t-9 -21q0 -26 41 -36z" />
    <glyph glyph-name="uni0650" unicode="&#x650;" 
d="M47 57l-7 44l242 49l8 -45z" />
    <glyph glyph-name="uni0651" unicode="&#x651;" 
d="M255 587h42v-54q0 -82 -72 -82q-43 0 -55 29q-16 -29 -55 -29q-69 0 -69 75v61h42v-55q0 -30 30 -30q32 0 32 29v56h43v-56q0 -29 32 -29q30 0 30 30v55z" />
    <glyph glyph-name="uni0652" unicode="&#x652;" 
d="M129 437q-39 0 -64 24t-25 60q0 38 25 64t64 26q38 0 62.5 -26t24.5 -64q0 -36 -24.5 -60t-62.5 -24zM129 482q21 0 33.5 11t12.5 28q0 19 -12.5 31.5t-33.5 12.5q-22 0 -34.5 -12.5t-12.5 -31.5q0 -17 12.5 -28t34.5 -11z" />
    <glyph glyph-name="uni0653" unicode="&#x653;" 
d="M276 492l15 -45q-27 -25 -69 -25q-22 0 -55.5 12t-47.5 12q-29 0 -61 -20l-18 45q32 26 76 26q20 0 49 -12t50 -12q30 0 61 19z" />
    <glyph glyph-name="uni0654" unicode="&#x654;" 
d="M140 459h77v-51h-177v48h31q-16 18 -16 49q0 39 26.5 60.5t64.5 21.5q16 0 31 -3.5t23 -6.5l7 -3l-11 -43q-24 6 -50 6q-48 0 -48 -38q0 -21 9 -30.5t33 -9.5z" />
    <glyph glyph-name="uni0655" unicode="&#x655;" 
d="M140 459h77v-51h-177v48h31q-16 18 -16 49q0 39 26.5 60.5t64.5 21.5q16 0 31 -3.5t23 -6.5l7 -3l-11 -43q-24 6 -50 6q-48 0 -48 -38q0 -21 9 -30.5t33 -9.5z" />
    <glyph glyph-name="uni0656" unicode="&#x656;" 
d="M40 388v121h42v-121h-42z" />
    <glyph glyph-name="uni0660" unicode="&#x660;" horiz-adv-x="258" 
d="M78 206v141h102v-141h-102z" />
    <glyph glyph-name="uni0661" unicode="&#x661;" horiz-adv-x="242" 
d="M82 0v651h79v-651h-79z" />
    <glyph glyph-name="uni0662" unicode="&#x662;" horiz-adv-x="504" 
d="M244 651h210v-93h-211q-49 0 -69 -14.5t-20 -43.5q0 -25 14 -76l104 -414l-82 -15l-107 421q-15 62 -15 97q0 70 42.5 104t133.5 34z" />
    <glyph glyph-name="uni0663" unicode="&#x663;" horiz-adv-x="656" 
d="M533 651h79v-151q0 -74 -38.5 -113t-107.5 -39q-86 0 -117 48q-25 -47 -114 -47h-59l37 -349h-81l-70 651h82l22 -209h69q40 0 57 15t17 47v147h79v-150q0 -61 75 -61q70 0 70 62v149z" />
    <glyph glyph-name="uni0664" unicode="&#x664;" horiz-adv-x="528" 
d="M479 93l1 -93h-220q-104 0 -151 43.5t-47 134.5q0 101 83 146q-37 21 -53 50.5t-16 90.5q0 186 209 186h164v-92h-167q-126 0 -126 -94q0 -86 84 -86h209l1 -93h-202q-107 0 -107 -97q0 -96 122 -96h216z" />
    <glyph glyph-name="uni0665" unicode="&#x665;" horiz-adv-x="597" 
d="M298 -10q-136 0 -191 71t-55 206q0 175 65.5 258.5t181.5 83.5q115 0 180.5 -81t65.5 -251q0 -140 -55 -213.5t-192 -73.5zM298 83q95 0 131.5 47t36.5 146q0 241 -167 241q-168 0 -168 -245q0 -97 36.5 -143t130.5 -46z" />
    <glyph glyph-name="uni0666" unicode="&#x666;" horiz-adv-x="474" 
d="M396 515v-515h-79v500q0 31 -17.5 45t-58.5 14h-213v92h222q77 0 111.5 -32.5t34.5 -103.5z" />
    <glyph glyph-name="uni0667" unicode="&#x667;" horiz-adv-x="585" 
d="M468 651h82l-193 -651h-114l-208 651h82l183 -565z" />
    <glyph glyph-name="uni0668" unicode="&#x668;" horiz-adv-x="585" 
d="M550 0h-82l-168 565l-183 -565h-82l208 651h114z" />
    <glyph glyph-name="uni0669" unicode="&#x669;" horiz-adv-x="502" 
d="M266 651q44 0 86.5 -7.5t63.5 -14.5l21 -7v-622h-79v276q-41 -29 -125 -29q-98 0 -146.5 53t-48.5 132q0 98 62.5 158.5t165.5 60.5zM240 339q77 0 118 17v191q-40 12 -100 12q-68 0 -103 -32t-35 -86q0 -45 30.5 -73.5t89.5 -28.5z" />
    <glyph glyph-name="uni066A" unicode="&#x66a;" horiz-adv-x="697" 
d="M168 482q-62 0 -103 40t-41 101q0 60 41 100.5t103 40.5q63 0 104 -40.5t41 -100.5q0 -61 -41 -101t-104 -40zM63 0l497 750h76l-497 -750h-76zM168 537q37 0 61 24.5t24 61.5q0 36 -24 60t-61 24t-61 -24t-24 -60q0 -37 24 -61.5t61 -24.5zM529 -14q-62 0 -103 40
t-41 101q0 60 41 100.5t103 40.5t103 -40.5t41 -100.5q0 -61 -40.5 -101t-103.5 -40zM529 41q37 0 61 24.5t24 61.5q0 36 -24 60.5t-61 24.5t-61 -24.5t-24 -60.5q0 -37 24 -61.5t61 -24.5z" />
    <glyph glyph-name="uni066B" unicode="&#x66b;" horiz-adv-x="242" 
d="M87 -145h-68l78 281h95z" />
    <glyph glyph-name="uni066C" unicode="&#x66c;" horiz-adv-x="242" 
d="M87 -145h-68l78 281h95z" />
    <glyph glyph-name="uni066D" unicode="&#x66d;" horiz-adv-x="600" 
d="M302 670l-106 -57l105 -57l-20 -34l-102 61l3 -117h-42l5 117l-102 -61l-22 36l111 55l-107 58l19 34l101 -63l-3 115h42l-4 -116l103 62z" />
    <glyph glyph-name="uni066E" unicode="&#x66e;" horiz-adv-x="880" 
d="M291 0q-77 0 -128.5 15t-78 45.5t-37 68t-10.5 92.5q0 76 30 150h76q-27 -73 -27 -140q0 -77 40 -107.5t137 -30.5h321q61 0 94 17t33 68v219h79v-211q0 -97 -53.5 -141.5t-161.5 -44.5h-314z" />
    <glyph glyph-name="uni066F" unicode="&#x66f;" horiz-adv-x="783" 
d="M549 420q45 0 88.5 -11t64.5 -21l21 -11v-393q0 -106 -57.5 -156.5t-190.5 -50.5h-147q-89 0 -146.5 15.5t-89 51t-43.5 83t-12 121.5q0 100 33 184h79q-29 -85 -29 -177q0 -50 8 -82t30 -56.5t63.5 -35.5t106.5 -11h150q92 0 129 24.5t37 91.5v76q-39 -62 -140 -62
q-95 0 -141.5 56t-46.5 140q0 100 63.5 162t169.5 62zM521 94q92 0 123 46v165q-40 21 -103 21q-70 0 -106 -33t-36 -88q0 -49 31 -80t91 -31z" />
    <glyph glyph-name="uni0670" unicode="&#x670;" 
d="M40 388v121h42v-121h-42z" />
    <glyph glyph-name="uni0671" unicode="&#x671;" horiz-adv-x="235" 
d="M78 0v613h79v-613h-79z" />
    <glyph glyph-name="uni06A1" unicode="&#x6a1;" horiz-adv-x="937" 
d="M876 520l1 -341q0 -92 -42.5 -135.5t-142.5 -43.5h-403q-144 0 -198 60.5t-54 180.5q0 81 30 163h79q-27 -81 -27 -154q0 -88 39 -122.5t131 -34.5h404q58 0 81 17t23 63v55q-40 -56 -136 -56q-89 0 -134.5 52.5t-45.5 128.5q0 95 62 154.5t163 59.5q44 0 86.5 -11.5
t63.5 -23.5zM679 265q86 0 118 41v143q-39 24 -99 24q-66 0 -100 -29.5t-34 -79.5q0 -43 29 -71t86 -28z" />
    <glyph glyph-name="uni06A4" unicode="&#x6a4;" horiz-adv-x="937" 
d="M746 902v-103h-79v103h79zM678 763v-106h-76v106h76zM733 657v106h76v-106h-76zM876 520l1 -341q0 -92 -42.5 -135.5t-142.5 -43.5h-403q-144 0 -198 60.5t-54 180.5q0 81 30 163h79q-27 -81 -27 -154q0 -88 39 -122.5t131 -34.5h404q58 0 81 17t23 63v55
q-40 -56 -136 -56q-89 0 -134.5 52.5t-45.5 128.5q0 95 62 154.5t163 59.5q44 0 86.5 -11.5t63.5 -23.5zM679 265q86 0 118 41v143q-39 24 -99 24q-66 0 -100 -29.5t-34 -79.5q0 -43 29 -71t86 -28z" />
    <glyph glyph-name="uni06BA" unicode="&#x6ba;" horiz-adv-x="668" 
d="M318 -211q-79 0 -135.5 22t-87.5 62t-44.5 87t-13.5 105q0 54 11 110t25 87h80q-33 -95 -33 -190q0 -88 45.5 -139t158.5 -51t158.5 42t45.5 120v350h80v-349q0 -117 -68.5 -186.5t-221.5 -69.5z" />
    <glyph glyph-name="Wgrave" unicode="&#x1e80;" horiz-adv-x="1058" 
d="M670 881v-47l-304 42v47zM929 750h98l-218 -750h-117l-163 579l-162 -579h-117l-218 750h97l178 -630h3l171 602h96l171 -602h4z" />
    <glyph glyph-name="wgrave" unicode="&#x1e81;" horiz-adv-x="765" 
d="M426 619h-82l-118 133h96zM652 510h89l-135 -510h-119l-104 364l-105 -364h-118l-136 510h89l108 -421h3l118 399h81l119 -399h3z" />
    <glyph glyph-name="Wacute" unicode="&#x1e82;" horiz-adv-x="1058" 
d="M717 923v-47l-304 -42v47zM929 750h98l-218 -750h-117l-163 579l-162 -579h-117l-218 750h97l178 -630h3l171 602h96l171 -602h4z" />
    <glyph glyph-name="wacute" unicode="&#x1e83;" horiz-adv-x="765" 
d="M532 752l-118 -133h-82l103 133h97zM652 510h89l-135 -510h-119l-104 364l-105 -364h-118l-136 510h89l108 -421h3l118 399h81l119 -399h3z" />
    <glyph glyph-name="Wdieresis" unicode="&#x1e84;" horiz-adv-x="1058" 
d="M486 903v-46h-132v46h132zM703 903v-46h-132v46h132zM929 750h98l-218 -750h-117l-163 579l-162 -579h-117l-218 750h97l178 -630h3l171 602h96l171 -602h4z" />
    <glyph glyph-name="wdieresis" unicode="&#x1e85;" horiz-adv-x="765" 
d="M315 750v-134h-80v134h80zM529 750v-134h-79v134h79zM652 510h89l-135 -510h-119l-104 364l-105 -364h-118l-136 510h89l108 -421h3l118 399h81l119 -399h3z" />
    <glyph glyph-name="uni1E9E" unicode="&#x1e9e;" horiz-adv-x="711" 
d="M442 455q119 -5 180.5 -71.5t61.5 -167.5q0 -107 -63 -168.5t-175 -61.5q-98 0 -154.5 47.5t-64.5 128.5h99q16 -96 124 -96q63 0 99 39.5t36 109.5t-41 114.5t-132 44.5h-118l196 296h-206q-58 0 -93.5 -37.5t-35.5 -108.5v-524h-96v530q0 106 55 163t149 57h380z" />
    <glyph glyph-name="Ygrave" unicode="&#x1ef2;" horiz-adv-x="636" 
d="M445 881v-47l-304 42v47zM610 750l-244 -499v-251h-95v253l-243 497h99l190 -400h3l191 400h99z" />
    <glyph glyph-name="ygrave" unicode="&#x1ef3;" horiz-adv-x="505" 
d="M296 619h-82l-118 133h96zM391 510h91l-216 -600q-21 -57 -52 -83.5t-88 -26.5h-86v80h80q27 0 42.5 12t25.5 39l26 71l-190 508h91l139 -394h3z" />
    <glyph glyph-name="endash" unicode="&#x2013;" horiz-adv-x="723" 
d="M105 243v65h513v-65h-513z" />
    <glyph glyph-name="emdash" unicode="&#x2014;" horiz-adv-x="1298" 
d="M253 243v65h792v-65h-792z" />
    <glyph glyph-name="quoteleft" unicode="&#x2018;" horiz-adv-x="242" 
d="M19 469l104 281h69l-77 -281h-96z" />
    <glyph glyph-name="quoteright" unicode="&#x2019;" horiz-adv-x="242" 
d="M87 469h-68l78 281h95z" />
    <glyph glyph-name="quotesinglbase" unicode="&#x201a;" horiz-adv-x="242" 
d="M87 -145h-68l78 281h95z" />
    <glyph glyph-name="quotedblleft" unicode="&#x201c;" horiz-adv-x="407" 
d="M19 469l104 281h69l-77 -281h-96zM184 469l105 281h69l-79 -281h-95z" />
    <glyph glyph-name="quotedblright" unicode="&#x201d;" horiz-adv-x="407" 
d="M87 469h-68l78 281h95zM253 469h-69l78 281h96z" />
    <glyph glyph-name="quotedblbase" unicode="&#x201e;" horiz-adv-x="407" 
d="M87 -145h-68l78 281h95zM253 -145h-69l78 281h96z" />
    <glyph glyph-name="dagger" unicode="&#x2020;" horiz-adv-x="863" 
d="M60 0v750h743v-750h-743zM133 69h598v612h-598v-612zM537 217l-109 109l-110 -110l-42 44l109 109l-109 109l42 43l110 -109l109 108l43 -42l-109 -109l109 -109z" />
    <glyph glyph-name="daggerdbl" unicode="&#x2021;" horiz-adv-x="477" 
d="M209 0l-8 35l-5 115h-159v67h159v224h-159v69h159l5 114l7 35h54l8 -35l6 -114h165v-69h-166v-224h166v-67h-165l-5 -115l-9 -35h-53z" />
    <glyph glyph-name="bullet" unicode="&#x2022;" horiz-adv-x="347" 
d="M174 200q-38 0 -64.5 26t-26.5 64t26.5 64t64.5 26t64 -26t26 -64t-26 -64t-64 -26z" />
    <glyph glyph-name="ellipsis" unicode="&#x2026;" horiz-adv-x="560" 
d="M151 0h-86v136h86v-136zM323 0h-86v136h86v-136zM496 0h-87v136h87v-136z" />
    <glyph glyph-name="perthousand" unicode="&#x2030;" horiz-adv-x="824" 
d="M247 554q0 -47 -31.5 -78.5t-80.5 -31.5q-47 0 -79 31.5t-32 78.5v92q0 47 32 78.5t79 31.5q49 0 80.5 -31.5t31.5 -78.5v-92zM176 0h-55l263 750h55zM83 552q0 -24 15 -39t37 -15q23 0 38 15t15 39v95q0 24 -15 39.5t-38 15.5q-22 0 -37 -15.5t-15 -39.5v-95zM536 103
q0 -47 -31.5 -78t-80.5 -31q-48 0 -79.5 31t-31.5 78v93q0 47 31.5 78.5t79.5 31.5q49 0 80.5 -31.5t31.5 -78.5v-93zM801 103q0 -47 -31.5 -78t-80.5 -31q-48 0 -80 31t-32 78v93q0 47 32 78.5t80 31.5q49 0 80.5 -31.5t31.5 -78.5v-93zM373 102q0 -24 14.5 -39t36.5 -15
q23 0 38 15t15 39v95q0 23 -15 39t-38 16q-22 0 -36.5 -16t-14.5 -39v-95zM636 102q0 -24 15 -39t38 -15t37.5 15t14.5 39v95q0 24 -14.5 39.5t-37.5 15.5q-22 0 -37.5 -16t-15.5 -39v-95z" />
    <glyph glyph-name="guilsinglleft" unicode="&#x2039;" horiz-adv-x="319" 
d="M194 42l-168 200v7l168 200h96l-170 -203l170 -204h-96z" />
    <glyph glyph-name="guilsinglright" unicode="&#x203a;" horiz-adv-x="319" 
d="M126 42h-97l171 204l-171 203h97l168 -200v-7z" />
    <glyph glyph-name="fraction" unicode="&#x2044;" horiz-adv-x="563" 
d="M12 0l477 750h62l-478 -750h-61z" />
    <glyph glyph-name="zero.sups" unicode="&#x2070;" horiz-adv-x="270" 
d="M135 443q-49 0 -78.5 31t-29.5 79v92q0 48 29.5 79.5t78.5 31.5t78.5 -31.5t29.5 -79.5v-92q0 -48 -29.5 -79t-78.5 -31zM135 500q21 0 33 14t12 37v97q0 22 -12 36.5t-33 14.5t-33 -14.5t-12 -36.5v-97q0 -23 12 -37t33 -14z" />
    <glyph glyph-name="four.sups" unicode="&#x2074;" horiz-adv-x="283" 
d="M262 578v-51h-37v-78h-66v78h-136v46l136 177h66v-172h37zM82 578h77v99z" />
    <glyph glyph-name="five.sups" unicode="&#x2075;" horiz-adv-x="262" 
d="M133 443q-48 0 -78 26t-30 64q0 8 2 14h62v-4q0 -19 12.5 -31t31.5 -12q22 0 34.5 13.5t12.5 34.5t-11.5 35t-34.5 14q-26 0 -39 -20h-63l23 173h170v-59h-120l-12 -76q22 27 58 27q42 0 66.5 -26.5t24.5 -68.5q0 -47 -30 -75.5t-79 -28.5z" />
    <glyph glyph-name="six.sups" unicode="&#x2076;" horiz-adv-x="263" 
d="M144 641q45 0 73.5 -28t28.5 -68q0 -44 -31.5 -73t-79.5 -29t-79.5 28t-31.5 71q0 32 16 57l93 151h78l-69 -109h2zM135 500q21 0 35 12.5t14 31.5q0 20 -14 33t-35 13t-34.5 -13t-13.5 -33q0 -19 13.5 -31.5t34.5 -12.5z" />
    <glyph glyph-name="seven.sups" unicode="&#x2077;" horiz-adv-x="243" 
d="M21 750h204v-56l-108 -245h-71l112 242h-137v59z" />
    <glyph glyph-name="eight.sups" unicode="&#x2078;" horiz-adv-x="261" 
d="M194 612q45 -26 45 -75q0 -40 -30.5 -67t-78.5 -27q-47 0 -77.5 27t-30.5 67q0 49 45 75q-31 23 -31 60q0 36 26 60t68 24t68 -24t26 -60q0 -38 -30 -60zM130 706q-16 0 -27 -10.5t-11 -25.5q0 -16 10.5 -26.5t27.5 -10.5q18 0 28.5 10.5t10.5 26.5q0 15 -11 25.5
t-28 10.5zM130 498q21 0 35 12t14 31q0 20 -13.5 32.5t-35.5 12.5q-20 0 -34 -13t-14 -32q0 -18 14 -30.5t34 -12.5z" />
    <glyph glyph-name="nine.sups" unicode="&#x2079;" horiz-adv-x="265" 
d="M132 756q48 0 79.5 -29t31.5 -73q0 -29 -16 -54l-93 -151h-78l68 106q-46 0 -74.5 29t-28.5 69q0 44 31 73.5t80 29.5zM131 607q21 0 35 13.5t14 32.5q0 20 -14 33t-35 13t-34.5 -13t-13.5 -33q0 -19 13.5 -32.5t34.5 -13.5z" />
    <glyph glyph-name="Euro" unicode="&#x20ac;" horiz-adv-x="561" 
d="M413 764q68 0 119 -25v-93q-46 28 -117 28q-96 0 -159.5 -57t-76.5 -159h272v-50h-451v50h82q13 139 104.5 222.5t226.5 83.5zM179 293q12 -103 76 -160.5t160 -57.5q69 0 117 29v-94q-49 -24 -119 -24q-135 0 -226.5 83.5t-104.5 223.5h-82v49h451v-49h-272z" />
    <glyph glyph-name="uni2116" unicode="&#x2116;" horiz-adv-x="1040" 
d="M873 482q-62 0 -103.5 40.5t-41.5 100.5t41.5 100.5t103.5 40.5t103 -40.5t41 -100.5t-40.5 -100.5t-103.5 -40.5zM80 0v750h103l359 -599h3v599h90v-750h-102l-360 599h-3v-599h-90zM873 534q38 0 63 25.5t25 63.5q0 37 -25 62t-63 25t-63 -25t-25 -62q0 -38 25 -63.5
t63 -25.5zM756 352v53h233v-53h-233z" />
    <glyph glyph-name="uni2117" unicode="&#x2117;" horiz-adv-x="896" 
d="M448 764q160 0 272.5 -114.5t112.5 -275.5q0 -162 -112 -275t-273 -113q-160 0 -272.5 113t-112.5 275q0 161 113 275.5t272 114.5zM448 55q130 0 220 93t90 226q0 134 -90 227.5t-220 93.5q-129 0 -219 -93.5t-90 -227.5t89.5 -226.5t219.5 -92.5zM480 598
q81 0 125 -42.5t44 -106.5t-44 -107t-124 -43h-102v-154h-71v453h172zM476 360q52 0 77.5 23.5t25.5 65.5q0 41 -25.5 64.5t-76.5 23.5h-98v-177h97z" />
    <glyph glyph-name="uni2120" unicode="&#x2120;" horiz-adv-x="803" 
d="M181 380q-66 0 -105.5 34t-41.5 93h60q1 -37 25 -57.5t63 -20.5q34 0 55 17t21 42q0 55 -88 59q-125 8 -125 102q0 47 35 76.5t92 29.5q61 0 97 -29t40 -83h-59q-8 64 -78 64q-30 0 -48.5 -15.5t-18.5 -39.5q0 -29 19.5 -42t67.5 -14q125 -5 125 -105q0 -50 -37 -80.5
t-99 -30.5zM363 387v363h93l99 -281h2l99 281h92v-363h-65v279h-2l-99 -277h-53l-99 277h-1v-279h-66z" />
    <glyph glyph-name="trademark" unicode="&#x2122;" horiz-adv-x="770" 
d="M115 387v310h-104v53h273v-53h-104v-310h-65zM330 387v363h93l99 -281h1l99 281h93v-363h-66v279h-1l-100 -277h-52l-99 277h-1v-279h-66z" />
    <glyph glyph-name="uni2150" unicode="&#x2150;" horiz-adv-x="555" 
d="M489 750h62l-478 -750h-61zM121 449v233l-71 -37v62l79 43h56v-301h-64zM333 242v59h204v-56l-108 -245h-71l112 242h-137z" />
    <glyph glyph-name="uni2151" unicode="&#x2151;" horiz-adv-x="577" 
d="M489 750h62l-478 -750h-61zM121 449v233l-71 -37v62l79 43h56v-301h-64zM444 307q48 0 79.5 -29t31.5 -73q0 -29 -16 -54l-93 -151h-78l68 106q-46 0 -74.5 29t-28.5 69q0 44 31 73.5t80 29.5zM443 158q21 0 35 13.5t14 32.5q0 20 -14 33t-35 13t-34.5 -13t-13.5 -33
q0 -19 13.5 -32.5t34.5 -13.5z" />
    <glyph glyph-name="uni2153" unicode="&#x2153;" horiz-adv-x="572" 
d="M489 750h62l-478 -750h-61zM121 449v233l-71 -37v62l79 43h56v-301h-64zM509 165q43 -27 43 -76q0 -40 -30.5 -67.5t-78.5 -27.5q-47 0 -77 26.5t-30 65.5v12h63v-7q0 -18 13 -29t32 -11t31.5 11.5t12.5 30.5t-13 31.5t-32 12.5h-12v50h12q16 0 26.5 9.5t10.5 24.5
t-10.5 24.5t-25.5 9.5q-16 0 -26 -9t-10 -25v-6h-58v12q0 34 26 57t67 23q42 0 68 -24t26 -60q0 -35 -28 -58z" />
    <glyph glyph-name="uni2154" unicode="&#x2154;" horiz-adv-x="606" 
d="M233 506v-57h-204v38l119 133q18 20 18 41q0 17 -10 28t-28 11q-19 0 -29.5 -11t-10.5 -27v-4h-58v4q0 41 26 67.5t72 26.5t72.5 -26t26.5 -65q0 -36 -33 -74l-76 -85h115zM523 750h62l-478 -750h-61zM543 165q43 -27 43 -76q0 -40 -30.5 -67.5t-78.5 -27.5
q-47 0 -77 26.5t-30 65.5v12h63v-7q0 -18 13 -29t32 -11t31.5 11.5t12.5 30.5t-13 31.5t-32 12.5h-12v50h12q16 0 26.5 9.5t10.5 24.5t-10.5 24.5t-25.5 9.5q-16 0 -26 -9t-10 -25v-6h-58v12q0 34 26 57t67 23q42 0 68 -24t26 -60q0 -35 -28 -58z" />
    <glyph glyph-name="uni2155" unicode="&#x2155;" horiz-adv-x="574" 
d="M489 750h62l-478 -750h-61zM121 449v233l-71 -37v62l79 43h56v-301h-64zM463 193q42 0 66.5 -26.5t24.5 -68.5q0 -47 -30 -75.5t-79 -28.5q-48 0 -78 26t-30 64q0 8 2 14h62v-4q0 -19 12.5 -31t31.5 -12q22 0 34.5 13.5t12.5 34.5t-11.5 35t-34.5 14q-26 0 -39 -20h-63
l23 173h170v-59h-120l-12 -76q22 27 58 27z" />
    <glyph glyph-name="uni2156" unicode="&#x2156;" horiz-adv-x="608" 
d="M233 506v-57h-204v38l119 133q18 20 18 41q0 17 -10 28t-28 11q-19 0 -29.5 -11t-10.5 -27v-4h-58v4q0 41 26 67.5t72 26.5t72.5 -26t26.5 -65q0 -36 -33 -74l-76 -85h115zM523 750h62l-478 -750h-61zM497 193q42 0 66.5 -26.5t24.5 -68.5q0 -47 -30 -75.5t-79 -28.5
q-48 0 -78 26t-30 64q0 8 2 14h62v-4q0 -19 12.5 -31t31.5 -12q22 0 34.5 13.5t12.5 34.5t-11.5 35t-34.5 14q-26 0 -39 -20h-63l23 173h170v-59h-120l-12 -76q22 27 58 27z" />
    <glyph glyph-name="uni2157" unicode="&#x2157;" horiz-adv-x="613" 
d="M240 538q0 -40 -30.5 -67.5t-78.5 -27.5q-47 0 -77 26.5t-30 65.5v12h63v-7q0 -18 13 -29t32 -11t31.5 11.5t12.5 30.5t-13 31.5t-32 12.5h-12v50h12q16 0 26.5 9.5t10.5 24.5t-10.5 24.5t-25.5 9.5q-16 0 -26 -9t-10 -25v-6h-58v12q0 34 26 57t67 23q42 0 68 -24t26 -60
q0 -35 -28 -58q43 -27 43 -76zM528 750h62l-478 -750h-61zM502 193q42 0 66.5 -26.5t24.5 -68.5q0 -47 -30 -75.5t-79 -28.5q-48 0 -78 26t-30 64q0 8 2 14h62v-4q0 -19 12.5 -31t31.5 -12q22 0 34.5 13.5t12.5 34.5t-11.5 35t-34.5 14q-26 0 -39 -20h-63l23 173h170v-59
h-120l-12 -76q22 27 58 27z" />
    <glyph glyph-name="uni2158" unicode="&#x2158;" horiz-adv-x="636" 
d="M159 449v78h-136v46l136 177h66v-172h37v-51h-37v-78h-66zM551 750h62l-478 -750h-61zM82 578h77v99zM525 193q42 0 66.5 -26.5t24.5 -68.5q0 -47 -30 -75.5t-79 -28.5q-48 0 -78 26t-30 64q0 8 2 14h62v-4q0 -19 12.5 -31t31.5 -12q22 0 34.5 13.5t12.5 34.5t-11.5 35
t-34.5 14q-26 0 -39 -20h-63l23 173h170v-59h-120l-12 -76q22 27 58 27z" />
    <glyph glyph-name="uni2159" unicode="&#x2159;" horiz-adv-x="563" 
d="M489 750h62l-478 -750h-61zM121 449v233l-71 -37v62l79 43h56v-301h-64zM444 192q45 0 73.5 -28t28.5 -68q0 -44 -31.5 -73t-79.5 -29t-79.5 28t-31.5 71q0 32 16 57l93 151h78l-69 -109h2zM435 51q21 0 35 12.5t14 31.5q0 20 -14 33t-35 13t-34.5 -13t-13.5 -33
q0 -19 13.5 -31.5t34.5 -12.5z" />
    <glyph glyph-name="oneeighth" unicode="&#x215b;" horiz-adv-x="573" 
d="M489 750h62l-478 -750h-61zM121 449v233l-71 -37v62l79 43h56v-301h-64zM506 163q45 -26 45 -75q0 -40 -30.5 -67t-78.5 -27q-47 0 -77.5 27t-30.5 67q0 49 45 75q-31 23 -31 60q0 36 26 60t68 24t68 -24t26 -60q0 -37 -30 -60zM442 257q-16 0 -27 -10.5t-11 -25.5
q0 -16 10.5 -26.5t27.5 -10.5q18 0 28.5 10.5t10.5 26.5q0 15 -11 25.5t-28 10.5zM442 49q21 0 35 12t14 31q0 20 -13.5 32.5t-35.5 12.5q-20 0 -34 -13t-14 -32q0 -18 14 -30.5t34 -12.5z" />
    <glyph glyph-name="arrowleft" unicode="&#x2190;" horiz-adv-x="670" 
d="M609 291v-69h-426l157 -193h-95l-184 226v4l184 224h95l-157 -192h426z" />
    <glyph glyph-name="arrowup" unicode="&#x2191;" horiz-adv-x="524" 
d="M489 339v-95l-192 156v-400h-70v400l-191 -156v95l224 184h3z" />
    <glyph glyph-name="arrowright" unicode="&#x2192;" horiz-adv-x="670" 
d="M426 483l183 -224v-4l-183 -226h-96l157 193h-426v69h426l-157 192h96z" />
    <glyph glyph-name="arrowdown" unicode="&#x2193;" horiz-adv-x="524" 
d="M297 109l192 156v-95l-226 -184h-3l-224 184v95l191 -156v401h70v-401z" />
    <glyph glyph-name="arrowboth" unicode="&#x2194;" horiz-adv-x="901" 
d="M656 483l184 -224v-4l-184 -226h-95l157 193h-535l157 -193h-95l-184 226v4l184 224h95l-157 -192h535l-157 192h95z" />
    <glyph glyph-name="arrowupdn" unicode="&#x2195;" horiz-adv-x="529" 
d="M488 315l-185 102v-326l185 103v-85l-223 -123h-3l-221 124v84l185 -103v326l-185 -102v85l221 123h3l223 -123v-85z" />
    <glyph glyph-name="uni2196" unicode="&#x2196;" horiz-adv-x="601" 
d="M591 0h-100l-387 387v-182h-74v301l3 4h305v-70h-186z" />
    <glyph glyph-name="uni2197" unicode="&#x2197;" horiz-adv-x="601" 
d="M568 510l3 -4v-301h-74v182l-388 -387h-99l440 440h-187v70h305z" />
    <glyph glyph-name="uni2198" unicode="&#x2198;" horiz-adv-x="601" 
d="M497 304h74v-301l-3 -3h-305v69h188l-441 441h99l388 -388v182z" />
    <glyph glyph-name="uni2199" unicode="&#x2199;" horiz-adv-x="601" 
d="M591 510l-440 -441h187v-69h-305l-3 3v301h74v-182l387 388h100z" />
    <glyph glyph-name="minus" unicode="&#x2212;" horiz-adv-x="610" 
d="M114 334v65h382v-65h-382z" />
    <glyph glyph-name="infinity" unicode="&#x221e;" horiz-adv-x="808" 
d="M615 520q75 0 123.5 -46t48.5 -114q0 -70 -47.5 -115t-122.5 -45q-81 0 -154 71l-49 50l-50 -50q-73 -71 -153 -71q-76 0 -123 45t-47 115q0 68 48.5 114t123.5 46q86 0 151 -69l50 -52l49 52q67 69 152 69zM326 319l40 41l-40 43q-51 56 -109 56q-47 0 -76.5 -28.5
t-29.5 -70.5t29 -69.5t75 -27.5q57 0 111 56zM612 263q47 0 76 27.5t29 69.5t-29.5 70.5t-76.5 28.5q-59 0 -110 -56l-40 -43l40 -41q56 -56 111 -56z" />
    <glyph glyph-name="approxequal" unicode="&#x2248;" horiz-adv-x="479" 
d="M429 518q0 -136 -108 -136q-31 0 -59.5 20t-53 40t-43.5 20q-47 0 -47 -66h-68q0 136 108 136q30 0 58.5 -20t52.5 -40t45 -20q47 0 47 66h68zM429 346q0 -137 -108 -137q-31 0 -59.5 20.5t-53 40.5t-43.5 20q-47 0 -47 -67h-68q0 137 108 137q30 0 58.5 -20t52.5 -40
t45 -20q47 0 47 66h68z" />
    <glyph glyph-name="notequal" unicode="&#x2260;" horiz-adv-x="610" 
d="M496 417h-147l-23 -109h170v-60h-182l-26 -124h-64l26 124h-136v60h148l23 109h-171v61h183l26 123h64l-26 -123h135v-61z" />
    <glyph glyph-name="lessequal" unicode="&#x2264;" horiz-adv-x="609" 
d="M523 620v-67l-352 -128l352 -128v-70l-437 164v65zM86 261v66l437 -162v-68z" />
    <glyph glyph-name="greaterequal" unicode="&#x2265;" horiz-adv-x="609" 
d="M86 620l437 -164v-65l-437 -164v70l352 128l-352 128v67zM86 97v68l437 162v-66z" />
    <glyph glyph-name="uni22A0" unicode="&#x22a0;" horiz-adv-x="863" 
d="M803 0h-743v750h743v-750zM133 681v-612h598v612h-598zM580 260l-43 -43l-109 109l-110 -110l-42 44l109 109l-109 109l42 43l110 -109l109 108l43 -42l-109 -109z" />
    <glyph glyph-name="house" unicode="&#x2302;" horiz-adv-x="831" 
d="M100 0v271l315 252l316 -252v-271h-631z" />
    <glyph glyph-name="uni24FF" unicode="&#x24ff;" horiz-adv-x="896" 
d="M448 -14q-160 0 -272.5 113t-112.5 275q0 161 113 275.5t272 114.5q160 0 272.5 -114.5t112.5 -275.5q0 -162 -112 -275t-273 -113zM448 218q49 0 78.5 31t29.5 79v92q0 48 -29.5 79.5t-78.5 31.5t-78.5 -31.5t-29.5 -79.5v-92q0 -48 29.5 -79t78.5 -31zM448 275
q-21 0 -33 14t-12 37v97q0 22 12 36.5t33 14.5q20 0 32 -14.5t12 -36.5v-97q0 -23 -11.5 -37t-32.5 -14z" />
    <glyph glyph-name="filledbox" unicode="&#x25a0;" horiz-adv-x="863" 
d="M60 0v750h743v-750h-743z" />
    <glyph glyph-name="uni25A1" unicode="&#x25a1;" horiz-adv-x="863" 
d="M803 0h-743v750h743v-750zM133 681v-612h598v612h-598z" />
    <glyph glyph-name="uni25AA" unicode="&#x25aa;" horiz-adv-x="624" 
d="M60 0v510h504v-510h-504z" />
    <glyph glyph-name="uni25AB" unicode="&#x25ab;" horiz-adv-x="624" 
d="M60 0v510h504v-510h-504zM130 66h365v378h-365v-378z" />
    <glyph glyph-name="triagup" unicode="&#x25b2;" horiz-adv-x="589" 
d="M50 0l240 520h10l240 -520h-490z" />
    <glyph glyph-name="triagrt" unicode="&#x25ba;" horiz-adv-x="550" 
d="M84 -12v532h8l413 -256v-10l-413 -266h-8z" />
    <glyph glyph-name="triagdn" unicode="&#x25bc;" horiz-adv-x="589" 
d="M50 510h490l-240 -522h-10z" />
    <glyph glyph-name="triaglf" unicode="&#x25c4;" horiz-adv-x="550" 
d="M467 -12h-8l-413 266v10l413 256h8v-532z" />
    <glyph glyph-name="circle" unicode="&#x25cb;" horiz-adv-x="896" 
d="M448 -14q-160 0 -272.5 113t-112.5 275q0 161 113 275.5t272 114.5q160 0 272.5 -114.5t112.5 -275.5q0 -162 -112 -275t-273 -113zM448 59q128 0 217 92t89 223q0 132 -89 224t-217 92t-216.5 -92t-88.5 -224t88.5 -223.5t216.5 -91.5z" />
    <glyph glyph-name="uni25CF" unicode="&#x25cf;" horiz-adv-x="896" 
d="M448 -14q-160 0 -272.5 113t-112.5 275q0 161 113 275.5t272 114.5q160 0 272.5 -114.5t112.5 -275.5q0 -162 -112 -275t-273 -113z" />
    <glyph glyph-name="uni2612" unicode="&#x2612;" horiz-adv-x="624" 
d="M60 510h504v-510h-504v510zM495 66v378h-365v-378h365zM220 132l-32 32l92 92l-92 92l32 32l92 -92l91 91l32 -31l-92 -92l92 -92l-32 -32l-91 92z" />
    <glyph glyph-name="uni26AB" unicode="&#x26ab;" horiz-adv-x="646" 
d="M323 -14q-111 0 -189.5 79t-78.5 189q0 112 78 190.5t190 78.5t190 -78.5t78 -190.5q0 -110 -78.5 -189t-189.5 -79z" />
    <glyph glyph-name="uni26AC" unicode="&#x26ac;" horiz-adv-x="646" 
d="M323 -14q-111 0 -189.5 79t-78.5 189q0 112 78 190.5t190 78.5t190 -78.5t78 -190.5q0 -110 -78.5 -189t-189.5 -79zM323 45q86 0 146 61.5t60 147.5q0 87 -59.5 148.5t-146.5 61.5q-86 0 -145.5 -61.5t-59.5 -148.5q0 -86 59.5 -147.5t145.5 -61.5z" />
    <glyph glyph-name="uni2776" unicode="&#x2776;" horiz-adv-x="896" 
d="M448 -14q-160 0 -272.5 113t-112.5 275q0 161 113 275.5t272 114.5q160 0 272.5 -114.5t112.5 -275.5q0 -162 -112 -275t-273 -113zM429 224h65v301h-56l-80 -43v-62l71 37v-233z" />
    <glyph glyph-name="uni2777" unicode="&#x2777;" horiz-adv-x="896" 
d="M448 -14q-160 0 -272.5 113t-112.5 275q0 161 113 275.5t272 114.5q160 0 272.5 -114.5t112.5 -275.5q0 -162 -112 -275t-273 -113zM348 224h204v57h-115l75 85q34 37 34 74q0 40 -26.5 65.5t-73.5 25.5q-46 0 -72 -26.5t-26 -67.5v-4h59v4q0 16 10.5 27t28.5 11
q38 0 38 -39q0 -20 -18 -41l-118 -132v-39z" />
    <glyph glyph-name="uni2778" unicode="&#x2778;" horiz-adv-x="896" 
d="M448 -14q-160 0 -272.5 113.5t-112.5 275.5q0 160 113 274.5t272 114.5q160 0 272.5 -114.5t112.5 -274.5q0 -163 -112 -276t-273 -113zM448 218q49 0 79.5 27.5t30.5 67.5q0 50 -45 76q30 21 30 58q0 36 -26.5 60t-68.5 24q-41 0 -67 -23t-26 -57v-12h58v6q0 16 10 25
t26 9t26 -9t10 -25q0 -15 -10.5 -24.5t-26.5 -9.5h-11v-50h11q19 0 32 -12.5t13 -31.5t-12.5 -30.5t-31.5 -11.5t-32 11t-13 29v7h-62q-1 -4 -1 -12q0 -39 30 -65.5t77 -26.5z" />
    <glyph glyph-name="uni2779" unicode="&#x2779;" horiz-adv-x="896" 
d="M448 -14q-160 0 -272.5 113t-112.5 275q0 161 113 275.5t272 114.5q160 0 272.5 -114.5t112.5 -275.5q0 -162 -112 -275t-273 -113zM447 224h65v78h37v51h-37v172h-65l-137 -177v-46h137v-78zM369 353l78 99v-99h-78z" />
    <glyph glyph-name="uni277A" unicode="&#x277a;" horiz-adv-x="896" 
d="M448 -14q-160 0 -272.5 113t-112.5 275q0 161 113 275.5t272 114.5q160 0 272.5 -114.5t112.5 -275.5q0 -162 -112 -275t-273 -113zM450 218q49 0 79 28.5t30 75.5q0 41 -25 68t-66 27q-37 0 -58 -27l12 76h119v59h-170l-23 -173h63q15 20 40 20q23 0 34 -14t11 -35
t-12 -34.5t-34 -13.5q-20 0 -32.5 12t-12.5 31v4h-62q0 -1 -0.5 -6t-0.5 -8q0 -38 30 -64t78 -26z" />
    <glyph glyph-name="uni277B" unicode="&#x277b;" horiz-adv-x="896" 
d="M448 -14q-160 0 -272.5 113t-112.5 275q0 161 113 275.5t272 114.5q160 0 272.5 -114.5t112.5 -275.5q0 -162 -112 -275t-273 -113zM445 218q49 0 80.5 29t31.5 73q0 38 -27 66t-69 30q-7 0 -9 -1l69 110h-78l-93 -151q-16 -25 -16 -57q0 -43 32 -71t79 -28zM445 275
q-20 0 -34 12.5t-14 31.5t14 32.5t34 13.5q21 0 35 -13t14 -33q0 -19 -14 -31.5t-35 -12.5z" />
    <glyph glyph-name="uni277C" unicode="&#x277c;" horiz-adv-x="896" 
d="M448 -14q-160 0 -272.5 113t-112.5 275q0 161 113 275.5t272 114.5q160 0 272.5 -114.5t112.5 -275.5q0 -162 -112 -275t-273 -113zM378 224h71l108 245v56h-205v-59h138z" />
    <glyph glyph-name="uni277D" unicode="&#x277d;" horiz-adv-x="896" 
d="M448 -14q-160 0 -272.5 113t-112.5 275q0 161 113 275.5t272 114.5q160 0 272.5 -114.5t112.5 -275.5q0 -162 -112 -275t-273 -113zM446 218q48 0 78.5 27t30.5 67q0 49 -45 75q31 24 31 60t-26.5 60t-68.5 24t-68 -24t-26 -60q0 -37 31 -60q-45 -27 -45 -75
q0 -40 30.5 -67t77.5 -27zM446 408q-17 0 -27.5 10.5t-10.5 26.5q0 15 11 25.5t27 10.5q17 0 28 -10.5t11 -25.5q0 -16 -10.5 -26.5t-28.5 -10.5zM446 273q-20 0 -34 12.5t-14 30.5q0 19 14 32t34 13q22 0 35.5 -12.5t13.5 -32.5q0 -19 -14 -31t-35 -12z" />
    <glyph glyph-name="uni277E" unicode="&#x277e;" horiz-adv-x="896" 
d="M448 -14q-160 0 -272.5 113t-112.5 275q0 161 113 275.5t272 114.5q160 0 272.5 -114.5t112.5 -275.5q0 -162 -112 -275t-273 -113zM381 224h77l93 151q16 25 16 54q0 44 -31.5 73t-79.5 29t-79.5 -29.5t-31.5 -73.5q0 -39 26.5 -67t68.5 -30q6 0 10 1zM456 382
q-21 0 -35 13.5t-14 32.5q0 20 14 33t35 13q20 0 34 -13t14 -33q0 -19 -14 -32.5t-34 -13.5z" />
    <glyph glyph-name="dotabove-ar" unicode="&#xfbb2;" 
d="M57 380v106h79v-106h-79z" />
    <glyph glyph-name="dotbelow-ar" unicode="&#xfbb3;" 
d="M57 62v106h79v-106h-79z" />
    <glyph glyph-name="twodotshorizontalabove-ar" unicode="&#xfbb4;" 
d="M47 378v106h77v-106h-77zM176 378v106h76v-106h-76z" />
    <glyph glyph-name="twodotshorizontalbelow-ar" unicode="&#xfbb5;" 
d="M49 2v106h76v-106h-76zM178 2v106h76v-106h-76z" />
    <glyph glyph-name="threedotsupabove-ar" unicode="&#xfbb6;" 
d="M111 579v103h79v-103h-79zM46 437v106h76v-106h-76zM177 437v106h76v-106h-76z" />
    <glyph glyph-name="uniFD3E" unicode="&#xfd3e;" horiz-adv-x="280" 
d="M207 -156q-63 73 -111.5 195t-48.5 268q0 148 48 269t112 195h79q-65 -76 -113.5 -199.5t-48.5 -264.5q0 -140 49 -264.5t113 -198.5h-79z" />
    <glyph glyph-name="uniFD3F" unicode="&#xfd3f;" horiz-adv-x="280" 
d="M72 -156h-79q65 74 114 198t49 265t-48.5 265t-114.5 199h79q64 -74 112.5 -195t48.5 -269q0 -146 -48.5 -267.5t-112.5 -195.5z" />
    <glyph glyph-name="Iacute_J.loclNLD" horiz-adv-x="685" 
d="M45 797v46l195 43v-47zM413 797v46l195 43v-47zM80 0v750h93v-750h-93zM288 0v80h166q76 0 76 75v515h-163v80h258v-588q0 -78 -42 -120t-122 -42h-173z" />
    <glyph glyph-name="i.loclTRK" horiz-adv-x="302" 
d="M138 616v134h80v-134h-80zM137 0v429h-114v81h204v-510h-90z" />
    <glyph glyph-name="uni0237" horiz-adv-x="307" 
d="M-52 -200v80h141q53 0 53 56v493h-116v81h206v-584q0 -59 -35 -92.5t-102 -33.5h-147z" />
    <glyph glyph-name="iacute_j.loclNLD" horiz-adv-x="610" 
d="M85 619l104 133h96l-118 -133h-82zM393 619l104 133h96l-118 -133h-82zM137 0v429h-114v81h204v-510h-90zM250 -200v80h141q53 0 53 56v493h-115v81h205v-584q0 -60 -35 -93t-102 -33h-147z" />
    <glyph glyph-name="a.subs" horiz-adv-x="330" 
d="M196 234q48 0 73 -23t25 -65v-209h-69v39q-34 -47 -103 -47q-47 0 -75 24t-28 64q0 36 24 59t66 28l116 15v19q0 35 -34 35h-144v61h149zM141 -20q29 0 52.5 15t31.5 39v39l-92 -14q-44 -8 -44 -40q0 -39 52 -39z" />
    <glyph glyph-name="b.subs" horiz-adv-x="358" 
d="M198 241q60 0 97 -43t37 -112q0 -70 -37.5 -113.5t-97.5 -43.5q-59 0 -90 44v-36h-69v434h69v-173q32 43 91 43zM182 -6q36 0 58 24.5t22 67.5q0 42 -21.5 66.5t-57.5 24.5q-54 0 -76 -50v-84q22 -49 75 -49z" />
    <glyph glyph-name="c.subs" horiz-adv-x="343" 
d="M319 41q-10 -53 -48 -82.5t-93 -29.5q-69 0 -111 43.5t-42 112.5t42 112.5t111 43.5q55 0 92.5 -30t49.5 -84h-68q-20 51 -74 51q-38 0 -61 -25.5t-23 -67.5t23 -67.5t61 -25.5q52 0 73 49h68z" />
    <glyph glyph-name="d.subs" horiz-adv-x="358" 
d="M250 371h70v-434h-70v36q-31 -44 -90 -44q-60 0 -97.5 43.5t-37.5 113.5q0 69 37.5 112t97.5 43q58 0 90 -42v172zM175 -6q51 0 75 47v88q-22 48 -75 48q-36 0 -57.5 -24.5t-21.5 -66.5q0 -43 21.5 -67.5t57.5 -24.5z" />
    <glyph glyph-name="e.subs" horiz-adv-x="349" 
d="M324 89v-17h-230q6 -86 85 -86q54 0 72 35h68q-12 -40 -50.5 -66t-90.5 -26q-69 0 -111 43.5t-42 114.5q0 68 42.5 111t109.5 43q68 0 107.5 -42t39.5 -110zM177 186q-67 0 -81 -67h158q-12 67 -77 67z" />
    <glyph glyph-name="f.subs" horiz-adv-x="250" 
d="M71 -63v236h-53v61h53v50q0 42 24.5 64.5t72.5 22.5h88v-59h-80q-34 0 -34 -34v-44h85v-61h-85v-236h-71z" />
    <glyph glyph-name="g.subs" horiz-adv-x="356" 
d="M250 234h70v-315q0 -46 -27 -72t-79 -26h-124v57h119q41 0 41 44v57q-31 -42 -90 -42q-60 0 -97.5 42.5t-37.5 110.5q0 67 37.5 109t97.5 42q57 0 90 -41v34zM175 -1q50 0 75 48v85q-25 48 -75 48q-36 0 -57.5 -24t-21.5 -66q0 -43 21.5 -67t57.5 -24z" />
    <glyph glyph-name="h.subs" horiz-adv-x="356" 
d="M214 241q49 0 78.5 -31t29.5 -83v-190h-72v170q0 32 -16.5 51t-47.5 19q-24 0 -45.5 -13t-31.5 -33v-194h-71v434h71v-178q38 48 105 48z" />
    <glyph glyph-name="i.subs" horiz-adv-x="185" 
d="M148 288h-72v83h72v-83zM76 -63v236h-70v61h142v-297h-72z" />
    <glyph glyph-name="j.subs" horiz-adv-x="187" 
d="M150 288h-72v83h72v-83zM-26 -179v61h77q27 0 27 28v263h-71v61h143v-332q0 -38 -23 -59.5t-67 -21.5h-86z" />
    <glyph glyph-name="k.subs" horiz-adv-x="322" 
d="M231 -63l-87 126h-35v-126h-71v434h71v-252h34l85 115h79l-104 -139l110 -158h-82z" />
    <glyph glyph-name="l.subs" horiz-adv-x="178" 
d="M164 -63h-43q-42 0 -63.5 21t-21.5 60v293h-44v60h116v-347q0 -27 25 -27h31v-60z" />
    <glyph glyph-name="m.subs" horiz-adv-x="501" 
d="M379 241q40 0 63.5 -26t23.5 -70v-208h-66v182q0 58 -52 58q-39 0 -62 -36v-204h-66v182q0 58 -53 58q-42 0 -63 -40v-200h-66v297h66v-38q35 45 94 45t80 -51q36 51 101 51z" />
    <glyph glyph-name="n.subs" horiz-adv-x="356" 
d="M214 241q49 0 78.5 -30.5t29.5 -82.5v-191h-72v171q0 32 -16.5 50.5t-47.5 18.5q-24 0 -45 -13t-32 -33v-194h-71v297h71v-41q38 48 105 48z" />
    <glyph glyph-name="o.subs" horiz-adv-x="356" 
d="M330 85q0 -69 -42 -112.5t-111 -43.5q-68 0 -110 43.5t-42 112.5t42 112.5t110 43.5q69 0 111 -43t42 -113zM94 85q0 -42 22.5 -67.5t60.5 -25.5q39 0 61.5 25.5t22.5 67.5t-22.5 67.5t-61.5 25.5q-38 0 -60.5 -25.5t-22.5 -67.5z" />
    <glyph glyph-name="p.subs" horiz-adv-x="358" 
d="M198 241q60 0 97 -43t37 -113t-37.5 -113t-97.5 -43q-59 0 -90 45v-153h-69v413h69v-36q32 43 91 43zM182 -6q36 0 58 24t22 67t-21.5 67.5t-57.5 24.5q-54 0 -76 -50v-84q22 -49 75 -49z" />
    <glyph glyph-name="q.subs" horiz-adv-x="358" 
d="M250 234h70v-413h-70v151q-31 -43 -90 -43q-60 0 -97.5 43t-37.5 113t37.5 113t97.5 43q57 0 90 -41v34zM175 -6q51 0 75 47v87q-24 49 -75 49q-36 0 -57.5 -24.5t-21.5 -67.5t21.5 -67t57.5 -24z" />
    <glyph glyph-name="r.subs" horiz-adv-x="239" 
d="M194 234h30v-61h-41q-52 0 -75 -40v-196h-71v297h71v-44q30 44 86 44z" />
    <glyph glyph-name="s.subs" horiz-adv-x="308" 
d="M160 -71q-63 0 -99.5 27t-39.5 74h70q8 -47 69 -47q62 0 62 40q0 20 -15 29t-57 12q-65 4 -93 25t-28 60q0 44 33 68t93 24q119 0 130 -89h-69q-8 37 -61 37q-26 0 -41.5 -9.5t-15.5 -26.5q0 -18 14 -25.5t56 -10.5q66 -4 94.5 -25.5t28.5 -64.5q0 -46 -34.5 -72
t-96.5 -26z" />
    <glyph glyph-name="t.subs" horiz-adv-x="238" 
d="M225 -63h-70q-47 0 -71 22.5t-24 63.5v150h-54v61h54v98h72v-98h92v-61h-92v-142q0 -34 31 -34h62v-60z" />
    <glyph glyph-name="u.subs" horiz-adv-x="352" 
d="M243 234h71v-297h-71v40q-38 -48 -103 -48q-49 0 -77 30.5t-28 82.5v192h71v-172q0 -31 16 -49.5t46 -18.5q22 0 42.5 12.5t32.5 31.5v196z" />
    <glyph glyph-name="v.subs" horiz-adv-x="300" 
d="M196 -63h-93l-92 297h72l66 -235h1l67 235h72z" />
    <glyph glyph-name="w.subs" horiz-adv-x="458" 
d="M378 234h69l-75 -297h-90l-53 199l-53 -199h-89l-76 297h69l55 -226h1l61 213h64l61 -213h2z" />
    <glyph glyph-name="x.subs" horiz-adv-x="308" 
d="M299 -63h-77l-69 103l-67 -103h-76l102 151l-98 146h76l63 -97l62 97h77l-99 -146z" />
    <glyph glyph-name="y.subs" horiz-adv-x="304" 
d="M222 234h71l-123 -342q-13 -37 -33.5 -54t-56.5 -17h-56v61h48q29 0 39 27l12 34l-112 291h72l70 -206h2z" />
    <glyph glyph-name="z.subs" horiz-adv-x="298" 
d="M279 -63h-258v47l168 187v2h-161v61h245v-55l-160 -180v-2h166v-60z" />
    <glyph glyph-name="a.sups" horiz-adv-x="330" 
d="M196 749q48 0 73 -23t25 -65v-209h-69v39q-34 -47 -103 -47q-47 0 -75 24t-28 64q0 36 24 59t66 28l116 15v20q0 34 -34 34h-144v61h149zM141 495q29 0 52.5 15t31.5 39v39l-92 -14q-44 -8 -44 -40q0 -39 52 -39z" />
    <glyph glyph-name="b.sups" horiz-adv-x="358" 
d="M198 756q60 0 97 -43t37 -112q0 -70 -37.5 -113.5t-97.5 -43.5q-59 0 -90 44v-36h-69v435h69v-174q32 43 91 43zM182 509q36 0 58 24.5t22 67.5q0 42 -21.5 66.5t-57.5 24.5q-54 0 -76 -50v-84q22 -49 75 -49z" />
    <glyph glyph-name="c.sups" horiz-adv-x="343" 
d="M319 556q-10 -53 -48 -82.5t-93 -29.5q-69 0 -111 43.5t-42 112.5t42 112.5t111 43.5q55 0 92.5 -30t49.5 -84h-68q-20 51 -74 51q-38 0 -61 -25.5t-23 -67.5t23 -67.5t61 -25.5q52 0 73 49h68z" />
    <glyph glyph-name="d.sups" horiz-adv-x="358" 
d="M250 887h70v-435h-70v36q-31 -44 -90 -44q-60 0 -97.5 43.5t-37.5 113.5q0 69 37.5 112t97.5 43q58 0 90 -42v173zM175 509q51 0 75 47v88q-22 48 -75 48q-36 0 -57.5 -24.5t-21.5 -66.5q0 -43 21.5 -67.5t57.5 -24.5z" />
    <glyph glyph-name="e.sups" horiz-adv-x="349" 
d="M324 604v-17h-230q6 -86 85 -86q54 0 72 35h68q-12 -40 -50.5 -66t-90.5 -26q-69 0 -111 43.5t-42 114.5q0 68 42.5 111t109.5 43q68 0 107.5 -42t39.5 -110zM177 701q-67 0 -81 -67h158q-12 67 -77 67z" />
    <glyph glyph-name="f.sups" horiz-adv-x="242" 
d="M71 452v236h-53v61h53v51q0 41 25 64t72 23h88v-60h-80q-34 0 -34 -34v-44h85v-61h-85v-236h-71z" />
    <glyph glyph-name="g.sups" horiz-adv-x="356" 
d="M250 749h70v-315q0 -46 -27 -72t-79 -26h-124v58h119q41 0 41 43v57q-31 -42 -90 -42q-60 0 -97.5 42.5t-37.5 110.5q0 67 37.5 109t97.5 42q57 0 90 -41v34zM175 514q50 0 75 48v85q-25 48 -75 48q-36 0 -57.5 -24t-21.5 -66q0 -43 21.5 -67t57.5 -24z" />
    <glyph glyph-name="h.sups" horiz-adv-x="356" 
d="M214 756q50 0 79 -31t29 -83v-190h-72v170q0 32 -16.5 51t-47.5 19q-24 0 -45.5 -13t-31.5 -33v-194h-71v435h71v-179q38 48 105 48z" />
    <glyph glyph-name="i.sups" horiz-adv-x="185" 
d="M148 803h-72v84h72v-84zM76 452v236h-70v61h142v-297h-72z" />
    <glyph glyph-name="j.sups" horiz-adv-x="223" 
d="M185 803h-71v84h71v-84zM10 336v61h77q27 0 27 28v263h-71v61h142v-332q0 -38 -22.5 -59.5t-66.5 -21.5h-86z" />
    <glyph glyph-name="k.sups" horiz-adv-x="322" 
d="M231 452l-87 126h-35v-126h-71v435h71v-252h35l84 114h79l-104 -139l110 -158h-82z" />
    <glyph glyph-name="l.sups" horiz-adv-x="178" 
d="M164 452h-43q-42 0 -63.5 21t-21.5 60v293h-44v61h116v-348q0 -27 25 -27h31v-60z" />
    <glyph glyph-name="m.sups" horiz-adv-x="501" 
d="M379 756q40 0 63.5 -26t23.5 -70v-208h-66v182q0 58 -52 58q-39 0 -62 -36v-204h-66v182q0 58 -53 58q-42 0 -63 -40v-200h-66v297h66v-38q35 45 94 45t80 -51q36 51 101 51z" />
    <glyph glyph-name="n.sups" horiz-adv-x="356" 
d="M214 756q49 0 78.5 -30.5t29.5 -82.5v-191h-72v171q0 32 -16.5 50.5t-47.5 18.5q-24 0 -45 -13t-32 -33v-194h-71v297h71v-41q38 48 105 48z" />
    <glyph glyph-name="o.sups" horiz-adv-x="356" 
d="M330 600q0 -69 -42 -112.5t-111 -43.5q-68 0 -110 43.5t-42 112.5t42 112.5t110 43.5q69 0 111 -43t42 -113zM94 600q0 -42 22.5 -67.5t60.5 -25.5q39 0 61.5 25.5t22.5 67.5t-22.5 67.5t-61.5 25.5q-38 0 -60.5 -25.5t-22.5 -67.5z" />
    <glyph glyph-name="p.sups" horiz-adv-x="358" 
d="M198 756q60 0 97 -43t37 -113t-37.5 -113t-97.5 -43q-59 0 -90 45v-153h-69v413h69v-36q32 43 91 43zM182 509q36 0 58 24t22 67t-21.5 67.5t-57.5 24.5q-54 0 -76 -50v-84q22 -49 75 -49z" />
    <glyph glyph-name="q.sups" horiz-adv-x="358" 
d="M250 749h70v-413h-70v151q-31 -43 -90 -43q-60 0 -97.5 43t-37.5 113t37.5 113t97.5 43q57 0 90 -41v34zM175 509q51 0 75 47v87q-24 49 -75 49q-36 0 -57.5 -24.5t-21.5 -67.5t21.5 -67t57.5 -24z" />
    <glyph glyph-name="r.sups" horiz-adv-x="239" 
d="M194 749h30v-61h-41q-52 0 -75 -40v-196h-71v297h71v-44q30 44 86 44z" />
    <glyph glyph-name="s.sups" horiz-adv-x="308" 
d="M160 444q-63 0 -99.5 27t-39.5 74h70q8 -47 69 -47q62 0 62 40q0 20 -15 29t-57 12q-65 4 -93 25t-28 60q0 44 33 68t93 24q119 0 130 -89h-69q-8 37 -61 37q-26 0 -41.5 -9.5t-15.5 -26.5q0 -18 14 -25.5t56 -10.5q66 -4 94.5 -25.5t28.5 -64.5q0 -46 -34.5 -72
t-96.5 -26z" />
    <glyph glyph-name="t.sups" horiz-adv-x="238" 
d="M225 452h-70q-47 0 -71 22.5t-24 63.5v150h-54v61h54v98h72v-98h92v-61h-92v-142q0 -34 31 -34h62v-60z" />
    <glyph glyph-name="u.sups" horiz-adv-x="352" 
d="M243 749h71v-297h-71v40q-38 -48 -103 -48q-49 0 -77 30.5t-28 82.5v192h71v-172q0 -31 16 -49.5t46 -18.5q22 0 42.5 12.5t32.5 31.5v196z" />
    <glyph glyph-name="v.sups" horiz-adv-x="300" 
d="M196 452h-93l-92 297h72l66 -235h1l67 235h72z" />
    <glyph glyph-name="w.sups" horiz-adv-x="458" 
d="M378 749h69l-75 -297h-90l-53 199l-53 -199h-89l-76 297h69l55 -226h1l61 213h64l61 -213h2z" />
    <glyph glyph-name="x.sups" horiz-adv-x="308" 
d="M299 452h-77l-69 104l-67 -104h-76l102 151l-98 146h76l63 -97l62 97h77l-99 -146z" />
    <glyph glyph-name="y.sups" horiz-adv-x="304" 
d="M222 749h71l-123 -342q-13 -37 -33.5 -54t-56.5 -17h-56v61h48q29 0 39 27l12 34l-112 291h72l70 -206h2z" />
    <glyph glyph-name="z.sups" horiz-adv-x="298" 
d="M279 452h-258v47l168 187v2h-161v61h245v-55l-160 -180v-2h166v-60z" />
    <glyph glyph-name="uni0627.short" horiz-adv-x="235" 
d="M78 0v613h79v-613h-79z" />
    <glyph glyph-name="uniFE8E.short" horiz-adv-x="277" 
d="M254 0q-97 0 -136.5 42.5t-39.5 145.5v425h79v-425q0 -62 22.5 -78.5t97.5 -16.5l17 -10v-73l-17 -10h-23z" />
    <glyph glyph-name="uni06410626" horiz-adv-x="902" 
d="M711 766v-106h-79v106h79zM842 171q0 -80 -34 -121.5t-113 -48.5v-20q0 -219 -318 -219q-99 0 -166.5 19.5t-105 59t-53 90.5t-15.5 123q0 55 9 112t22 87h79q-27 -88 -27 -189q0 -120 57.5 -164.5t204.5 -44.5q93 0 146 17t69 41t16 60v27h-172v93h224q53 0 75 15.5
t22 57.5v65q-39 -57 -137 -57q-89 0 -134 51.5t-45 127.5q0 95 61.5 154.5t163.5 59.5q44 0 86.5 -11.5t62.5 -23.5l21 -12zM192 388v-51h-177v48h31q-16 18 -16 49q0 39 26.5 60.5t64.5 21.5q16 0 31 -3t22 -7l8 -3l-11 -43q-24 6 -50 6q-48 0 -48 -38q0 -21 9 -30.5
t33 -9.5h77zM643 267q84 0 119 40v142q-40 24 -100 24q-66 0 -99.5 -29.5t-33.5 -79.5q0 -43 28.5 -70t85.5 -27z" />
    <glyph glyph-name="uni06A10649" horiz-adv-x="902" 
d="M842 171q0 -80 -34 -121.5t-113 -48.5v-20q0 -219 -318 -219q-99 0 -166.5 19.5t-105 59t-53 90.5t-15.5 123q0 55 9 112t22 87h79q-27 -88 -27 -189q0 -120 57.5 -164.5t204.5 -44.5q93 0 146 17t69 41t16 60v27h-172v93h224q53 0 75 15.5t22 57.5v65q-39 -57 -137 -57
q-89 0 -134 51.5t-45 127.5q0 95 61.5 154.5t163.5 59.5q44 0 86.5 -11.5t62.5 -23.5l21 -12zM643 267q84 0 119 40v142q-40 24 -100 24q-66 0 -99.5 -29.5t-33.5 -79.5q0 -43 28.5 -70t85.5 -27z" />
    <glyph glyph-name="uni06420626" horiz-adv-x="902" 
d="M645 760v-106h-77v106h77zM773 760v-106h-76v106h76zM842 171q0 -80 -34 -121.5t-113 -48.5v-20q0 -219 -318 -219q-99 0 -166.5 19.5t-105 59t-53 90.5t-15.5 123q0 55 9 112t22 87h79q-27 -88 -27 -189q0 -120 57.5 -164.5t204.5 -44.5q93 0 146 17t69 41t16 60v27
h-172v93h224q53 0 75 15.5t22 57.5v65q-39 -57 -137 -57q-89 0 -134 51.5t-45 127.5q0 95 61.5 154.5t163.5 59.5q44 0 86.5 -11.5t62.5 -23.5l21 -12zM192 388v-51h-177v48h31q-16 18 -16 49q0 39 26.5 60.5t64.5 21.5q16 0 31 -3t22 -7l8 -3l-11 -43q-24 6 -50 6
q-48 0 -48 -38q0 -21 9 -30.5t33 -9.5h77zM643 267q84 0 119 40v142q-40 24 -100 24q-66 0 -99.5 -29.5t-33.5 -79.5q0 -43 28.5 -70t85.5 -27z" />
    <glyph glyph-name="zero.subs" horiz-adv-x="270" 
d="M135 -84q-49 0 -78.5 31t-29.5 79v92q0 48 29.5 79.5t78.5 31.5t78.5 -31.5t29.5 -79.5v-92q0 -48 -29.5 -79t-78.5 -31zM135 -27q21 0 33 14t12 37v97q0 22 -12 36.5t-33 14.5t-33 -14.5t-12 -36.5v-97q0 -23 12 -37t33 -14z" />
    <glyph glyph-name="one.subs" horiz-adv-x="191" 
d="M99 223h56v-301h-64v233l-71 -37v62z" />
    <glyph glyph-name="two.subs" horiz-adv-x="255" 
d="M118 -21h115v-57h-204v38l119 133q18 19 18 41q0 17 -10 28t-28 11q-19 0 -29.5 -11t-10.5 -27v-4h-58v4q0 41 26 67.5t72 26.5t72.5 -26t26.5 -65q0 -36 -33 -74z" />
    <glyph glyph-name="three.subs" horiz-adv-x="260" 
d="M197 87q43 -27 43 -76q0 -40 -30.5 -67.5t-78.5 -27.5q-47 0 -77 26.5t-30 65.5v12h63v-7q0 -18 13 -29t32 -11t31.5 11.5t12.5 30.5t-13 31.5t-32 12.5h-12v50h12q16 0 26.5 9.5t10.5 24.5t-10.5 24.5t-25.5 9.5q-16 0 -26 -9t-10 -25v-6h-58v12q0 34 26 57t67 23
q42 0 68 -24t26 -60q0 -35 -28 -58z" />
    <glyph glyph-name="four.subs" horiz-adv-x="283" 
d="M262 51v-51h-37v-78h-66v78h-136v46l136 177h66v-172h37zM82 51h77v99z" />
    <glyph glyph-name="five.subs" horiz-adv-x="262" 
d="M133 -84q-48 0 -78 26t-30 64q0 8 2 14h62v-4q0 -19 12.5 -31t31.5 -12q22 0 34.5 13.5t12.5 34.5t-11.5 35t-34.5 14q-26 0 -39 -20h-63l23 173h170v-59h-120l-12 -76q22 27 58 27q42 0 66.5 -26.5t24.5 -68.5q0 -47 -30 -75.5t-79 -28.5z" />
    <glyph glyph-name="six.subs" horiz-adv-x="263" 
d="M144 114q45 0 73.5 -28t28.5 -68q0 -44 -31.5 -73t-79.5 -29t-79.5 28t-31.5 71q0 32 16 57l93 151h78l-69 -109h2zM135 -27q21 0 35 12.5t14 31.5q0 20 -14 33t-35 13t-34.5 -13t-13.5 -33q0 -19 13.5 -31.5t34.5 -12.5z" />
    <glyph glyph-name="seven.subs" horiz-adv-x="243" 
d="M21 223h204v-56l-108 -245h-71l112 242h-137v59z" />
    <glyph glyph-name="eight.subs" horiz-adv-x="261" 
d="M194 85q45 -26 45 -75q0 -40 -30.5 -67t-78.5 -27q-47 0 -77.5 27t-30.5 67q0 49 45 75q-31 23 -31 60q0 36 26 60t68 24t68 -24t26 -60q0 -37 -30 -60zM130 179q-16 0 -27 -10.5t-11 -25.5q0 -16 10.5 -26.5t27.5 -10.5q18 0 28.5 10.5t10.5 26.5q0 15 -11 25.5
t-28 10.5zM130 -29q21 0 35 12t14 31q0 20 -13.5 32.5t-35.5 12.5q-20 0 -34 -13t-14 -32q0 -18 14 -30.5t34 -12.5z" />
    <glyph glyph-name="nine.subs" horiz-adv-x="265" 
d="M132 229q48 0 79.5 -29t31.5 -73q0 -29 -16 -54l-93 -151h-78l68 106q-46 0 -74.5 29t-28.5 69q0 44 31 73.5t80 29.5zM131 80q21 0 35 13.5t14 32.5q0 20 -14 33t-35 13t-34.5 -13t-13.5 -33q0 -19 13.5 -32.5t34.5 -13.5z" />
    <glyph glyph-name="zero.dnom" horiz-adv-x="270" 
d="M135 -6q-49 0 -78.5 31t-29.5 79v92q0 48 29.5 79.5t78.5 31.5t78.5 -31.5t29.5 -79.5v-92q0 -48 -29.5 -79t-78.5 -31zM135 51q21 0 33 14t12 37v97q0 22 -12 36.5t-33 14.5t-33 -14.5t-12 -36.5v-97q0 -23 12 -37t33 -14z" />
    <glyph glyph-name="one.dnom" horiz-adv-x="191" 
d="M99 301h56v-301h-64v233l-71 -37v62z" />
    <glyph glyph-name="two.dnom" horiz-adv-x="255" 
d="M118 57h115v-57h-204v38l119 133q18 19 18 41q0 17 -10 28t-28 11q-19 0 -29.5 -11t-10.5 -27v-4h-58v4q0 41 26 67.5t72 26.5t72.5 -26t26.5 -65q0 -36 -33 -74z" />
    <glyph glyph-name="three.dnom" horiz-adv-x="260" 
d="M197 165q43 -27 43 -76q0 -40 -30.5 -67.5t-78.5 -27.5q-47 0 -77 26.5t-30 65.5v12h63v-7q0 -18 13 -29t32 -11t31.5 11.5t12.5 30.5t-13 31.5t-32 12.5h-12v50h12q16 0 26.5 9.5t10.5 24.5t-10.5 24.5t-25.5 9.5q-16 0 -26 -9t-10 -25v-6h-58v12q0 34 26 57t67 23
q42 0 68 -24t26 -60q0 -35 -28 -58z" />
    <glyph glyph-name="four.dnom" horiz-adv-x="283" 
d="M262 129v-51h-37v-78h-66v78h-136v46l136 177h66v-172h37zM82 129h77v99z" />
    <glyph glyph-name="five.dnom" horiz-adv-x="262" 
d="M133 -6q-48 0 -78 26t-30 64q0 8 2 14h62v-4q0 -19 12.5 -31t31.5 -12q22 0 34.5 13.5t12.5 34.5t-11.5 35t-34.5 14q-26 0 -39 -20h-63l23 173h170v-59h-120l-12 -76q22 27 58 27q42 0 66.5 -26.5t24.5 -68.5q0 -47 -30 -75.5t-79 -28.5z" />
    <glyph glyph-name="six.dnom" horiz-adv-x="263" 
d="M144 192q45 0 73.5 -28t28.5 -68q0 -44 -31.5 -73t-79.5 -29t-79.5 28t-31.5 71q0 32 16 57l93 151h78l-69 -109h2zM135 51q21 0 35 12.5t14 31.5q0 20 -14 33t-35 13t-34.5 -13t-13.5 -33q0 -19 13.5 -31.5t34.5 -12.5z" />
    <glyph glyph-name="seven.dnom" horiz-adv-x="243" 
d="M21 301h204v-56l-108 -245h-71l112 242h-137v59z" />
    <glyph glyph-name="eight.dnom" horiz-adv-x="261" 
d="M194 163q45 -26 45 -75q0 -40 -30.5 -67t-78.5 -27q-47 0 -77.5 27t-30.5 67q0 49 45 75q-31 23 -31 60q0 36 26 60t68 24t68 -24t26 -60q0 -37 -30 -60zM130 257q-16 0 -27 -10.5t-11 -25.5q0 -16 10.5 -26.5t27.5 -10.5q18 0 28.5 10.5t10.5 26.5q0 15 -11 25.5
t-28 10.5zM130 49q21 0 35 12t14 31q0 20 -13.5 32.5t-35.5 12.5q-20 0 -34 -13t-14 -32q0 -18 14 -30.5t34 -12.5z" />
    <glyph glyph-name="nine.dnom" horiz-adv-x="265" 
d="M132 307q48 0 79.5 -29t31.5 -73q0 -29 -16 -54l-93 -151h-78l68 106q-46 0 -74.5 29t-28.5 69q0 44 31 73.5t80 29.5zM131 158q21 0 35 13.5t14 32.5q0 20 -14 33t-35 13t-34.5 -13t-13.5 -33q0 -19 13.5 -32.5t34.5 -13.5z" />
    <glyph glyph-name="zero.numr" horiz-adv-x="270" 
d="M135 443q-49 0 -78.5 31t-29.5 79v92q0 48 29.5 79.5t78.5 31.5t78.5 -31.5t29.5 -79.5v-92q0 -48 -29.5 -79t-78.5 -31zM135 500q21 0 33 14t12 37v97q0 22 -12 36.5t-33 14.5t-33 -14.5t-12 -36.5v-97q0 -23 12 -37t33 -14z" />
    <glyph glyph-name="one.numr" horiz-adv-x="191" 
d="M99 750h56v-301h-64v233l-71 -37v62z" />
    <glyph glyph-name="two.numr" horiz-adv-x="255" 
d="M118 506h115v-57h-204v38l119 133q18 20 18 41q0 17 -10 28t-28 11q-19 0 -29.5 -11t-10.5 -27v-4h-58v4q0 41 26 67.5t72 26.5t72.5 -26t26.5 -65q0 -36 -33 -74z" />
    <glyph glyph-name="three.numr" horiz-adv-x="260" 
d="M197 614q43 -27 43 -76q0 -40 -30.5 -67.5t-78.5 -27.5q-47 0 -77 26.5t-30 65.5v12h63v-7q0 -18 13 -29t32 -11t31.5 11.5t12.5 30.5t-13 31.5t-32 12.5h-12v50h12q16 0 26.5 9.5t10.5 24.5t-10.5 24.5t-25.5 9.5q-16 0 -26 -9t-10 -25v-6h-58v12q0 34 26 57t67 23
q42 0 68 -24t26 -60q0 -35 -28 -58z" />
    <glyph glyph-name="four.numr" horiz-adv-x="283" 
d="M262 578v-51h-37v-78h-66v78h-136v46l136 177h66v-172h37zM82 578h77v99z" />
    <glyph glyph-name="five.numr" horiz-adv-x="262" 
d="M133 443q-48 0 -78 26t-30 64q0 8 2 14h62v-4q0 -19 12.5 -31t31.5 -12q22 0 34.5 13.5t12.5 34.5t-11.5 35t-34.5 14q-26 0 -39 -20h-63l23 173h170v-59h-120l-12 -76q22 27 58 27q42 0 66.5 -26.5t24.5 -68.5q0 -47 -30 -75.5t-79 -28.5z" />
    <glyph glyph-name="six.numr" horiz-adv-x="263" 
d="M144 641q45 0 73.5 -28t28.5 -68q0 -44 -31.5 -73t-79.5 -29t-79.5 28t-31.5 71q0 32 16 57l93 151h78l-69 -109h2zM135 500q21 0 35 12.5t14 31.5q0 20 -14 33t-35 13t-34.5 -13t-13.5 -33q0 -19 13.5 -31.5t34.5 -12.5z" />
    <glyph glyph-name="seven.numr" horiz-adv-x="243" 
d="M21 750h204v-56l-108 -245h-71l112 242h-137v59z" />
    <glyph glyph-name="eight.numr" horiz-adv-x="261" 
d="M194 612q45 -26 45 -75q0 -40 -30.5 -67t-78.5 -27q-47 0 -77.5 27t-30.5 67q0 49 45 75q-31 23 -31 60q0 36 26 60t68 24t68 -24t26 -60q0 -38 -30 -60zM130 706q-16 0 -27 -10.5t-11 -25.5q0 -16 10.5 -26.5t27.5 -10.5q18 0 28.5 10.5t10.5 26.5q0 15 -11 25.5
t-28 10.5zM130 498q21 0 35 12t14 31q0 20 -13.5 32.5t-35.5 12.5q-20 0 -34 -13t-14 -32q0 -18 14 -30.5t34 -12.5z" />
    <glyph glyph-name="nine.numr" horiz-adv-x="265" 
d="M132 756q48 0 79.5 -29t31.5 -73q0 -29 -16 -54l-93 -151h-78l68 106q-46 0 -74.5 29t-28.5 69q0 44 31 73.5t80 29.5zM131 607q21 0 35 13.5t14 32.5q0 20 -14 33t-35 13t-34.5 -13t-13.5 -33q0 -19 13.5 -32.5t34.5 -13.5z" />
    <glyph glyph-name="colon.case" horiz-adv-x="244" 
d="M165 459h-86v136h86v-136zM165 86h-86v135h86v-135z" />
    <glyph glyph-name="exclamdown.case" horiz-adv-x="242" 
d="M167 622h-91v128h91v-128zM173 0h-104l21 520h62z" />
    <glyph glyph-name="questiondown.case" horiz-adv-x="549" 
d="M339 750v-113h-91v113h91zM408 217h89v-13q0 -91 -62 -154.5t-166 -63.5q-103 0 -163 62t-60 142q0 62 29 104t87 87l86 65v89h91v-123l-129 -97q-69 -52 -69 -120q0 -48 34 -86t96 -38q63 0 100 39.5t37 93.5v13z" />
    <glyph glyph-name="periodcentered.case" horiz-adv-x="216" 
d="M151 319h-86v136h86v-136z" />
    <glyph glyph-name="braceleft.case" horiz-adv-x="306" 
d="M231 0q-145 0 -145 106q0 31 11 92.5t11 90.5q0 27 -16 43.5t-45 16.5h-15v54h15q29 0 45 15.5t16 41.5q0 29 -11 90t-11 92q0 108 145 108h42l1 -63q-102 0 -102 -68q0 -30 9 -84.5t9 -78.5q0 -76 -70 -80v-1q70 -4 70 -82q0 -25 -9 -79.5t-9 -84.5q0 -65 102 -65
l-1 -64h-42z" />
    <glyph glyph-name="braceright.case" horiz-adv-x="306" 
d="M75 0h-42l-1 63q102 0 102 66q0 30 -9.5 84.5t-9.5 79.5q0 78 71 82v1q-31 2 -51 21t-20 59q0 24 9.5 78.5t9.5 84.5q0 68 -102 68l1 63h42q145 0 145 -108q0 -31 -11 -92t-11 -90q0 -26 16 -41.5t45 -15.5h15v-54h-15q-29 0 -45 -16t-16 -44q0 -29 11 -90.5t11 -92.5
q0 -106 -145 -106z" />
    <glyph glyph-name="bracketleft.case" horiz-adv-x="276" 
d="M238 673h-82v-596h82v-77h-172v750h172v-77z" />
    <glyph glyph-name="bracketright.case" horiz-adv-x="276" 
d="M38 750h173v-750h-173v77h82v596h-82v77z" />
    <glyph glyph-name="hyphen.case" horiz-adv-x="452" 
d="M384 362h-316v65h316v-65z" />
    <glyph glyph-name="endash.case" horiz-adv-x="723" 
d="M105 362v65h513v-65h-513z" />
    <glyph glyph-name="emdash.case" horiz-adv-x="1259" 
d="M253 362v65h792v-65h-792z" />
    <glyph glyph-name="guillemotleft.case" horiz-adv-x="517" 
d="M194 154l-168 200v7l168 200h96l-170 -203l170 -204h-96zM391 154l-168 200v7l168 200h97l-170 -203l170 -204h-97z" />
    <glyph glyph-name="guillemotright.case" horiz-adv-x="514" 
d="M126 154h-97l171 204l-171 203h97l168 -200v-7zM321 154h-97l171 204l-171 203h97l168 -200v-7z" />
    <glyph glyph-name="guilsinglleft.case" horiz-adv-x="319" 
d="M194 154l-168 200v7l168 200h96l-170 -203l170 -204h-96z" />
    <glyph glyph-name="guilsinglright.case" horiz-adv-x="319" 
d="M126 154h-97l171 204l-171 203h97l168 -200v-7z" />
    <glyph glyph-name="hyphen.subs" horiz-adv-x="286" 
d="M237 63h-187v44h187v-44z" />
    <glyph glyph-name="parenleft.subs" horiz-adv-x="196" 
d="M138 -174q-38 43 -67 115t-29 161q0 88 29 160t67 117h52q-38 -45 -66.5 -119t-28.5 -158t28.5 -158t66.5 -118h-52z" />
    <glyph glyph-name="parenright.subs" horiz-adv-x="196" 
d="M59 -174h-53q38 45 67 118.5t29 157.5t-28.5 157.5t-67.5 119.5h53q39 -44 67.5 -116t28.5 -161t-29 -161t-67 -115z" />
    <glyph glyph-name="period.subs" horiz-adv-x="155" 
d="M108 -75h-61v84h61v-84z" />
    <glyph glyph-name="comma.subs" horiz-adv-x="172" 
d="M70 -158h-49l45 167h68z" />
    <glyph glyph-name="hyphen.sups" horiz-adv-x="286" 
d="M237 587h-187v45h187v-45z" />
    <glyph glyph-name="parenleft.sups" horiz-adv-x="196" 
d="M138 350q-38 44 -67 116t-29 160q0 89 29 161t67 116h52q-38 -45 -66.5 -118.5t-28.5 -158.5q0 -84 28.5 -157.5t66.5 -118.5h-52z" />
    <glyph glyph-name="parenright.sups" horiz-adv-x="196" 
d="M59 350h-53q38 46 67 119.5t29 156.5q0 84 -28.5 157.5t-67.5 119.5h53q39 -43 67.5 -115.5t28.5 -161.5q0 -88 -29 -160t-67 -116z" />
    <glyph glyph-name="period.sups" horiz-adv-x="155" 
d="M108 450h-61v84h61v-84z" />
    <glyph glyph-name="comma.sups" horiz-adv-x="172" 
d="M70 367h-49l45 167h68z" />
    <glyph glyph-name="arrowup.case" horiz-adv-x="524" 
d="M489 580v-95l-192 156v-641h-70v640l-191 -155v95l224 184h3z" />
    <glyph glyph-name="uni2197.case" horiz-adv-x="841" 
d="M808 750l3 -3v-301h-74v182l-628 -628h-99l680 681h-187v69h305z" />
    <glyph glyph-name="arrowright.case" horiz-adv-x="670" 
d="M426 611l183 -224v-3l-183 -227h-96l157 193h-426v69h426l-157 192h96z" />
    <glyph glyph-name="uni2198.case" horiz-adv-x="841" 
d="M737 304h74v-301l-3 -3h-305v69h187l-680 681h99l628 -628v182z" />
    <glyph glyph-name="arrowdown.case" horiz-adv-x="524" 
d="M297 109l192 156v-95l-226 -184h-3l-224 184v95l191 -156v641h70v-641z" />
    <glyph glyph-name="uni2199.case" horiz-adv-x="841" 
d="M831 750l-680 -681h187v-69h-305l-3 3v301h74v-182l628 628h99z" />
    <glyph glyph-name="arrowleft.case" horiz-adv-x="670" 
d="M609 419v-69h-426l157 -193h-95l-184 227v3l184 224h95l-157 -192h426z" />
    <glyph glyph-name="uni2196.case" horiz-adv-x="841" 
d="M831 0h-99l-628 628v-182h-74v301l3 3h305v-69h-187z" />
    <glyph glyph-name="arrowboth.case" horiz-adv-x="901" 
d="M656 611l184 -224v-3l-184 -227h-95l157 193h-535l157 -193h-95l-184 227v3l184 224h95l-157 -192h535l-157 192h95z" />
    <glyph glyph-name="arrowupdn.case" horiz-adv-x="539" 
d="M487 499l-188 148v-545l188 149v-90l-222 -175h-3l-222 175v90l189 -149v545l-189 -148v90l222 175h3l222 -175v-90z" />
    <glyph glyph-name="at.case" horiz-adv-x="1050" 
d="M519 789q136 0 247.5 -57.5t176.5 -164t65 -241.5q0 -138 -56.5 -209.5t-143.5 -71.5q-57 0 -95 27t-52 75q-59 -102 -197 -102q-78 0 -127 42t-49 110q0 61 38 99.5t107 49.5l220 34v39q0 69 -67 69h-250v81h252q74 0 114 -36.5t40 -103.5v-221q0 -46 21 -70.5t59 -24.5
q53 0 87 53t34 160q0 180 -121 291.5t-303 111.5q-173 0 -292.5 -117t-119.5 -300q0 -181 112 -294t289 -113q64 0 117 17v-62q-57 -15 -117 -15q-204 0 -335 131.5t-131 335.5q0 206 138.5 341.5t338.5 135.5zM483 118q58 0 105.5 29.5t64.5 76.5v84l-188 -31
q-86 -14 -86 -80q0 -36 28 -57.5t76 -21.5z" />
    <glyph glyph-name="plus.subs" horiz-adv-x="302" 
d="M268 115v-46h-94v-93h-45v93h-94v46h94v93h45v-93h94z" />
    <glyph glyph-name="minus.subs" horiz-adv-x="302" 
d="M35 116v46h233v-46h-233z" />
    <glyph glyph-name="multiply.subs" horiz-adv-x="265" 
d="M230 154l-66 -66l66 -67l-32 -31l-66 66l-66 -66l-32 31l66 67l-66 66l32 32l66 -66l66 66z" />
    <glyph glyph-name="divide.subs" horiz-adv-x="302" 
d="M183 160h-62v83h62v-83zM35 73v42h233v-42h-233zM183 -56h-62v84h62v-84z" />
    <glyph glyph-name="equal.subs" horiz-adv-x="302" 
d="M35 116v44h233v-44h-233zM35 13v43h233v-43h-233z" />
    <glyph glyph-name="plus.sups" horiz-adv-x="302" 
d="M268 686v-46h-94v-92h-45v92h-94v46h94v93h45v-93h94z" />
    <glyph glyph-name="minus.sups" horiz-adv-x="302" 
d="M35 640v46h233v-46h-233z" />
    <glyph glyph-name="multiply.sups" horiz-adv-x="265" 
d="M230 730l-66 -66l66 -67l-32 -31l-66 66l-66 -66l-32 31l67 67l-67 66l32 32l66 -67l66 66z" />
    <glyph glyph-name="divide.sups" horiz-adv-x="302" 
d="M183 729h-62v84h62v-84zM35 642v42h233v-42h-233zM183 514h-62v83h62v-83z" />
    <glyph glyph-name="equal.sups" horiz-adv-x="302" 
d="M35 690v44h233v-44h-233zM35 587v43h233v-43h-233z" />
    <glyph glyph-name="uni0308.case" 
d="M-349 857v46h132v-46h-132zM-132 857v46h132v-46h-132z" />
    <glyph glyph-name="uni0307.case" 
d="M-145 857v46h145v-46h-145z" />
    <glyph glyph-name="gravecomb.case" 
d="M0 834l-304 42v47l304 -42v-47z" />
    <glyph glyph-name="acutecomb.case" 
d="M-304 834v47l304 42v-47z" />
    <glyph glyph-name="uni030B.case" 
d="M-380 847l124 65h83l-126 -65h-81zM-207 847l124 65h83l-126 -65h-81z" />
    <glyph glyph-name="uni0302.case" 
d="M0 886v-47l-131 40l-136 -40v47l134 41h3z" />
    <glyph glyph-name="uni030C.case" 
d="M-131 887l131 40v-47l-130 -42h-3l-134 42v47z" />
    <glyph glyph-name="uni0306.case" 
d="M-201 852q-64 0 -64 61v22h43v-13q0 -14 6 -20t21 -6h124q16 0 22 6t6 20v13h43v-22q0 -28 -16.5 -44.5t-48.5 -16.5h-136z" />
    <glyph glyph-name="uni030A.case" 
d="M-91 827q-91 0 -91 60q0 28 24.5 44t66.5 16t66.5 -16t24.5 -44q0 -29 -24.5 -44.5t-66.5 -15.5zM-91 858q56 0 56 28q0 30 -56 30t-56 -30q0 -28 56 -28z" />
    <glyph glyph-name="tildecomb.case" 
d="M-318 857v46h318v-46h-318z" />
    <glyph glyph-name="uni0304.case" 
d="M-318 857v46h318v-46h-318z" />
    <glyph glyph-name="dotcenterar" 
d="M57 217v106h79v-106h-79z" />
    <glyph glyph-name="uni0654064F" 
d="M74 626l-14 48q40 10 70 21q-35 17 -35 59q0 30 19 52.5t53 22.5q32 0 50 -22t18 -53q0 -50 -39 -76.5t-122 -51.5zM134 751q0 -25 40 -35q22 16 22 35q0 14 -9 22t-23 8q-13 0 -21.5 -8t-8.5 -22zM116 499q0 -21 9 -30.5t33 -9.5h77v-51h-177v48h31q-16 18 -16 49
q0 39 26.5 60.5t64.5 21.5q16 0 31 -3.5t23 -6.5l7 -3l-11 -43q-24 6 -50 6q-48 0 -48 -38z" />
    <glyph glyph-name="uni0654064C" 
d="M182 646q-69 0 -71 75l1 26h-38v51l38 1q35 0 37 -41l1 -32q1 -18 8 -25.5t29 -7.5q12 0 32 4q-40 18 -40 61q0 30 19 52.5t53 22.5q32 0 49.5 -22t17.5 -53q0 -43 -41.5 -77.5t-94.5 -34.5zM218 754q0 -25 43 -35q19 16 19 35q0 15 -9 23t-22 8t-22 -8.5t-9 -22.5z
M175 499q0 -21 9 -30.5t32 -9.5h77v-51h-177v48h31q-16 18 -16 49q0 39 26.5 60.5t65.5 21.5q15 0 30 -3.5t23 -6.5l7 -3l-10 -43q-24 6 -50 6q-48 0 -48 -38z" />
    <glyph glyph-name="uni0654064E" 
d="M297 748l9 -45l-243 -49l-8 44zM147 499q0 -21 9 -30.5t33 -9.5h76v-51h-176v48h30q-16 18 -16 49q0 39 26.5 60.5t65.5 21.5q16 0 31 -3.5t22 -6.5l8 -3l-11 -43q-24 6 -50 6q-48 0 -48 -38z" />
    <glyph glyph-name="uni0654064B" 
d="M306 802l-243 -48l-8 44l242 49zM55 698l242 50l9 -45l-243 -49zM147 499q0 -21 9 -30.5t33 -9.5h76v-51h-176v48h30q-16 18 -16 49q0 39 26.5 60.5t65.5 21.5q16 0 31 -3.5t22 -6.5l8 -3l-11 -43q-24 6 -50 6q-48 0 -48 -38z" />
    </font>
</defs>
</svg>
